<?xml version="1.0" encoding="utf-8"?>
<!DOCTYPE svg PUBLIC "-//W3C//DTD SVG 1.1//EN" "http://www.w3.org/Graphics/SVG/1.1/DTD/svg11.dtd">
<svg xmlns="http://www.w3.org/2000/svg" xmlns:xlink="http://www.w3.org/1999/xlink" version="1.1" baseProfile="full" width="903.113" height="938.736" viewBox="0 0 903.11 938.74" enable-background="new 0 0 903.11 938.74" xml:space="preserve">
	<linearGradient id="SVGID_Fill1_" gradientUnits="objectBoundingBox" x1="-0.0020674" y1="0.499803" x2="1.0027" y2="0.499803">
		<stop offset="0" stop-color="#FF7D22" stop-opacity="1"/>
		<stop offset="0.818965" stop-color="#FFB581" stop-opacity="1"/>
		<stop offset="1" stop-color="#FFFFFF" stop-opacity="1"/>
	</linearGradient>
	<path fill="url(#SVGID_Fill1_)" stroke-width="5" stroke-linejoin="round" d="M 5.86896,2.69958L 895.869,2.69958C 898.63,2.69958 900.869,4.93817 900.869,7.69958L 900.869,932.191C 900.869,934.952 898.63,937.191 895.869,937.191L 5.86896,937.191C 3.1076,937.191 0.869019,934.952 0.869019,932.191L 0.869019,7.69958C 0.869019,4.93817 3.1076,2.69958 5.86896,2.69958 Z "/>
	<path fill="#000000" fill-opacity="1" stroke-width="0.2" stroke-linecap="round" stroke-linejoin="round" d="M 3.76923,7.7901C 3.69855,18.3951 3.61707,29.0004 3.41718,39.6037C 3.35101,43.1164 3.27863,46.6295 3.13849,50.14C 3.09583,51.2089 3.04938,52.2782 2.97076,53.3452C 2.92938,53.9073 3.27643,54.9395 2.71625,55.017C 2.12891,55.0983 2.47504,53.857 2.42456,53.2682C 2.3952,52.9255 2.36945,52.5825 2.34564,52.2394C 2.31604,51.8126 2.28931,51.3857 2.26428,50.9586C 2.11371,48.389 2.01184,45.8165 1.91461,43.2443C 1.72699,38.2827 1.57635,33.3196 1.43506,28.3565C 1.23895,21.4714 1.06525,14.5856 0.903809,7.69958C 0.968079,5.32092 3.48755,2.72522 5.86896,2.55438L 5.86896,2.55438C 140.473,-0.402527 275.134,-0.0385132 409.771,0.0237427C 571.804,0.0985718 733.836,0.227966 895.869,0.343689L 895.869,0.343689C 897.747,0.439575 899.75,1.17511 901.077,2.50311C 902.403,3.83099 903.133,5.82825 903.227,7.69958L 903.227,7.69958C 902.992,315.863 902.752,624.027 902.51,932.191L 902.51,932.191C 902.35,935.309 898.998,938.664 895.869,938.82L 895.869,938.82C 599.202,938.586 302.536,938.35 5.86896,938.114L 5.86896,938.114C 3.07678,937.971 0.088623,934.974 -0.050354,932.191L -0.050354,932.191C 0.197876,624.027 0.446228,315.863 0.694519,7.69958L 0.694519,7.69958C 0.819336,5.26923 3.43024,2.65338 5.86896,2.53204L 26.7942,2.54877L 5.86896,2.56677L 5.86896,2.56677C 3.44995,2.69098 0.862427,5.28851 0.742554,7.69958L 0.742554,7.69958C 1.00946,315.863 1.27679,624.027 1.54401,932.191L 1.54401,932.191C 1.64874,934.223 3.83026,936.411 5.86896,936.511L 5.86896,936.511C 302.536,936.256 599.202,936 895.869,935.742L 895.869,935.742C 897.541,935.656 899.327,933.858 899.409,932.191L 899.409,932.191C 899.14,624.027 898.908,315.863 898.595,7.69958L 898.595,7.69958C 898.529,6.41809 897.155,5.03497 895.869,4.97247L 895.869,4.97247C 703.771,5.14166 511.673,5.31793 319.575,5.49103C 215.006,5.58527 110.437,6.06952 5.86896,5.63263L 5.86896,5.63263C 4.88617,5.67218 3.83337,6.72131 3.76978,7.69958L 3.76923,7.7901 Z "/>
	<path fill="#FFEADB" fill-opacity="1" stroke-width="5" stroke-linejoin="round" d="M 24.56,23.3937L 874.56,23.3937C 877.321,23.3937 879.56,25.6323 879.56,28.3937L 879.56,932.191C 879.56,934.952 877.321,937.191 874.56,937.191L 24.56,937.191C 21.7986,937.191 19.5601,934.952 19.5601,932.191L 19.5601,28.3937C 19.5601,25.6323 21.7986,23.3937 24.56,23.3937 Z "/>
	<path fill="#000000" fill-opacity="1" stroke-width="0.2" stroke-linecap="round" stroke-linejoin="round" d="M 22.5231,28.3199L 22.5182,28.3937L 22.5182,28.3937C 22.4465,38.5163 22.363,48.6395 22.1602,58.7604C 22.0927,62.132 22.0189,65.5041 21.8758,68.8735C 21.8323,69.8996 21.7849,70.926 21.7047,71.95C 21.6625,72.4899 21.9919,73.4833 21.4449,73.5546C 20.8715,73.6295 21.1989,72.4418 21.1473,71.8761C 21.1174,71.5472 21.0911,71.218 21.0668,70.8886C 21.0366,70.4789 21.0093,70.0692 20.9838,69.6593C 20.8302,67.1929 20.7263,64.7238 20.627,62.2548C 20.4355,57.4925 20.2819,52.7287 20.1376,47.9648C 19.9401,41.4417 19.7643,34.9178 19.602,28.3937C 19.6619,26.0334 22.1614,23.4208 24.56,23.2479L 24.56,23.2479C 154.139,20.3118 283.777,20.6422 413.391,20.702C 567.114,20.7729 720.837,20.8968 874.56,21.0128L 874.56,21.0128C 876.462,21.1097 878.491,21.8575 879.824,23.1923C 881.159,24.5289 881.886,26.5242 881.979,28.3937L 881.979,28.3937C 881.739,329.659 881.488,630.925 881.234,932.191L 881.234,932.191C 881.076,935.296 877.723,938.67 874.56,938.828L 874.56,938.828C 591.227,938.598 307.893,938.366 24.56,938.132L 24.56,938.132C 21.7343,937.988 18.7461,934.965 18.6077,932.191L 18.6077,932.191C 18.8647,630.925 19.1236,329.659 19.3818,28.3937L 19.3818,28.3937C 19.5057,25.9803 22.1016,23.3474 24.56,23.2253L 44.9506,23.2421L 24.56,23.2603L 24.56,23.2603C 22.1218,23.3852 19.55,25.9997 19.4312,28.3937L 19.4312,28.3937C 19.709,329.659 19.9835,630.925 20.2642,932.191L 20.2642,932.191C 20.3677,934.196 22.5172,936.392 24.56,936.493L 24.56,936.493C 307.893,936.241 591.227,935.988 874.56,935.735L 874.56,935.735C 876.236,935.648 877.988,933.837 878.07,932.191L 878.07,932.191C 877.787,630.925 877.515,329.659 877.224,28.3937L 877.224,28.3937C 877.158,27.1424 875.835,25.7559 874.56,25.6939L 874.56,25.6939C 693.124,25.8607 511.688,26.0308 330.251,26.1994C 228.354,26.2941 126.456,26.7809 24.56,26.3417L 24.56,26.3417C 23.6057,26.3791 22.5845,27.3843 22.5231,28.3199 Z "/>
</svg>
