<?xml version="1.0" encoding="utf-8"?>
<!DOCTYPE svg PUBLIC "-//W3C//DTD SVG 1.1//EN" "http://www.w3.org/Graphics/SVG/1.1/DTD/svg11.dtd">
<svg xmlns="http://www.w3.org/2000/svg" xmlns:xlink="http://www.w3.org/1999/xlink" version="1.1" baseProfile="full" width="902.563" height="20.6888" viewBox="0 0 902.56 20.69" preserveAspectRatio="none">
    <g>
        <linearGradient id="SVGID_Fill1_" gradientUnits="objectBoundingBox" x1="-0.00206767" y1="0.499803" x2="1.0027" y2="0.499803">
            <stop offset="0" stop-color="#FF7D22" stop-opacity="1" />
            <stop offset="0.818965" stop-color="#FFB581" stop-opacity="1" />
            <stop offset="1" stop-color="#FFFFFF" stop-opacity="1" />
        </linearGradient>
        <path fill="url(#SVGID_Fill1_)" fill-rule="evenodd" stroke-width="5" stroke-linejoin="round" d="M 5.29907,-71.4876L 895.299,-71.4876C 898.06,-71.4876 900.299,-69.249 900.299,-66.4876L 900.299,858.004C 900.299,860.765 898.06,863.004 895.299,863.004L 5.29907,863.004C 2.53772,863.004 0.299133,860.765 0.299133,858.004L 0.299133,-66.4876C 0.299133,-69.249 2.53772,-71.4876 5.29907,-71.4876 Z " />
        <defs>
            <path id="SVG_CLIPPER1_" d="M 5.29907,-71.4876L 895.299,-71.4876C 898.06,-71.4876 900.299,-69.249 900.299,-66.4876L 900.299,858.004C 900.299,860.765 898.06,863.004 895.299,863.004L 5.29907,863.004C 2.53772,863.004 0.299133,860.765 0.299133,858.004L 0.299133,-66.4876C 0.299133,-69.249 2.53772,-71.4876 5.29907,-71.4876 Z " />
        </defs>
        <clipPath id="SVG_CLIPPER2_">
            <use xlink:href="#SVG_CLIPPER1_" overflow="visible" />
        </clipPath>
        <g clip-path="url(#SVG_CLIPPER2_)">
            <path fill="#FFEADB" fill-opacity="1" stroke-width="5" stroke-linejoin="round" d="M 23.9902,-50.7941L 873.99,-50.7941C 876.751,-50.7941 878.99,-48.5555 878.99,-45.7941L 878.99,858.004C 878.99,860.765 876.751,863.004 873.99,863.004L 23.9902,863.004C 21.2288,863.004 18.9902,860.765 18.9902,858.004L 18.9902,-45.7941C 18.9902,-48.5555 21.2288,-50.7941 23.9902,-50.7941 Z " />
            <path fill="#000000" fill-opacity="1" stroke-width="0.2" stroke-linecap="round" stroke-linejoin="round" d="M 21.9533,-45.868L 21.9484,-45.7941L 21.9484,-45.7941C 21.8767,-35.6715 21.7932,-25.5484 21.5905,-15.4276C 21.5228,-12.0558 21.449,-8.68372 21.306,-5.31439C 21.2625,-4.28827 21.2151,-3.2619 21.1349,-2.23792C 21.0927,-1.69788 21.4221,-0.704468 20.8751,-0.633179C 20.3016,-0.558289 20.629,-1.74603 20.5775,-2.31171C 20.5476,-2.64069 20.5213,-2.96985 20.497,-3.29926C 20.4668,-3.70886 20.4395,-4.11871 20.4139,-4.52863C 20.2604,-6.99493 20.1564,-9.46405 20.0571,-11.9332C 19.8657,-16.6954 19.712,-21.4592 19.5679,-26.2231C 19.3704,-32.7462 19.1946,-39.2701 19.0322,-45.7941C 19.0921,-48.1544 21.5916,-50.7672 23.9902,-50.9401L 23.9902,-50.9401C 153.569,-53.8761 283.208,-53.5456 412.821,-53.4858C 566.544,-53.415 720.267,-53.2911 873.99,-53.1751L 873.99,-53.1751C 875.891,-53.0782 877.92,-52.3303 879.254,-50.9955C 880.589,-49.6591 881.316,-47.6637 881.409,-45.7941L 881.409,-45.7941C 881.169,255.472 880.918,556.738 880.664,858.004L 880.664,858.004C 880.506,861.109 877.153,864.483 873.99,864.641L 873.99,864.641C 590.657,864.411 307.323,864.178 23.9902,863.945L 23.9902,863.945C 21.1644,863.8 18.1763,860.778 18.0379,858.004L 18.0379,858.004C 18.2949,556.738 18.5538,255.472 18.812,-45.7941L 18.812,-45.7941C 18.9359,-48.2076 21.5319,-50.8405 23.9902,-50.9625L 44.3808,-50.9457L 23.9902,-50.9276L 23.9902,-50.9276C 21.552,-50.8026 18.9802,-48.1881 18.8615,-45.7941L 18.8615,-45.7941C 19.1392,255.472 19.4138,556.738 19.6945,858.004L 19.6945,858.004C 19.7979,860.009 21.9474,862.204 23.9902,862.305L 23.9902,862.305C 307.323,862.053 590.657,861.801 873.99,861.548L 873.99,861.548C 875.666,861.461 877.418,859.649 877.5,858.004L 877.5,858.004C 877.217,556.738 876.945,255.472 876.654,-45.7941L 876.654,-45.7941C 876.588,-47.0455 875.265,-48.432 873.99,-48.494L 873.99,-48.494C 689.822,-48.3248 505.654,-48.1516 321.486,-47.9808C 222.321,-47.889 123.155,-47.4188 23.9902,-47.8461L 23.9902,-47.8461C 23.0359,-47.8088 22.0148,-46.8036 21.9533,-45.868 Z " />
        </g>
        <path fill="none" fill-rule="evenodd" stroke-width="5" stroke-linejoin="round" stroke="#000000" stroke-opacity="0.701961" d="M 5.29907,-71.4876L 895.299,-71.4876C 898.06,-71.4876 900.299,-69.249 900.299,-66.4876L 900.299,858.004C 900.299,860.765 898.06,863.004 895.299,863.004L 5.29907,863.004C 2.53772,863.004 0.299133,860.765 0.299133,858.004L 0.299133,-66.4876C 0.299133,-69.249 2.53772,-71.4876 5.29907,-71.4876 Z " />
    </g>
</svg>
