<?xml version="1.0" encoding="utf-8"?>
<!DOCTYPE svg PUBLIC "-//W3C//DTD SVG 1.1//EN" "http://www.w3.org/Graphics/SVG/1.1/DTD/svg11.dtd">
<svg xmlns="http://www.w3.org/2000/svg" xmlns:xlink="http://www.w3.org/1999/xlink" version="1.1" baseProfile="full" width="379" height="5.9165" viewBox="0 0 379.00 5.92" preserveAspectRatio="none">
    <linearGradient id="SVGID_Fill1_" gradientUnits="objectBoundingBox" x1="-0.00262891" y1="0.498955" x2="1.00628" y2="0.498955">
        <stop offset="0" stop-color="#FF7D22" stop-opacity="1" />
        <stop offset="0.818965" stop-color="#FFB581" stop-opacity="1" />
        <stop offset="1" stop-color="#FFFFFF" stop-opacity="1" />
    </linearGradient>
    <path fill="url(#SVGID_Fill1_)" stroke-width="5" stroke-linejoin="round" d="M 6.27095,-23.973L 371.271,-23.973C 374.032,-23.973 376.271,-21.7344 376.271,-18.973L 376.271,527.027C 376.271,529.788 374.032,532.027 371.271,532.027L 6.27095,532.027C 3.50954,532.027 1.27095,529.788 1.27095,527.027L 1.27095,-18.973C 1.27095,-21.7344 3.50954,-23.973 6.27095,-23.973 Z " />
    <path fill="#000000" fill-opacity="1" stroke-width="0.2" stroke-linecap="round" stroke-linejoin="round" d="M 4.75188,-20.4346C 4.38127,-20.0521 4.15314,-19.5035 4.10654,-18.973L 4.10654,-18.973C 4.02808,-14.1852 3.94615,-9.39618 3.72604,-4.61285C 3.69856,-4.01556 3.66861,-3.41821 3.63353,-2.82129C 3.60417,-2.32202 3.57199,-1.82281 3.53276,-1.32422C 3.50198,-0.933167 3.46808,-0.542297 3.42352,-0.152649C 3.39233,0.120117 3.35864,0.393127 3.30559,0.662537C 3.27686,0.808411 3.25536,0.96283 3.17876,1.09033L 3.0428,1.09991C 1.71825,-0.924988 2.3878,-3.69843 2.22057,-6.1123C 1.9238,-10.3958 1.70557,-14.6846 1.49165,-18.973C 1.48827,-21.3135 3.9407,-23.8984 6.27095,-24.1168L 6.27095,-24.1168C 65.5125,-26.7277 124.851,-26.7046 184.15,-26.6692C 246.517,-26.6319 308.884,-26.5369 371.271,-26.4502L 371.271,-26.4502C 373.175,-26.3521 375.207,-25.6059 376.554,-24.2562C 377.9,-22.9075 378.643,-20.8762 378.737,-18.973L 378.737,-18.973C 378.484,163.027 378.195,345.027 377.912,527.027L 377.912,527.027C 377.751,530.151 374.395,533.502 371.271,533.656L 371.271,533.656C 249.604,533.467 127.938,533.275 6.27095,533.083L 6.27095,533.083C 3.42267,532.936 0.367126,529.875 0.226929,527.027L 0.226929,527.027C 0.513916,345.027 0.802429,163.027 1.09094,-18.973L 1.09094,-18.973C 1.2177,-21.4086 3.83495,-24.0208 6.27095,-24.1406L 16.848,-24.1238L 6.27095,-24.1058L 6.27095,-24.1058C 3.85777,-23.9797 1.26942,-21.3865 1.15154,-18.973L 1.15154,-18.973C 1.46144,163.027 1.7713,345.027 2.08185,527.027L 2.08185,527.027C 2.18526,528.996 4.30165,531.107 6.27095,531.203L 6.27095,531.203C 127.938,530.995 249.604,530.787 371.271,530.578L 371.271,530.578C 372.94,530.49 374.729,528.696 374.809,527.027L 374.809,527.027C 374.497,345.027 374.184,163.027 373.863,-18.973L 373.863,-18.973C 373.797,-20.1898 372.488,-21.4933 371.271,-21.5508L 371.271,-21.5508C 294.352,-21.4151 217.433,-21.2739 140.515,-21.1384C 95.7667,-21.0596 51.0173,-20.674 6.27095,-21.04L 6.27095,-21.04C 5.73839,-21.0244 5.1844,-20.8108 4.75188,-20.4346 Z " />
</svg>
