<?xml version="1.0" encoding="utf-8"?>
<!DOCTYPE svg PUBLIC "-//W3C//DTD SVG 1.1//EN" "http://www.w3.org/Graphics/SVG/1.1/DTD/svg11.dtd">
<svg xmlns="http://www.w3.org/2000/svg" xmlns:xlink="http://www.w3.org/1999/xlink" version="1.1" baseProfile="full" width="379" height="27.0001" viewBox="0 0 379.00 27.00" preserveAspectRatio="none">
    <linearGradient id="SVGID_Fill1_" gradientUnits="objectBoundingBox" x1="-0.00262891" y1="0.498955" x2="1.00628" y2="0.498955">
        <stop offset="0" stop-color="#FF7D22" stop-opacity="1" />
        <stop offset="0.818965" stop-color="#FFB581" stop-opacity="1" />
        <stop offset="1" stop-color="#FFFFFF" stop-opacity="1" />
    </linearGradient>
    <path fill="url(#SVGID_Fill1_)" stroke-width="5" stroke-linejoin="round" d="M 6.27094,3.02724L 371.271,3.02724C 374.032,3.02724 376.271,5.26582 376.271,8.02724L 376.271,554.027C 376.271,556.789 374.032,559.027 371.271,559.027L 6.27094,559.027C 3.50952,559.027 1.27094,556.789 1.27094,554.027L 1.27094,8.02724C 1.27094,5.26582 3.50952,3.02724 6.27094,3.02724 Z " />
    <path fill="#000000" fill-opacity="1" stroke-width="0.2" stroke-linecap="round" stroke-linejoin="round" d="M 4.75186,6.56563C 4.38126,6.94814 4.15312,7.49672 4.10652,8.02724L 4.10652,8.02724C 4.02806,12.815 3.94614,17.604 3.72603,22.3873C 3.69855,22.9846 3.66859,23.582 3.63351,24.1789C 3.60416,24.6782 3.57198,25.1774 3.53275,25.676C 3.50197,26.067 3.46806,26.4579 3.42351,26.8475C 3.39232,27.1203 3.35863,27.3933 3.30557,27.6627C 3.27684,27.8086 3.25534,27.963 3.17874,28.0905L 3.04279,28.1001C 1.71823,26.0752 2.38779,23.3018 2.22055,20.8879C 1.92378,16.6044 1.70555,12.3156 1.49164,8.02724C 1.48825,5.68672 3.94069,3.10182 6.27094,2.88344L 6.27094,2.88344C 65.5125,0.272476 124.851,0.295609 184.15,0.331009C 246.517,0.368301 308.883,0.463333 371.271,0.550003L 371.271,0.550003C 373.175,0.648148 375.207,1.3943 376.554,2.74403C 377.9,4.09267 378.643,6.12404 378.737,8.02724L 378.737,8.02724C 378.484,190.027 378.195,372.027 377.912,554.027L 377.912,554.027C 377.751,557.151 374.395,560.502 371.271,560.656L 371.271,560.656C 249.604,560.467 127.938,560.275 6.27094,560.083L 6.27094,560.083C 3.42265,559.936 0.367111,556.876 0.226913,554.027L 0.226913,554.027C 0.513901,372.027 0.802414,190.027 1.09093,8.02724L 1.09093,8.02724C 1.21768,5.59157 3.83493,2.97939 6.27094,2.85963L 16.8479,2.87642L 6.27094,2.89442L 6.27094,2.89442C 3.85776,3.02052 1.26941,5.61366 1.15152,8.02724L 1.15152,8.02724C 1.46143,190.027 1.77129,372.027 2.08183,554.027L 2.08183,554.027C 2.18524,555.996 4.30164,558.107 6.27094,558.203L 6.27094,558.203C 127.938,557.995 249.604,557.787 371.271,557.579L 371.271,557.579C 372.94,557.49 374.729,555.696 374.809,554.027L 374.809,554.027C 374.497,372.027 374.184,190.027 373.863,8.02724L 373.863,8.02724C 373.797,6.81044 372.488,5.50685 371.271,5.44936L 371.271,5.44936C 294.352,5.5851 217.433,5.72627 140.515,5.86177C 95.7667,5.94063 51.0173,6.32619 6.27094,5.96016L 6.27094,5.96016C 5.73837,5.97585 5.18439,6.18941 4.75186,6.56563 Z " />
</svg>
