<?xml version="1.0" encoding="utf-8"?>
<!DOCTYPE svg PUBLIC "-//W3C//DTD SVG 1.1//EN" "http://www.w3.org/Graphics/SVG/1.1/DTD/svg11.dtd">
<svg xmlns="http://www.w3.org/2000/svg" xmlns:xlink="http://www.w3.org/1999/xlink" version="1.1" baseProfile="full" width="899.058" height="145.993" viewBox="0 0 899.06 145.99" enable-background="new 0 0 899.06 145.99" xml:space="preserve">
	<linearGradient id="SVGID_Fill1_" gradientUnits="objectBoundingBox" x1="-0.00274617" y1="0.500004" x2="1.00274" y2="0.500004">
		<stop offset="0" stop-color="#FF7D22" stop-opacity="1"/>
		<stop offset="0.818965" stop-color="#FFB581" stop-opacity="1"/>
		<stop offset="1" stop-color="#FFFFFF" stop-opacity="1"/>
	</linearGradient>
	<path fill="url(#SVGID_Fill1_)" stroke-width="5" stroke-linejoin="round" d="M 5.37585,2.23022L 892.331,2.23022C 895.093,2.23022 897.332,4.46887 897.332,7.23022L 897.332,139.723C 897.332,142.485 895.093,144.723 892.331,144.723L 5.37585,144.723C 2.61444,144.723 0.375854,142.485 0.375854,139.723L 0.375854,7.23022C 0.375854,4.46887 2.61444,2.23022 5.37585,2.23022 Z "/>
	<path fill="#000000" fill-opacity="1" stroke-width="0.2" stroke-linecap="round" stroke-linejoin="round" d="M 3.85791,5.41016C 3.44092,5.94153 3.22418,6.59558 3.17468,7.23022L 3.17468,7.23022C 3.10669,11.2778 3.03174,15.3258 2.87781,19.3718C 2.81262,21.0847 2.742,22.7981 2.60413,24.5079C 2.54138,25.2859 2.68201,26.1359 2.25537,26.8286C 2.00977,27.2274 1.88782,25.9771 1.82568,25.5314C 1.76196,25.0739 1.71045,24.6151 1.66345,24.1563C 1.59912,23.5286 1.5437,22.9001 1.49158,22.2717C 1.42627,21.4834 1.36743,20.6947 1.3114,19.9059C 1.245,18.9703 1.18335,18.0344 1.12427,17.0985C 1.05676,16.0288 0.993042,14.9591 0.931641,13.8892C 0.863281,12.6987 0.798401,11.5081 0.735046,10.3174C 0.680298,9.28833 0.629822,8.25928 0.577148,7.23022C 0.573181,5.05981 2.79974,2.32153 5.37585,2.11145L 5.37585,2.11145C 122.297,-1.60229 239.377,0.00708008 356.381,0.11792C 535.031,0.287231 713.681,0.489258 892.331,0.688599L 892.331,0.688599C 893.945,0.771484 895.646,1.32434 896.798,2.27588C 898.309,3.52393 899.071,5.45337 899.159,7.23022L 899.159,7.23022C 899.089,51.3945 899.018,95.559 898.948,139.723L 898.948,139.723C 898.803,142.53 895.676,145.903 892.331,146.069L 892.331,146.069C 596.68,145.738 301.028,145.4 5.37585,145.062L 5.37585,145.062C 2.60004,144.919 0.0980835,142.053 -0.0162354,139.723L -0.0162354,139.723C 0.0728149,95.559 0.127319,51.3945 0.199036,7.23022L 0.199036,7.23022C 0.315796,4.99023 2.70654,2.22388 5.37585,2.0918L 17.4995,2.10571L 5.37585,2.12048L 5.37585,2.12048C 2.72827,2.25769 0.366333,5.00781 0.257629,7.23022L 0.257629,7.23022C 0.334778,51.3945 0.411804,95.559 0.488892,139.723L 0.488892,139.723C 0.60022,141.849 2.84265,144.493 5.37585,144.618L 5.37585,144.618C 301.028,144.255 596.68,143.892 892.331,143.527L 892.331,143.527C 894.25,143.426 895.814,141.334 895.892,139.723L 895.892,139.723C 895.797,95.559 895.736,51.3945 895.659,7.23022L 895.659,7.23022C 895.579,5.71716 894.135,3.73145 892.331,3.64392L 892.331,3.64392C 701.376,3.88098 510.42,4.11804 319.465,4.36487C 214.769,4.50024 110.07,5.27026 5.37585,4.65308L 5.37585,4.65308C 4.78839,4.67114 4.22534,5.02234 3.85791,5.41016 Z "/>
</svg>
