<?xml version="1.0" encoding="utf-8"?>
<!DOCTYPE svg PUBLIC "-//W3C//DTD SVG 1.1//EN" "http://www.w3.org/Graphics/SVG/1.1/DTD/svg11.dtd">
<svg xmlns="http://www.w3.org/2000/svg" xmlns:xlink="http://www.w3.org/1999/xlink" version="1.1" baseProfile="full" width="379" height="562.875" viewBox="0 0 379.00 562.87" preserveAspectRatio="none">
    <linearGradient id="SVGID_Fill1_" gradientUnits="objectBoundingBox" x1="-0.00262891" y1="0.498955" x2="1.00628" y2="0.498955">
        <stop offset="0" stop-color="#FF7D22" stop-opacity="1" />
        <stop offset="0.818965" stop-color="#FFB581" stop-opacity="1" />
        <stop offset="1" stop-color="#FFFFFF" stop-opacity="1" />
    </linearGradient>
    <path fill="url(#SVGID_Fill1_)" stroke-width="5" stroke-linejoin="round" d="M 6.27097,3.02733L 371.271,3.02733C 374.032,3.02733 376.271,5.26591 376.271,8.02733L 376.271,554.027C 376.271,556.789 374.032,559.027 371.271,559.027L 6.27097,559.027C 3.50955,559.027 1.27097,556.789 1.27097,554.027L 1.27097,8.02733C 1.27097,5.26591 3.50955,3.02733 6.27097,3.02733 Z " />
    <path fill="#000000" fill-opacity="1" stroke-width="0.2" stroke-linecap="round" stroke-linejoin="round" d="M 4.75189,6.56572C 4.38129,6.94823 4.15315,7.49681 4.10655,8.02733L 4.10655,8.02733C 4.02809,12.815 3.94617,17.6041 3.72606,22.3874C 3.69858,22.9847 3.66862,23.5821 3.63354,24.179C 3.60419,24.6783 3.57201,25.1775 3.53278,25.6761C 3.502,26.0671 3.46809,26.458 3.42354,26.8476C 3.39235,27.1204 3.35866,27.3934 3.3056,27.6628C 3.27687,27.8087 3.25537,27.9631 3.17877,28.0906L 3.04282,28.1002C 1.71826,26.0753 2.38782,23.3019 2.22058,20.888C 1.92381,16.6045 1.70558,12.3157 1.49167,8.02733C 1.48828,5.68681 3.94072,3.10191 6.27097,2.88353L 6.27097,2.88353C 65.5125,0.272568 124.851,0.2957 184.15,0.3311C 246.517,0.368393 308.884,0.463425 371.271,0.550095L 371.271,0.550095C 373.175,0.648239 375.207,1.39439 376.554,2.74413C 377.9,4.09276 378.643,6.12413 378.737,8.02733L 378.737,8.02733C 378.484,190.027 378.195,372.027 377.912,554.027L 377.912,554.027C 377.751,557.151 374.395,560.502 371.271,560.656L 371.271,560.656C 249.604,560.467 127.938,560.276 6.27097,560.084L 6.27097,560.084C 3.42268,559.936 0.367142,556.876 0.226944,554.027L 0.226944,554.027C 0.513931,372.027 0.802444,190.027 1.09096,8.02733L 1.09096,8.02733C 1.21771,5.59166 3.83496,2.97948 6.27097,2.85973L 16.848,2.87651L 6.27097,2.89452L 6.27097,2.89452C 3.85779,3.02061 1.26944,5.61375 1.15155,8.02733L 1.15155,8.02733C 1.46146,190.027 1.77132,372.027 2.08186,554.027L 2.08186,554.027C 2.18527,555.996 4.30167,558.108 6.27097,558.203L 6.27097,558.203C 127.938,557.995 249.604,557.787 371.271,557.579L 371.271,557.579C 372.94,557.491 374.729,555.696 374.809,554.027L 374.809,554.027C 374.497,372.027 374.184,190.027 373.863,8.02733L 373.863,8.02733C 373.797,6.81053 372.488,5.50694 371.271,5.44945L 371.271,5.44945C 294.352,5.58519 217.433,5.72636 140.515,5.86186C 95.7667,5.94072 51.0173,6.32628 6.27097,5.96025L 6.27097,5.96025C 5.7384,5.97594 5.18442,6.1895 4.75189,6.56572 Z " />
</svg>
