<?xml version="1.0" encoding="utf-8"?>
<!DOCTYPE svg PUBLIC "-//W3C//DTD SVG 1.1//EN" "http://www.w3.org/Graphics/SVG/1.1/DTD/svg11.dtd">
<svg xmlns="http://www.w3.org/2000/svg" xmlns:xlink="http://www.w3.org/1999/xlink" version="1.1" baseProfile="full" width="398.058" height="23.4773" viewBox="0 0 398.06 23.48" enable-background="new 0 0 398.06 23.48" xml:space="preserve">
	<g>
		<path fill="#000000" fill-opacity="1" stroke-width="3" stroke-linejoin="round" d="M 0.775696,21.5751L 8.77325,1.4151L 11.862,1.4151L 19.8596,21.5751L 16.8976,21.5751L 14.6401,15.4151L 5.99512,15.4151L 3.73761,21.5751L 0.775696,21.5751 Z M 6.82202,13.1751L 13.8088,13.1751L 11.8183,7.737C 11.1941,6.04535 10.6938,4.68475 10.3176,3.65509C 9.86847,4.8772 9.41205,6.12115 8.94824,7.38696L 6.82202,13.1751 Z "/>
		<g>
			<path fill="#000000" fill-opacity="1" stroke-width="0.2" stroke-linecap="round" stroke-linejoin="round" d="M 2.78461,20.2109C 2.26984,20.9832 0.748718,22.0706 0.224182,21.3049C -0.857727,19.7252 0.655457,17.4517 1.37384,15.6769C 2.74512,12.289 4.16449,8.92072 5.57611,5.54938C 6.32025,3.77216 6.47491,1.45776 8.02515,0.313538C 9.34222,-0.435974 11.291,-0.440125 12.5708,0.371338C 13.7634,1.38849 13.8677,3.22821 14.4156,4.69678C 14.8235,5.79022 15.2313,6.88361 15.6387,7.97723C 16.0626,9.11456 16.4861,10.252 16.9095,11.3894C 17.3463,12.5629 17.7828,13.7365 18.2191,14.9102C 18.666,16.1124 19.1123,17.3147 19.5589,18.5169C 19.9773,19.6433 21.1355,20.9897 20.4858,22.0004C 20.1235,22.4531 19.352,22.3079 18.7723,22.2989C 18.0145,22.2872 17.1506,22.534 16.5042,22.1384C 15.0112,20.5305 14.9753,18.0242 14.2686,15.947C 11.5869,15.8763 8.90521,15.808 6.22339,15.7419C 5.43719,17.7369 4.84637,19.8242 3.83551,21.7153C 3.28436,21.8962 2.67523,21.721 2.09528,21.7085C 1.89325,21.7041 1.69122,21.6996 1.48926,21.6951C 0.276184,21.668 0.739197,21.4123 0.799988,21.2687C 0.460754,22.1939 2.75513,21.6119 3.73993,21.5784C 4.45612,19.4778 4.98102,17.3005 5.90155,15.2811C 7.10107,15.0513 8.34259,15.1896 9.56354,15.1597C 11.3287,15.1165 13.1965,14.5089 14.8603,15.0999C 16.166,16.7868 16.4975,19.0398 17.2834,21.0228C 17.8339,20.9998 18.3843,20.9749 18.9345,20.947C 16.3188,14.8275 13.6948,8.71149 11.056,2.60199C 10.5818,2.62689 10.1077,2.65326 9.63379,2.68231C 8.28314,6.40155 6.93805,10.1228 5.60059,13.8469C 4.81647,16.03 4.70367,18.9077 2.78461,20.2109 Z "/>
			<path fill="#000000" fill-opacity="1" stroke-width="0.2" stroke-linecap="round" stroke-linejoin="round" d="M 5.37628,14.1331C 5.68048,13.4147 6.65948,13.2363 7.35614,12.8851C 8.71802,12.1985 10.282,11.6011 11.8179,11.7838C 11.5093,10.5494 11.1797,9.32031 10.8494,8.09161L 10.8503,8.09406C 10.4348,6.70135 10.0213,5.30786 9.60913,3.914L 11.0256,3.91534C 10.4892,5.1297 9.9527,6.34406 9.41644,7.55902C 9.38477,7.62891 9.35297,7.69879 9.32159,7.76886C 8.93652,8.6286 8.55157,9.48834 8.16705,10.3483C 7.99658,10.7298 7.82855,11.1125 7.65991,11.4948C 7.56171,11.7175 7.46368,11.9402 7.36578,12.1629C 7.341,12.2193 7.31616,12.2757 7.29144,12.3322C 7.26654,12.3889 7.24164,12.4456 7.2168,12.5023C 6.85156,13.3347 6.81757,13.0635 7.1015,13.0847C 6.45117,13.1271 7.30365,11.7936 7.48322,11.1672C 7.85663,9.8653 8.24042,8.56647 8.62091,7.26678L 8.62085,7.26703C 8.99066,5.99115 9.3606,4.71527 9.73065,3.43939C 9.82123,3.19312 10.0558,3.02954 10.3182,3.02979C 10.5806,3.03003 10.8149,3.19403 10.905,3.44043C 11.4988,4.76593 12.0939,6.09088 12.6899,7.41534L 12.6907,7.41754C 12.8548,7.79816 13.0195,8.17853 13.1829,8.55939C 13.5623,9.44287 13.9404,10.3267 14.3191,11.2104C 14.6856,12.0662 15.3215,13.1086 14.9052,13.9412C 14.0701,15.2461 11.8787,14.6953 10.3311,14.7642C 9.25616,14.8121 8.18115,14.8577 7.10602,14.9011C 6.47589,14.9266 5.46558,14.7585 5.37628,14.1331 Z "/>
		</g>
		<path fill="#000000" fill-opacity="1" stroke-width="3" stroke-linejoin="round" d="M 28.3776,21.5751L 28.3776,7.01514L 30.8975,7.01514L 30.8975,9.08008C 31.9272,7.51678 33.4117,6.73511 35.3513,6.73511C 36.1972,6.73511 36.9737,6.89258 37.681,7.20758C 38.3882,7.52264 38.9177,7.93457 39.2691,8.44354C 39.6206,8.95245 39.8663,9.55841 40.0063,10.2614C 40.0938,10.7164 40.1375,11.5126 40.1375,12.6501L 40.1375,21.5751L 37.6176,21.5751L 37.6176,12.8207C 37.6176,11.8291 37.5242,11.0867 37.3376,10.5938C 37.1509,10.1009 36.8191,9.70795 36.3423,9.41479C 35.8654,9.12164 35.3061,8.9751 34.6645,8.9751C 33.6407,8.9751 32.7569,9.30469 32.0132,9.96387C 31.2695,10.623 30.8975,11.8743 30.8975,13.7176L 30.8975,21.5751L 28.3776,21.5751 Z "/>
		<path fill="#000000" fill-opacity="1" stroke-width="0.2" stroke-linecap="round" stroke-linejoin="round" d="M 29.6375,20.3151C 29.5816,20.9503 28.8307,21.8554 28.2383,21.6194C 27.3362,21.2601 27.0834,19.9742 26.9337,19.0147C 26.5493,16.5517 26.7561,14.0301 26.7889,11.5374C 26.8135,9.66919 26.0447,7.32294 27.3201,5.95758C 28.4617,4.93475 30.808,4.9375 31.9185,5.9942C 32.6017,6.77344 32.311,8.04376 32.2977,9.08008L 29.7283,8.31006C 31.0103,6.64313 33.2496,5.52008 35.3513,5.44952L 35.3513,5.44952C 36.3162,5.51337 37.285,5.72168 38.1826,6.08154L 38.1826,6.08154C 38.966,6.50067 39.7233,7.05048 40.246,7.76898L 40.246,7.76898C 40.6564,8.46899 40.9487,9.24658 41.1287,10.0455C 41.2361,10.9077 41.2258,11.7813 41.2267,12.6501L 41.2267,12.6501C 41.2017,13.8865 41.1768,15.1229 41.1514,16.3592C 41.1263,17.5834 41.1008,18.8076 41.0754,20.0317C 41.0602,20.7624 41.2453,21.6516 40.7645,22.202C 39.8205,23.0129 37.9424,23.009 37.0313,22.1614C 36.4073,21.3433 36.8355,20.1082 36.8571,19.0794C 36.8872,17.6432 36.9173,16.207 36.9476,14.7709C 36.9614,14.1208 36.9753,13.4708 36.9893,12.8207L 36.9893,12.8207C 36.9887,12.1499 36.9736,11.4658 36.7984,10.798L 36.7984,10.798C 36.655,10.4309 36.381,10.1028 36.0593,9.87506L 36.0593,9.87506C 35.6358,9.64136 35.1464,9.51605 34.6645,9.47491L 34.6645,9.47491C 33.8312,9.48749 32.9607,9.77954 32.3005,10.288C 31.4163,11.0947 31.2976,12.5223 31.2378,13.7176L 31.2378,13.7176C 31.1786,16.3746 31.7801,19.1438 31.0098,21.6873C 30.2141,22.1492 28.2663,22.1555 28.2871,21.2249C 28.3093,22.107 30.0305,21.6638 30.9097,21.5872C 30.9052,18.9633 30.7859,16.3408 30.7197,13.7176L 30.7197,13.7176C 30.7222,12.3463 30.8638,10.7303 31.8289,9.75586L 31.8289,9.75586C 32.6038,9.09644 33.649,8.69043 34.6645,8.62531L 34.6645,8.62531C 35.31,8.64874 35.9678,8.79614 36.5483,9.07959L 36.5483,9.07959C 37.0577,9.40326 37.4938,9.89063 37.7421,10.4407L 37.7421,10.4407C 37.9858,11.2053 38.0667,12.0191 38.1062,12.8207L 38.1062,12.8207C 38.1777,15.5034 38.2495,18.186 38.3242,20.8685C 38.6614,20.8503 38.9986,20.8305 39.3681,20.8056C 39.2957,18.0871 39.2206,15.3686 39.1448,12.6501L 39.1448,12.6501C 39.1094,11.9187 39.0971,11.1817 38.9724,10.4602L 38.9738,10.467C 38.8377,9.97723 38.6411,9.49487 38.362,9.07001L 38.362,9.07001C 38.0652,8.70728 37.6357,8.46112 37.2116,8.26154L 37.2116,8.26154C 36.617,8.05713 35.98,7.95947 35.3513,7.94928L 35.3513,7.94928C 34.0828,8.05414 32.7466,8.77417 32.0231,9.82135C 31.6957,10.3185 31.0809,10.542 30.5107,10.3711C 29.9404,10.2002 29.5499,9.67535 29.5499,9.08008C 29.5295,8.81097 29.472,8.48828 29.6375,8.27515L 29.8428,8.48041C 29.9199,10.945 30.0035,13.4094 30.0862,15.8738C 30.1362,17.3609 30.6897,19.2629 29.6375,20.3151 Z "/>
		<path fill="#000000" fill-opacity="1" stroke-width="3" stroke-linejoin="round" d="M 43.2176,14.2951C 43.2176,11.6176 43.9555,9.63281 45.4313,8.34076C 46.6651,7.27032 48.1701,6.73511 49.9464,6.73511C 51.918,6.73511 53.5295,7.38696 54.7807,8.69073C 56.032,9.99445 56.6575,11.7941 56.6575,14.0895C 56.6575,15.9532 56.3806,17.4182 55.8264,18.4842C 55.2722,19.5502 54.4665,20.3786 53.4092,20.9692C 52.3519,21.5598 51.1976,21.8552 49.9464,21.8552C 47.9368,21.8552 46.3129,21.2061 45.0748,19.9082C 43.8367,18.6104 43.2176,16.7393 43.2176,14.2951 Z M 45.7375,14.2908C 45.7375,16.0699 46.1365,17.4021 46.9341,18.2873C 47.7319,19.1725 48.7359,19.6152 49.9464,19.6152C 51.1451,19.6152 52.1433,19.1703 52.941,18.2808C 53.7387,17.3912 54.1376,16.0349 54.1376,14.212C 54.1376,12.4911 53.7366,11.1882 52.9345,10.3029C 52.1324,9.41772 51.1363,8.9751 49.9464,8.9751C 48.7359,8.9751 47.7319,9.41553 46.9341,10.2964C 46.1365,11.1772 45.7375,12.5086 45.7375,14.2908 Z "/>
		<g>
			<path fill="#000000" fill-opacity="1" stroke-width="0.2" stroke-linecap="round" stroke-linejoin="round" d="M 44.9546,14.3814C 44.6989,14.9314 43.6089,14.6763 43.137,14.2951L 43.137,14.2951C 41.332,12.692 42.6523,8.82831 44.406,7.15894C 45.95,5.99493 47.9788,5.35083 49.9464,5.33374L 49.9464,5.33374C 52.0197,5.48615 54.1828,6.38361 55.6502,7.85626L 55.6502,7.85626C 57.0196,9.5542 57.6425,11.9081 57.6429,14.0895L 57.6429,14.0895C 57.5205,15.7162 57.2858,17.4044 56.5485,18.8596C 55.8714,19.9683 54.8748,20.929 53.7405,21.5625C 52.5535,22.0799 51.2409,22.3645 49.9464,22.3962L 49.9464,22.3962C 48.0888,22.252 46.1393,21.4673 44.8333,20.1386C 43.5778,18.5432 43.1059,16.3252 43.117,14.2951L 43.1365,14.0322L 43.1379,14.2951L 43.1379,14.2951C 43.282,16.246 43.8715,18.3528 45.1985,19.7902L 45.1985,19.7902C 46.4651,20.8903 48.2686,21.4639 49.9464,21.4606L 49.9464,21.4606C 51.0538,21.3453 52.1616,21.0186 53.1437,20.4941L 53.1437,20.4941C 54.0071,19.9171 54.7456,19.0928 55.2139,18.1658L 55.2139,18.1658C 55.7331,16.8961 55.7862,15.4612 55.7796,14.0895L 55.7796,14.0895C 55.6475,12.4405 55.1111,10.6663 53.9705,9.46826L 53.9705,9.46826C 52.8907,8.5484 51.3648,8.07208 49.9464,8.08441L 49.9464,8.08441C 48.6927,8.19629 47.3945,8.68304 46.4536,9.51898L 46.4588,9.51434C 45.3498,10.7608 45.384,12.6772 44.9766,14.2951L 44.9546,14.3814 Z "/>
			<path fill="#000000" fill-opacity="1" stroke-width="0.2" stroke-linecap="round" stroke-linejoin="round" d="M 44.0056,14.2138C 44.3177,13.6959 45.2988,13.9808 45.8181,14.2908L 45.8181,14.2908C 46.9053,14.8914 47.4036,16.2082 48.1002,17.2366L 48.1002,17.2366C 48.5523,17.7581 49.2416,18.1286 49.9464,18.2142L 49.9464,18.2142C 50.6855,18.2368 51.4782,17.9547 52.0357,17.469L 52.0357,17.469C 52.819,16.6282 53.0615,15.3564 53.165,14.212L 53.165,14.212C 53.2031,13.045 53.0543,11.7564 52.3902,10.7961C 51.787,10.102 50.8601,9.61945 49.9464,9.5163L 49.9464,9.5163C 48.968,9.49847 47.9235,9.88013 47.1907,10.5286L 47.1907,10.5286C 46.2955,11.5159 45.9539,12.9632 45.8381,14.2908L 45.8331,14.4638L 45.8172,14.2908L 45.8172,14.2908C 45.7703,12.8804 45.9839,11.3255 46.7975,10.1727L 46.7975,10.1727C 47.5774,9.29224 48.7766,8.70245 49.9464,8.58063L 49.9464,8.58063C 51.1727,8.56927 52.47,9.07733 53.3818,9.89752L 53.3818,9.89752C 54.4056,11.0429 54.8672,12.6817 55.0016,14.212L 55.0016,14.212C 55.0505,15.8704 54.7505,17.6887 53.7861,19.0386L 53.7861,19.0386C 52.8325,20.1066 51.3714,20.8255 49.9464,20.9639L 49.9464,20.9639C 48.4522,20.9676 46.8723,20.345 45.7698,19.3365L 45.7698,19.3365C 44.5971,17.9915 43.531,16.0176 43.981,14.2908L 44.0056,14.2138 Z "/>
		</g>
		<path fill="#000000" fill-opacity="1" stroke-width="3" stroke-linejoin="round" d="M 65.0576,19.4664L 65.3376,21.6407C 64.6406,21.7837 64.0164,21.8552 63.4651,21.8552C 62.5638,21.8552 61.8653,21.7158 61.3694,21.4373C 60.8736,21.1588 60.5244,20.7927 60.3216,20.3392C 60.119,19.8857 60.0176,18.9326 60.0176,17.4802L 60.0176,9.25513L 58.0576,9.25513L 58.0576,7.01514L 60.0176,7.01514L 60.0176,3.41888L 62.5376,1.94452L 62.5376,7.01514L 65.0576,7.01514L 65.0576,9.25513L 62.5376,9.25513L 62.5376,17.6332C 62.5376,18.3245 62.5814,18.7693 62.6689,18.9676C 62.7563,19.166 62.9,19.3235 63.0998,19.4401C 63.2996,19.5568 63.5861,19.6152 63.9595,19.6152C 64.2366,19.6152 64.6026,19.5655 65.0576,19.4664 Z "/>
		<path fill="#000000" fill-opacity="1" stroke-width="0.2" stroke-linecap="round" stroke-linejoin="round" d="M 65.28,21.1873C 64.9233,21.1489 64.3649,21.0876 64.3035,20.7341C 64.2161,20.23 64.7371,19.7997 65.1375,19.4561C 65.7924,19.9863 66.2667,20.7275 66.666,21.4697C 66.7554,22.1651 66.2935,22.812 65.6066,22.9527C 64.9648,23.2968 64.2092,23.4041 63.4651,23.4705L 63.4651,23.4705C 62.4819,23.447 61.4581,23.2863 60.5836,22.8364L 60.5836,22.8364C 59.8876,22.3691 59.2512,21.7354 58.8865,20.9805L 58.8865,20.9805C 58.4908,19.8762 58.5127,18.6533 58.52,17.4802L 58.52,17.4802C 58.5967,15.158 58.679,12.8362 58.7585,10.5142C 58.2244,10.4977 57.5925,10.4758 57.209,10.1037C 56.356,9.12738 56.3599,7.15045 57.2571,6.2146C 57.7,5.85577 58.3755,5.92584 58.9453,5.94287C 58.9818,4.93951 58.7307,3.83649 59.1833,2.94037C 59.6276,2.30469 60.4708,2.07227 61.1472,1.69263C 61.6921,1.38678 62.4,0.875916 62.9713,1.18829C 64.3376,2.211 63.2988,4.59467 63.252,6.30072C 64.0085,6.32495 64.9229,6.08441 65.5073,6.56537C 66.1623,7.36053 66.1565,8.89825 65.4579,9.65552C 64.7794,10.1004 63.8362,9.76727 63.0251,9.74268C 62.9351,12.3728 62.8484,15.003 62.7631,17.6332L 62.7631,17.6332C 62.7658,18.054 62.7126,18.4915 62.8367,18.8936L 62.8367,18.8936C 62.9085,19.056 63.0391,19.1939 63.1819,19.2993L 63.1819,19.2993C 63.4133,19.4307 63.6942,19.4601 63.9595,19.4798L 64.4257,19.4589L 65.1573,19.4536L 65.1884,19.7734L 65.0406,19.3885L 64.4339,19.5198L 63.9595,19.5728L 63.9595,19.5728C 63.6711,19.5706 63.3665,19.5534 63.1061,19.4293L 63.1061,19.4293C 62.9262,19.3152 62.7603,19.1595 62.6603,18.9714L 62.6603,18.9714C 62.4947,18.553 62.5162,18.082 62.483,17.6332L 62.483,17.6332C 62.4543,16.7649 62.4251,15.8965 62.3968,15.0281C 62.3582,13.8467 62.3203,12.6653 62.2822,11.4838C 62.2556,10.662 61.9158,9.74438 62.2996,9.01709C 62.962,8.60297 63.8554,8.86084 64.6362,8.83368C 64.6135,8.39301 64.5889,7.95239 64.5606,7.51202C 63.749,7.53857 62.8047,7.8725 62.126,7.42657C 61.1445,6.43646 61.841,4.65094 61.7844,3.25781C 61.4763,3.46997 61.1699,3.68463 60.8696,3.90753C 60.9079,5.17358 61.4759,6.69781 60.7063,7.70386C 60.3095,8.08282 59.6465,8.03644 59.0982,8.05573L 59.101,8.06415L 59.1038,8.07202L 59.1065,8.07959L 59.1093,8.08673L 59.1121,8.09351L 59.1149,8.09979L 59.1177,8.10571L 59.1204,8.11127L 59.1232,8.11639L 59.126,8.12109L 59.144,8.14185L 59.1467,8.14349L 59.1492,8.14471L 59.1495,8.14478L 59.1523,8.14569L 59.155,8.14618L 59.1578,8.14624L 59.1606,8.14594L 59.1634,8.1452L 59.1662,8.14404L 59.1689,8.14252L 59.1717,8.14056L 59.1746,8.13818C 59.742,8.11945 60.421,8.05157 60.8547,8.41797C 61.3748,8.97003 61.2576,9.8952 61.2805,10.6534C 61.3494,12.929 61.4177,15.2045 61.4854,17.4802L 61.4854,17.4802C 61.5269,18.2198 61.509,18.985 61.7546,19.6987L 61.7546,19.6987C 61.8518,19.843 62.0123,19.9379 62.1651,20.021L 62.1651,20.021C 62.5745,20.1699 63.0295,20.1567 63.4651,20.1545L 63.4651,20.1545C 63.9747,20.1001 64.4809,20.0134 64.9835,19.9136L 63.5889,21.8659C 63.4744,21.1442 63.2961,20.4216 63.3129,19.691L 65.4322,21.1851L 65.28,21.1873 Z "/>
		<path fill="#000000" fill-opacity="1" stroke-width="3" stroke-linejoin="round" d="M 74.2976,17.0952L 76.8176,16.8151C 76.9518,17.7193 77.3273,18.412 77.9442,18.8932C 78.561,19.3745 79.4222,19.6152 80.5276,19.6152C 81.6418,19.6152 82.4687,19.4029 83.0082,18.9785C 83.5479,18.5542 83.8176,18.0562 83.8176,17.4844C 83.8176,16.9741 83.5056,16.5715 82.8813,16.277C 82.4438,16.0757 81.6025,15.8191 80.357,15.507C 78.677,15.0461 77.479,14.648 76.7629,14.3126C 76.0469,13.9772 75.5037,13.5134 75.1332,12.9214C 74.7629,12.3293 74.5776,11.6745 74.5776,10.957C 74.5776,10.3036 74.7234,9.69849 75.0151,9.14136C 75.3068,8.58429 75.7034,8.12201 76.2051,7.75446C 76.5814,7.47162 77.0947,7.23096 77.7451,7.03265C 78.3955,6.83429 79.0926,6.73511 79.8364,6.73511C 80.9564,6.73511 81.94,6.9043 82.7874,7.24261C 83.6346,7.58099 84.2603,8.03888 84.6642,8.61639C 85.0681,9.19385 85.3459,9.9668 85.4976,10.9351L 82.9776,11.2151C 82.8755,10.5122 82.581,9.96313 82.0939,9.56793C 81.6068,9.17267 80.917,8.9751 80.0245,8.9751C 78.9716,8.9751 78.2205,9.14648 77.7714,9.4892C 77.3222,9.83185 77.0977,10.2322 77.0977,10.6901C 77.0977,10.9818 77.191,11.2443 77.3776,11.4776C 77.5643,11.7197 77.8574,11.9195 78.257,12.077C 78.4846,12.1616 79.1583,12.3541 80.2783,12.6545C 81.8999,13.1241 83.0958,13.5076 83.8657,13.8051C 84.6357,14.1026 85.2402,14.5364 85.6792,15.1067C 86.1182,15.6769 86.3376,16.3835 86.3376,17.2264C 86.3376,18.0547 86.0984,18.8334 85.6201,19.5626C 85.1418,20.2917 84.4527,20.8561 83.553,21.2558C 82.6531,21.6553 81.6345,21.8552 80.497,21.8552C 78.6129,21.8552 77.1771,21.4548 76.1898,20.6542C 75.2026,19.8535 74.5718,18.6672 74.2976,17.0952 Z "/>
		<path fill="#000000" fill-opacity="1" stroke-width="0.2" stroke-linecap="round" stroke-linejoin="round" d="M 76.0342,16.9316C 76.0008,17.2708 75.998,17.7827 75.6741,17.8889C 75.1511,18.0605 74.6176,17.488 74.2888,17.0151C 74.991,16.4175 75.8284,15.973 76.6865,15.635C 77.3215,15.5645 77.8984,16.0089 77.9922,16.6408C 78.2288,17.0298 78.5197,17.4244 78.9178,17.6453C 79.4079,17.8934 79.9796,17.9604 80.5276,17.9981L 80.5276,17.9981C 81.0356,17.9789 81.5864,17.9831 82.0296,17.7342C 82.114,17.6672 82.196,17.5942 82.2642,17.4844L 82.2642,17.4844C 82.3057,17.7839 82.429,17.7681 82.2309,17.6553L 82.2444,17.6616C 81.5209,17.353 80.7534,17.1584 79.9673,16.9277C 78.6877,16.5188 77.3991,16.1204 76.1704,15.5776L 76.1704,15.5776C 75.3238,15.0972 74.5229,14.4511 73.9871,13.6384L 73.9871,13.6384C 73.5645,12.8152 73.3159,11.8811 73.2691,10.957L 73.2691,10.957C 73.3295,10.1314 73.5406,9.30273 73.8912,8.55292L 73.8912,8.55292C 74.3107,7.87457 74.8545,7.25928 75.4785,6.76263L 75.4662,6.77179C 76.0613,6.38947 76.7232,6.10645 77.3972,5.89154C 78.1934,5.69818 79.0171,5.60004 79.8364,5.58771L 79.8364,5.58771C 80.9727,5.65411 82.1167,5.85492 83.1887,6.23737C 84.0663,6.66553 84.9275,7.24103 85.5092,8.02521C 86.0228,8.85162 86.2913,9.82623 86.4631,10.7839C 86.5043,11.0474 86.4361,11.3164 86.2742,11.5283C 86.1122,11.7403 85.8707,11.8769 85.6055,11.9063L 83.5786,12.0869L 83.0794,12.1313C 82.5854,12.1863 82.1367,11.8395 82.0654,11.3476C 82.004,10.947 81.832,10.5318 81.5395,10.2513C 81.1245,9.92755 80.5489,9.85126 80.0245,9.80707L 80.0245,9.80707C 79.4229,9.81836 78.761,9.80035 78.2447,10.1096L 78.2447,10.1096C 78.0594,10.2535 77.8726,10.4568 77.8466,10.6901L 77.8466,10.6901C 77.8454,10.8056 77.8874,10.9231 77.9559,11.0317C 78.1025,11.2053 78.3117,11.3206 78.5161,11.4197L 78.5032,11.4148C 79.1476,11.6287 79.7986,11.8224 80.4619,12.0203L 82.5781,12.7121L 84.0737,13.2668C 84.834,13.6313 85.5706,14.1264 86.0969,14.7852L 86.0969,14.7852C 86.5705,15.4888 86.8035,16.3782 86.8148,17.2264L 86.8148,17.2264C 86.7642,18.1257 86.4316,19.0189 85.9732,19.7943C 85.3977,20.5688 84.565,21.1592 83.7,21.5869L 83.7,21.5869C 82.6777,21.9472 81.5806,22.1223 80.497,22.148L 80.497,22.148C 78.9563,22.0724 77.3018,21.7304 76.0689,20.8032C 75.0638,19.8588 74.4514,18.4683 74.2866,16.9952L 74.7385,16.9551L 74.2192,17.1088C 74.5266,18.4231 75.1771,19.7608 76.2014,20.6398L 76.2014,20.6398C 77.4207,21.4736 79.02,21.7232 80.497,21.7281L 80.497,21.7281C 81.5098,21.658 82.5298,21.452 83.4711,21.0714L 83.4711,21.0714C 84.2122,20.6623 84.9241,20.1183 85.3975,19.4166L 85.3975,19.4166C 85.7535,18.7471 86.0042,17.9846 86.0123,17.2264L 86.0123,17.2264C 85.9732,16.5635 85.7744,15.8712 85.3787,15.3381L 85.3787,15.3381C 84.9358,14.8331 84.3281,14.4713 83.7097,14.2092L 83.7097,14.2092C 82.5257,13.8311 81.3306,13.4885 80.1328,13.157L 80.1428,13.1597L 78.7801,12.8198L 78.0468,12.6104C 77.6247,12.4301 77.205,12.1892 76.9033,11.8434L 76.9099,11.8518C 76.6589,11.5236 76.5017,11.1025 76.4782,10.6901L 76.4782,10.6901C 76.5081,10.0441 76.8855,9.39233 77.3749,8.96954L 77.3749,8.96954C 78.1287,8.45282 79.1126,8.32568 80.0245,8.26538L 80.0245,8.26538C 80.9062,8.29901 81.8503,8.47168 82.5742,8.97601L 82.5742,8.97601C 83.1899,9.50751 83.6074,10.3035 83.7773,11.0989L 82.8884,10.4119L 85.4017,10.0715L 84.6392,11.0696C 84.4873,10.4009 84.2932,9.71265 83.9033,9.14862L 83.9033,9.14862C 83.5255,8.69019 82.9678,8.39209 82.4219,8.15765L 82.4219,8.15765C 81.5893,7.90424 80.7067,7.80328 79.8364,7.79291L 79.8364,7.79291C 79.2398,7.82965 78.6421,7.92505 78.0685,8.09326L 78.0686,8.09326C 77.6597,8.24487 77.2509,8.41992 76.8848,8.68237C 76.5601,8.96826 76.2823,9.31659 76.0737,9.69556L 76.0737,9.69556C 75.9119,10.093 75.8276,10.5281 75.8182,10.957L 75.8182,10.957C 75.8632,11.4026 76.0021,11.8498 76.2275,12.2368L 76.2275,12.2368C 76.5051,12.6119 76.9157,12.8868 77.333,13.0957L 77.333,13.0957C 78.4387,13.522 79.5932,13.8116 80.7371,14.1213L 80.7063,14.1132C 81.6494,14.3466 82.6009,14.5674 83.5226,14.9183C 84.461,15.3941 85.3079,16.4337 85.3604,17.4844L 85.3604,17.4844C 85.3125,18.5051 84.754,19.5483 83.9893,20.226L 83.9893,20.226C 83.0085,20.926 81.7296,21.1811 80.5276,21.2676L 80.5276,21.2676C 79.2681,21.2194 77.9307,20.9548 76.8862,20.2495L 76.8862,20.2495C 75.9517,19.4648 75.3046,18.2715 75.0621,17.0756L 77.0136,18.579C 76.1757,18.6898 75.3371,18.8408 74.4919,18.8434L 76.0305,16.7929L 76.0342,16.9316 Z "/>
		<path fill="#000000" fill-opacity="1" stroke-width="3" stroke-linejoin="round" d="M 88.5776,14.2951C 88.5776,11.6176 89.3155,9.63281 90.7913,8.34076C 92.0251,7.27032 93.5301,6.73511 95.3064,6.73511C 97.278,6.73511 98.8895,7.38696 100.141,8.69073C 101.392,9.99445 102.018,11.7941 102.018,14.0895C 102.018,15.9532 101.741,17.4182 101.186,18.4842C 100.632,19.5502 99.8265,20.3786 98.7692,20.9692C 97.7119,21.5598 96.5576,21.8552 95.3064,21.8552C 93.2968,21.8552 91.6729,21.2061 90.4348,19.9082C 89.1967,18.6104 88.5776,16.7393 88.5776,14.2951 Z M 91.0976,14.2908C 91.0976,16.0699 91.4965,17.4021 92.2942,18.2873C 93.0919,19.1725 94.0959,19.6152 95.3064,19.6152C 96.5051,19.6152 97.5034,19.1703 98.301,18.2808C 99.0987,17.3912 99.4976,16.0349 99.4976,14.212C 99.4976,12.4911 99.0966,11.1882 98.2945,10.3029C 97.4924,9.41772 96.4963,8.9751 95.3064,8.9751C 94.0959,8.9751 93.0919,9.41553 92.2942,10.2964C 91.4965,11.1772 91.0976,12.5086 91.0976,14.2908 Z "/>
		<g>
			<path fill="#000000" fill-opacity="1" stroke-width="0.2" stroke-linecap="round" stroke-linejoin="round" d="M 90.3146,14.3814C 90.0589,14.9314 88.9689,14.6763 88.4971,14.2951L 88.4971,14.2951C 86.692,12.692 88.0123,8.82831 89.7661,7.15894C 91.3101,5.99493 93.3389,5.35083 95.3064,5.33374L 95.3064,5.33374C 97.3797,5.48615 99.5428,6.38361 101.01,7.85626L 101.01,7.85626C 102.38,9.5542 103.003,11.9081 103.003,14.0895L 103.003,14.0895C 102.881,15.7162 102.646,17.4044 101.909,18.8596C 101.231,19.9683 100.235,20.929 99.1006,21.5625C 97.9136,22.0799 96.6009,22.3645 95.3064,22.3962L 95.3064,22.3962C 93.4488,22.252 91.4993,21.4673 90.1934,20.1386C 88.9378,18.5432 88.4659,16.3252 88.4771,14.2951L 88.4965,14.0322L 88.498,14.2951L 88.498,14.2951C 88.642,16.246 89.2315,18.3528 90.5585,19.7902L 90.5585,19.7902C 91.8252,20.8903 93.6287,21.4639 95.3064,21.4606L 95.3064,21.4606C 96.4138,21.3453 97.5217,21.0186 98.5037,20.4941L 98.5037,20.4941C 99.3672,19.9171 100.106,19.0928 100.574,18.1658L 100.574,18.1658C 101.093,16.8961 101.146,15.4612 101.14,14.0895L 101.14,14.0895C 101.008,12.4405 100.471,10.6663 99.3306,9.46826L 99.3306,9.46826C 98.2507,8.5484 96.7249,8.07208 95.3064,8.08441L 95.3064,8.08441C 94.0527,8.19629 92.7545,8.68304 91.8135,9.51898L 91.8188,9.51434C 90.7098,10.7608 90.7441,12.6772 90.3367,14.2951L 90.3146,14.3814 Z "/>
			<path fill="#000000" fill-opacity="1" stroke-width="0.2" stroke-linecap="round" stroke-linejoin="round" d="M 89.3657,14.2138C 89.6777,13.6959 90.6589,13.9808 91.1782,14.2908L 91.1782,14.2908C 92.2654,14.8914 92.7636,16.2082 93.4602,17.2366L 93.4602,17.2366C 93.9124,17.7581 94.6016,18.1286 95.3064,18.2142L 95.3064,18.2142C 96.0455,18.2368 96.8382,17.9547 97.3958,17.469L 97.3958,17.469C 98.179,16.6282 98.4214,15.3564 98.525,14.212L 98.525,14.212C 98.5632,13.045 98.4143,11.7564 97.7502,10.7961C 97.147,10.102 96.2202,9.61945 95.3064,9.5163L 95.3064,9.5163C 94.3279,9.49847 93.2835,9.88013 92.5507,10.5286L 92.5507,10.5286C 91.6555,11.5159 91.314,12.9632 91.1982,14.2908L 91.1931,14.4638L 91.1772,14.2908L 91.1772,14.2908C 91.1304,12.8804 91.344,11.3255 92.1575,10.1727L 92.1575,10.1727C 92.9374,9.29224 94.1365,8.70245 95.3064,8.58063L 95.3064,8.58063C 96.5327,8.56927 97.8301,9.07733 98.7419,9.89752L 98.7419,9.89752C 99.7656,11.0429 100.227,12.6817 100.362,14.212L 100.362,14.212C 100.411,15.8704 100.111,17.6887 99.1462,19.0386L 99.1462,19.0386C 98.1926,20.1066 96.7314,20.8255 95.3064,20.9639L 95.3064,20.9639C 93.8123,20.9676 92.2324,20.345 91.1298,19.3365L 91.1298,19.3365C 89.9571,17.9915 88.8911,16.0176 89.341,14.2908L 89.3657,14.2138 Z "/>
		</g>
		<path fill="#000000" fill-opacity="1" stroke-width="3" stroke-linejoin="round" d="M 113.498,21.5751L 113.498,9.25513L 111.258,9.25513L 111.258,7.01514L 113.498,7.01514L 113.498,5.46637C 113.498,4.48926 113.586,3.763 113.764,3.2876C 114.009,2.64886 114.439,2.13043 115.053,1.73236C 115.667,1.33417 116.512,1.13507 117.588,1.13507C 118.282,1.13507 119.048,1.2168 119.885,1.38013L 119.518,3.51514C 119.007,3.42181 118.523,3.37506 118.065,3.37506C 117.318,3.37506 116.791,3.53632 116.481,3.85858C 116.172,4.18085 116.018,4.78241 116.018,5.66327L 116.018,7.01514L 118.818,7.01514L 118.818,9.25513L 116.018,9.25513L 116.018,21.5751L 113.498,21.5751 Z "/>
		<path fill="#000000" fill-opacity="1" stroke-width="0.2" stroke-linecap="round" stroke-linejoin="round" d="M 114.758,20.3151C 114.576,20.9285 113.99,21.7661 113.364,21.6342C 112.764,21.5079 112.227,20.9323 112.054,20.3445C 111.147,17.2719 111.938,13.9363 112.019,10.7338C 111.41,10.7177 110.692,10.6824 110.253,10.2595C 109.322,9.21124 109.325,7.06537 110.296,6.05322C 110.793,5.64374 111.554,5.69873 112.198,5.71582C 112.215,5.63306 112.228,5.54974 112.241,5.46637L 112.241,5.46637C 112.285,4.59113 112.383,3.7049 112.648,2.85956C 113.026,2.02716 113.674,1.28534 114.434,0.777588C 115.376,0.25531 116.511,0.0979614 117.588,0.0715332L 117.588,0.0715332C 118.422,0.139465 119.253,0.252258 120.076,0.400452C 120.609,0.504333 120.961,1.01465 120.869,1.5495L 120.441,3.67401C 120.398,3.92047 120.259,4.13971 120.054,4.28296C 119.849,4.42621 119.595,4.48151 119.349,4.43652C 118.924,4.36279 118.495,4.3056 118.065,4.2702L 118.065,4.2702C 117.749,4.27667 117.406,4.26563 117.092,4.44464L 117.092,4.44464C 116.832,4.77069 116.843,5.24762 116.81,5.66327L 116.81,5.66327C 116.796,5.86261 116.783,6.06207 116.771,6.26154C 117.617,6.28656 118.635,6.00854 119.294,6.539C 119.965,7.34503 119.96,8.9151 119.248,9.68573C 118.493,10.1784 117.447,9.80878 116.546,9.78363C 116.428,13.7554 117.093,17.8398 116.14,21.6977C 115.35,22.1686 113.381,22.2366 113.407,21.3171C 113.435,22.1915 115.144,21.6088 116.019,21.5762C 115.937,18.7292 115.848,15.8826 115.762,13.0358C 115.721,11.6865 115.171,10.2062 115.748,8.9859C 116.485,8.52393 117.481,8.81525 118.35,8.78741C 118.33,8.38898 118.308,7.99066 118.28,7.55243C 117.379,7.57959 116.331,7.95038 115.576,7.4566C 115.168,7.01385 115.364,6.26563 115.351,5.66327L 115.351,5.66327C 115.367,4.86823 115.443,3.96198 115.958,3.35614L 115.958,3.35614C 116.503,2.84644 117.321,2.65985 118.065,2.59637L 118.848,2.61298L 118.86,2.61426L 119.666,2.70416L 118.705,3.37524L 119.006,1.22882L 119.714,2.25562C 119.009,2.17157 118.299,2.11493 117.588,2.09943L 117.588,2.09943C 116.914,2.15649 116.191,2.24286 115.623,2.61084L 115.623,2.61084C 115.265,2.88477 114.96,3.26349 114.802,3.68573L 114.805,3.67725C 114.673,4.24896 114.672,4.8465 114.679,5.46637L 114.679,5.46637C 114.693,6.27905 114.897,7.26855 114.367,7.88477C 113.885,8.34808 112.99,8.40265 112.378,8.13507L 112.63,7.88306C 113.27,7.86322 114.023,7.82904 114.518,8.23419C 116.002,9.80231 115.1,12.519 115.172,14.6762C 115.236,16.5599 116.09,18.9824 114.758,20.3151 Z "/>
		<rect x="121.058" y="1.4151" fill="#000000" fill-opacity="1" stroke-width="3" stroke-linejoin="round" width="2.52002" height="20.16"/>
		<path fill="#000000" fill-opacity="1" stroke-width="0.2" stroke-linecap="round" stroke-linejoin="round" d="M 122.318,20.3151C 121.969,21.0776 120.706,21.9431 120.055,21.4146C 119.315,20.8146 119.431,19.5778 119.436,18.6255C 119.442,17.4035 119.477,16.1818 119.51,14.9603C 119.584,12.2236 119.672,9.48749 119.763,6.75128C 119.806,5.47021 119.851,4.18921 119.894,2.90814C 119.92,2.14594 119.778,1.2132 120.299,0.65625C 121.307,-0.200928 123.316,-0.195129 124.269,0.72406C 124.97,1.65717 124.467,3.05542 124.426,4.22174C 124.367,5.90631 124.308,7.591 124.248,9.27545C 124.186,10.9839 124.124,12.6923 124.06,14.4006C 123.996,16.0955 123.931,17.7905 123.866,19.4854C 123.837,20.2298 123.993,21.0231 123.718,21.7154C 123.203,22.032 122.509,21.7312 121.905,21.7101C 121.579,21.6987 120.997,21.7581 120.967,21.4044C 121.095,22.2568 122.688,21.588 123.552,21.5496C 123.294,15.1269 123.018,8.70477 122.708,2.28424C 122.482,2.31177 122.256,2.34174 122.033,2.39038C 122.207,6.29095 122.39,10.1911 122.594,14.0901C 122.703,16.1643 123.786,18.8464 122.318,20.3151 Z "/>
		<path fill="#000000" fill-opacity="1" stroke-width="3" stroke-linejoin="round" d="M 137.267,17.0952L 139.739,17.3751C 139.328,18.7955 138.566,19.8973 137.453,20.6804C 136.34,21.4636 134.919,21.8552 133.189,21.8552C 131.014,21.8552 129.288,21.2032 128.012,19.8995C 126.736,18.5957 126.098,16.7685 126.098,14.4177C 126.098,11.9851 126.742,10.0966 128.031,8.75195C 129.321,7.40741 130.993,6.73511 133.049,6.73511C 135.039,6.73511 136.664,7.38843 137.925,8.69513C 139.187,10.0018 139.818,11.8393 139.818,14.2076C 139.818,14.3505 139.813,14.5663 139.804,14.8552L 128.618,14.8552C 128.714,16.3922 129.189,17.5698 130.042,18.3879C 130.895,19.2061 131.96,19.6152 133.238,19.6152C 134.188,19.6152 134.999,19.4146 135.67,19.0136C 136.341,18.6125 136.873,17.9731 137.267,17.0952 Z M 128.618,12.6152L 137.298,12.6152C 137.181,11.5476 136.848,10.7485 136.3,10.2176C 135.463,9.38934 134.375,8.9751 133.036,8.9751C 131.829,8.9751 130.812,9.30542 129.987,9.96606C 129.162,10.6267 128.705,11.5097 128.618,12.6152 Z "/>
		<g>
			<path fill="#000000" fill-opacity="1" stroke-width="0.2" stroke-linecap="round" stroke-linejoin="round" d="M 138.756,17.9822C 138.479,18.3121 138.021,18.9323 137.67,18.6824C 137.211,18.356 137.285,17.6177 137.276,17.0151C 138.063,16.5422 138.979,16.2878 139.881,16.1187C 140.251,16.1606 140.584,16.3636 140.791,16.6736C 140.998,16.9836 141.057,17.3689 140.954,17.7268C 140.846,19.3865 139.707,20.9959 138.385,22.0044C 136.865,22.9563 134.982,23.3803 133.189,23.3997L 133.189,23.3997C 130.966,23.2737 128.61,22.4279 126.997,20.8923C 125.531,19.1498 124.849,16.6945 124.819,14.4177L 124.819,14.4177C 124.947,12.1284 125.69,9.68121 127.216,7.97003L 127.216,7.97003C 128.76,6.57428 130.968,5.78314 133.049,5.742L 133.049,5.742C 135.038,5.86987 137.12,6.70416 138.544,8.09839L 138.544,8.09839C 139.905,9.75055 140.505,12.0666 140.528,14.2076L 140.518,14.491L 140.498,14.8762C 140.487,15.2512 140.18,15.5493 139.804,15.5493C 136.076,15.4562 132.346,15.3627 128.618,15.2692L 129.031,14.8293C 129.113,16.0098 129.477,17.273 130.26,18.1597L 130.26,18.1597C 131.05,18.8867 132.167,19.3152 133.238,19.3871L 133.238,19.3871C 134.039,19.3643 134.873,19.238 135.586,18.8726L 135.586,18.8726C 136.269,18.4473 136.784,17.7575 137.175,17.054L 137.278,16.9952L 137.675,17.0503L 137.194,17.0625C 136.832,17.8027 136.34,18.5319 135.664,19.0039L 135.664,19.0039C 134.939,19.4258 134.074,19.6041 133.238,19.6724L 133.238,19.6724C 132.07,19.6558 130.836,19.242 129.936,18.4977L 129.936,18.4977C 129.012,17.5579 128.521,16.1794 128.361,14.8712C 128.356,14.8003 128.381,14.7307 128.43,14.6789C 128.479,14.6271 128.547,14.5977 128.618,14.5977C 132.347,14.4969 136.076,14.3961 139.804,14.2952L 139.245,14.8381L 139.244,14.4651L 139.24,14.2076L 139.24,14.2076C 139.129,12.4348 138.594,10.5183 137.393,9.20874L 137.393,9.20874C 136.237,8.18927 134.591,7.63947 133.049,7.62158L 133.049,7.62158C 131.503,7.73297 129.874,8.37085 128.781,9.47046L 128.781,9.47046C 127.705,10.8141 127.31,12.6967 127.304,14.4177L 127.304,14.4177C 127.409,16.0234 127.89,17.7676 128.991,18.9407L 128.991,18.9407C 130.112,19.8976 131.716,20.3174 133.189,20.3249L 133.189,20.3249C 134.34,20.2537 135.553,19.9824 136.499,19.3245L 136.499,19.3245C 137.237,18.7077 137.767,17.8062 138.04,16.8832L 139.54,19.1328C 138.714,19.0588 137.876,19.0356 137.069,18.843L 138.872,17.815L 138.756,17.9822 Z "/>
			<path fill="#000000" fill-opacity="1" stroke-width="0.2" stroke-linecap="round" stroke-linejoin="round" d="M 126.897,12.4149C 127.373,12.0488 128.149,12.3526 128.687,12.6206L 128.618,12.5458C 129.005,11.3994 130.726,10.9866 131.933,11.0676C 133.723,11.1876 135.51,11.3352 137.298,11.4798L 136.169,12.7385C 136.124,12.0972 136.033,11.4021 135.653,10.8716C 135,10.1543 133.997,9.73505 133.036,9.60059L 133.036,9.60059C 132.071,9.54614 131.038,9.7464 130.209,10.2433C 129.454,10.7973 128.911,11.7072 128.718,12.623L 128.618,12.5146L 128.739,12.5247L 128.618,12.5354L 128.697,12.6214C 128.731,11.6085 129.166,10.5477 129.866,9.81464L 129.866,9.81464C 130.731,9.06378 131.899,8.62408 133.036,8.4895L 133.036,8.4895C 134.369,8.43286 135.809,8.8327 136.867,9.64447L 136.861,9.63824C 137.642,10.3754 138.074,11.4604 138.336,12.5016C 138.368,12.7966 138.273,13.0914 138.075,13.3123C 137.877,13.5333 137.594,13.6595 137.298,13.6595C 134.416,13.9196 131.5,14.8757 128.618,14.3716C 128.128,14.3716 127.66,14.1671 127.327,13.8072C 126.995,13.4473 126.828,12.9649 126.866,12.4765L 126.897,12.4149 Z "/>
		</g>
		<path fill="#000000" fill-opacity="1" stroke-width="3" stroke-linejoin="round" d="M 141.218,21.5751L 146.411,14.2776L 141.498,7.01514L 144.529,7.01514L 146.853,10.4495C 147.287,11.0911 147.658,11.6395 147.964,12.0945C 148.363,11.5374 148.728,11.0256 149.058,10.5588L 151.578,7.01514L 154.601,7.01514L 149.438,14.2733L 154.378,21.5751L 151.346,21.5751L 148.428,17.2657L 147.885,16.4564L 144.245,21.5751L 141.218,21.5751 Z "/>
		<path fill="#000000" fill-opacity="1" stroke-width="0.2" stroke-linecap="round" stroke-linejoin="round" d="M 143.609,20.3419C 143.269,20.6619 142.884,20.9429 142.466,21.1497C 141.844,21.457 140.448,21.7017 140.389,21.0103C 140.302,19.9925 141.068,19.0601 141.637,18.2114C 142.541,16.863 143.517,15.5649 144.475,14.2546C 143.44,12.6799 142.412,11.0999 141.384,9.52008C 140.773,8.58075 139.716,7.33838 140.252,6.354C 141.1,4.94458 143.702,5.06567 145.158,5.83057C 146.478,6.72144 147.018,8.41583 147.884,9.75195L 147.883,9.7514C 148.242,10.3091 148.6,10.867 148.958,11.4253L 146.99,11.396C 147.366,10.8957 147.741,10.3948 148.115,9.89313C 149.071,8.60693 149.735,6.99072 151.096,6.0813C 151.831,5.77515 152.687,5.98566 153.483,5.99609C 154.167,6.00494 155.138,5.94366 155.47,6.56647C 155.891,7.63818 154.529,8.68854 153.842,9.61285C 152.685,11.1703 151.527,12.7275 150.368,14.2842C 151.417,15.9116 152.466,17.5394 153.513,19.1677C 154.052,20.0054 155.305,20.9399 154.864,21.8334C 154.563,22.2971 153.778,22.0989 153.225,22.0895C 152.533,22.0778 151.806,22.2326 151.122,21.9968C 149.794,20.7696 149.118,18.9868 148.137,17.4617C 148.053,17.3224 147.969,17.1833 147.877,17.032C 146.697,18.6013 145.866,20.5141 144.325,21.73C 143.836,21.8231 143.33,21.7278 142.832,21.7169C 142.547,21.7107 142.263,21.7043 141.978,21.6978C 140.777,21.6704 141.018,21.6814 141.285,21.3248C 141.114,21.5792 141.846,21.6362 142.152,21.6287C 142.85,21.6118 143.548,21.5945 144.245,21.5755C 145.012,20.438 145.777,19.3 146.544,18.1627C 146.973,17.5262 147.198,16.6304 147.887,16.2925C 148.254,16.3469 148.372,16.8561 148.585,17.1599C 149.562,18.5234 150.54,19.8867 151.518,21.2495C 152.217,21.2252 152.916,21.1992 153.615,21.1701C 151.982,18.8887 149.75,16.9063 148.802,14.2658C 149.489,11.8307 151.513,9.99286 152.913,7.88556C 152.631,7.90741 152.349,7.93164 152.068,7.96527C 151.353,9.03522 150.639,10.1057 149.926,11.1761L 149.928,11.1733C 149.576,11.6977 149.223,12.2213 148.87,12.7444C 148.657,13.0412 148.312,13.2149 147.947,13.2095C 147.582,13.204 147.243,13.0201 147.039,12.7171L 146.512,11.9797L 145.885,11.1038C 145.206,10.1635 144.425,9.28546 143.863,8.27069L 144.059,8.37469C 145.449,10.2978 147.769,11.936 148.009,14.2966C 147.934,15.4029 147.042,16.2999 146.433,17.2261C 145.662,18.397 144.855,19.6994 143.609,20.3419 Z "/>
		<path fill="#000000" fill-opacity="1" stroke-width="3" stroke-linejoin="round" d="M 156.618,3.93512L 156.618,1.4151L 159.138,1.4151L 159.138,3.93512L 156.618,3.93512 Z M 156.618,21.5751L 156.618,7.01514L 159.138,7.01514L 159.138,21.5751L 156.618,21.5751 Z "/>
		<g>
			<path fill="#000000" fill-opacity="1" stroke-width="0.2" stroke-linecap="round" stroke-linejoin="round" d="M 157.878,2.67511C 157.181,3.45605 156.177,4.86115 155.246,4.38495C 154.884,4.19995 154.987,3.59595 155.005,3.19012C 155.047,2.24756 154.907,1.04413 155.626,0.424011C 156.771,-0.388916 158.939,-0.361877 159.828,0.724426C 160.491,1.72736 160.453,3.56006 159.52,4.31732C 158.917,4.66852 158.121,4.28888 157.429,4.19067C 157.123,4.14722 156.632,4.25275 156.531,3.96045C 157.245,4.19037 158.039,3.80048 158.744,3.5412C 158.649,3.10913 158.599,2.60724 158.268,2.28448C 158.097,2.3515 157.804,2.50635 157.878,2.67511 Z "/>
			<path fill="#000000" fill-opacity="1" stroke-width="0.2" stroke-linecap="round" stroke-linejoin="round" d="M 157.878,20.3151C 157.394,21.1326 155.612,22.0779 155.179,21.2324C 154.681,20.2598 154.997,19.05 155.029,17.9578C 155.079,16.242 155.146,14.5267 155.215,12.8116C 155.25,11.941 155.287,11.0704 155.323,10.1999C 155.351,9.56061 155.379,8.92139 155.407,8.28217C 155.437,7.58527 155.35,6.73358 155.837,6.23407C 156.859,5.38141 158.881,5.3891 159.829,6.32404C 160.313,6.98175 160.032,7.95294 159.996,8.7691C 159.993,8.84662 159.989,8.92407 159.986,9.00146C 159.927,10.3088 159.868,11.616 159.808,12.9233C 159.746,14.2333 159.684,15.5434 159.62,16.8533C 159.574,17.7994 159.525,18.7454 159.478,19.6914C 159.443,20.3753 159.629,21.1372 159.301,21.7381C 158.781,22.0642 158.074,21.7495 157.462,21.7214C 157.139,21.7066 156.562,21.7891 156.527,21.4683C 156.701,22.3005 158.229,21.5673 159.078,21.5151C 158.837,16.9699 158.575,12.4255 158.268,7.88434C 158.062,7.91656 157.853,7.94989 157.628,8.02521C 157.772,10.3762 157.925,12.7267 158.095,15.0759C 158.222,16.8193 159.114,19.0792 157.878,20.3151 Z "/>
		</g>
		<path fill="#000000" fill-opacity="1" stroke-width="3" stroke-linejoin="round" d="M 165.018,21.5751L 162.498,21.5751L 162.498,1.4151L 165.018,1.4151L 165.018,8.9007C 166.05,7.45703 167.37,6.73511 168.977,6.73511C 169.867,6.73511 170.708,6.91449 171.501,7.27325C 172.295,7.63202 172.947,8.1358 173.459,8.78485C 173.971,9.43378 174.372,10.2169 174.662,11.1342C 174.952,12.0515 175.098,13.0322 175.098,14.0764C 175.098,16.5555 174.496,18.4717 173.293,19.8251C 172.09,21.1785 170.645,21.8552 168.959,21.8552C 167.285,21.8552 165.971,21.0632 165.018,19.4795L 165.018,21.5751 Z M 165.018,14.1901C 165.018,15.8555 165.247,17.0587 165.705,17.7995C 166.454,19.0099 167.468,19.6152 168.745,19.6152C 169.783,19.6152 170.682,19.1689 171.44,18.2764C 172.198,17.3839 172.578,16.0524 172.578,14.282C 172.578,12.4707 172.215,11.1335 171.488,10.2701C 170.762,9.4068 169.883,8.9751 168.85,8.9751C 167.812,8.9751 166.913,9.42139 166.155,10.3139C 165.397,11.2064 165.018,12.4985 165.018,14.1901 Z "/>
		<g>
			<path fill="#000000" fill-opacity="1" stroke-width="0.2" stroke-linecap="round" stroke-linejoin="round" d="M 163.283,19.8162C 164.107,20.0262 164.874,20.8059 165.075,21.6321C 165.16,21.9846 164.546,22.1702 164.201,22.2806C 163.36,22.5493 162.341,22.9265 161.563,22.5092C 160.462,21.9785 160.869,20.1279 160.879,18.905C 160.895,16.825 160.937,14.7454 160.978,12.6657C 161.03,10.0206 161.087,7.37567 161.146,4.73071C 161.178,3.32324 160.66,1.5672 161.616,0.533386C 162.677,-0.398682 164.83,-0.394836 165.854,0.579163C 166.65,1.56268 166.137,3.10199 166.108,4.36713C 166.083,5.49878 166.057,6.63043 166.031,7.76202C 166.023,8.1416 166.014,8.52118 166.005,8.9007L 164.214,8.32623C 165.353,6.95013 167.192,5.93378 168.977,5.87103L 168.977,5.87103C 169.951,5.94354 170.927,6.17236 171.829,6.54834L 171.829,6.54834C 172.657,7.00439 173.419,7.61377 174.032,8.33295C 174.571,9.13184 174.987,10.0208 175.291,10.9353C 175.543,11.9597 175.667,13.0215 175.678,14.0764L 175.678,14.0764C 175.558,16.1971 174.964,18.4702 173.604,20.1019L 173.604,20.1019C 172.396,21.2842 170.65,22.0969 168.959,22.1402L 168.959,22.1402C 167.357,22.0022 165.746,20.9172 164.884,19.5601L 165.174,19.4795C 165.155,20.2231 165.472,21.6843 164.703,21.6656C 165.44,21.6455 165.058,20.2163 165.037,19.4795L 165.001,19.4897C 165.883,20.7239 167.443,21.6888 168.959,21.7365L 168.959,21.7365C 170.499,21.6126 172.055,20.7915 173.099,19.6523L 173.099,19.6523C 174.251,18.1042 174.658,16.0066 174.661,14.0764L 174.661,14.0764C 174.6,13.1355 174.439,12.1935 174.164,11.2917L 174.164,11.2917C 173.866,10.5357 173.48,9.80304 172.989,9.15546L 172.989,9.15546C 172.489,8.63068 171.879,8.19769 171.225,7.88385L 171.225,7.88385C 170.507,7.63037 169.738,7.49414 168.977,7.48004L 168.977,7.48004C 167.724,7.5943 166.48,8.3996 165.734,9.41284C 165.511,9.72406 165.113,9.8559 164.749,9.73901C 164.384,9.62213 164.137,9.28339 164.137,8.9007C 164.067,6.77106 163.996,4.64142 163.921,2.51196C 163.841,2.52734 163.761,2.54486 163.668,2.58514C 163.783,6.22363 163.904,9.86188 164.034,13.4999C 164.116,15.772 165.09,18.4728 163.758,20.3151L 163.283,19.8162 Z "/>
			<path fill="#000000" fill-opacity="1" stroke-width="0.2" stroke-linecap="round" stroke-linejoin="round" d="M 163.286,14.116C 163.606,13.603 164.573,13.8899 165.098,14.1901L 165.098,14.1901C 166.092,14.7156 166.596,15.9133 167.054,16.9654L 167.053,16.9643C 167.413,17.5676 168.051,18.1151 168.745,18.2194L 168.745,18.2194C 169.382,18.2447 170.044,17.9203 170.512,17.4877L 170.512,17.4877C 171.264,16.6452 171.504,15.4065 171.608,14.282L 171.608,14.282C 171.654,13.0787 171.579,11.7521 170.939,10.7319L 170.939,10.7319C 170.436,10.1013 169.651,9.61005 168.85,9.5105L 168.85,9.5105C 167.971,9.4964 167.059,9.93463 166.421,10.5396C 165.577,11.5178 165.234,12.9033 165.118,14.1901L 165.114,14.3561L 165.097,14.1901L 165.097,14.1901C 165.048,12.824 165.258,11.3328 166.013,10.1929L 166.013,10.1929C 166.701,9.35175 167.77,8.70929 168.85,8.58691L 168.85,8.58691C 169.967,8.5816 171.133,9.11652 171.936,9.89337L 171.936,9.89337C 172.922,11.0847 173.304,12.7416 173.438,14.282L 173.438,14.282C 173.491,15.9026 173.214,17.669 172.307,19.0129L 172.307,19.0129C 171.449,20.0422 170.119,20.8165 168.745,20.9577L 168.745,20.9577C 167.089,20.9376 165.361,19.9506 164.351,18.6379L 164.35,18.6367C 163.568,17.3264 162.854,15.6608 163.261,14.1901L 163.286,14.116 Z "/>
		</g>
		<rect x="178.458" y="1.4151" fill="#000000" fill-opacity="1" stroke-width="3" stroke-linejoin="round" width="2.52002" height="20.16"/>
		<path fill="#000000" fill-opacity="1" stroke-width="0.2" stroke-linecap="round" stroke-linejoin="round" d="M 179.718,20.3151C 179.369,21.0776 178.106,21.9431 177.455,21.4146C 176.715,20.8146 176.831,19.5778 176.836,18.6255C 176.842,17.4035 176.877,16.1818 176.91,14.9603C 176.984,12.2236 177.072,9.48749 177.164,6.75128C 177.206,5.47021 177.25,4.18921 177.294,2.90814C 177.32,2.14594 177.178,1.2132 177.699,0.65625C 178.707,-0.200928 180.716,-0.195129 181.669,0.72406C 182.37,1.65717 181.867,3.05542 181.826,4.22174C 181.767,5.90631 181.708,7.591 181.648,9.27545C 181.586,10.9839 181.524,12.6923 181.46,14.4006C 181.396,16.0955 181.331,17.7905 181.266,19.4854C 181.237,20.2298 181.393,21.0231 181.118,21.7154C 180.603,22.032 179.909,21.7312 179.305,21.7101C 178.979,21.6987 178.397,21.7581 178.367,21.4044C 178.495,22.2568 180.088,21.588 180.952,21.5496C 180.694,15.1269 180.418,8.70477 180.108,2.28424C 179.882,2.31177 179.656,2.34174 179.433,2.39038C 179.607,6.29095 179.79,10.1911 179.994,14.0901C 180.103,16.1643 181.186,18.8464 179.718,20.3151 Z "/>
		<path fill="#000000" fill-opacity="1" stroke-width="3" stroke-linejoin="round" d="M 194.667,17.0952L 197.139,17.3751C 196.728,18.7955 195.966,19.8973 194.853,20.6804C 193.74,21.4636 192.319,21.8552 190.589,21.8552C 188.414,21.8552 186.688,21.2032 185.412,19.8995C 184.136,18.5957 183.498,16.7685 183.498,14.4177C 183.498,11.9851 184.142,10.0966 185.431,8.75195C 186.721,7.40741 188.393,6.73511 190.449,6.73511C 192.439,6.73511 194.064,7.38843 195.325,8.69513C 196.587,10.0018 197.218,11.8393 197.218,14.2076C 197.218,14.3505 197.213,14.5663 197.204,14.8552L 186.018,14.8552C 186.114,16.3922 186.589,17.5698 187.442,18.3879C 188.295,19.2061 189.36,19.6152 190.638,19.6152C 191.588,19.6152 192.399,19.4146 193.07,19.0136C 193.741,18.6125 194.273,17.9731 194.667,17.0952 Z M 186.018,12.6152L 194.698,12.6152C 194.581,11.5476 194.248,10.7485 193.7,10.2176C 192.863,9.38934 191.775,8.9751 190.436,8.9751C 189.229,8.9751 188.212,9.30542 187.387,9.96606C 186.562,10.6267 186.105,11.5097 186.018,12.6152 Z "/>
		<g>
			<path fill="#000000" fill-opacity="1" stroke-width="0.2" stroke-linecap="round" stroke-linejoin="round" d="M 196.156,17.9822C 195.879,18.3121 195.421,18.9323 195.07,18.6824C 194.611,18.356 194.685,17.6177 194.676,17.0151C 195.463,16.5422 196.379,16.2878 197.281,16.1187C 197.651,16.1606 197.984,16.3636 198.191,16.6736C 198.398,16.9836 198.457,17.3689 198.354,17.7268C 198.246,19.3865 197.107,20.9959 195.785,22.0044C 194.265,22.9563 192.382,23.3803 190.589,23.3997L 190.589,23.3997C 188.366,23.2737 186.01,22.4279 184.397,20.8923C 182.931,19.1498 182.249,16.6945 182.219,14.4177L 182.219,14.4177C 182.347,12.1284 183.09,9.68121 184.616,7.97003L 184.616,7.97003C 186.16,6.57428 188.368,5.78314 190.449,5.742L 190.449,5.742C 192.438,5.86987 194.52,6.70416 195.943,8.09839L 195.943,8.09839C 197.305,9.75055 197.905,12.0666 197.928,14.2076L 197.918,14.491L 197.898,14.8762C 197.887,15.2512 197.58,15.5493 197.204,15.5493C 193.475,15.4562 189.746,15.3627 186.018,15.2692L 186.431,14.8293C 186.513,16.0098 186.877,17.273 187.661,18.1597L 187.661,18.1597C 188.45,18.8867 189.567,19.3152 190.638,19.3871L 190.638,19.3871C 191.439,19.3643 192.273,19.238 192.986,18.8726L 192.986,18.8726C 193.669,18.4473 194.184,17.7575 194.575,17.054L 194.678,16.9952L 195.075,17.0503L 194.594,17.0625C 194.232,17.8027 193.74,18.5319 193.064,19.0039L 193.064,19.0039C 192.339,19.4258 191.474,19.6041 190.638,19.6724L 190.638,19.6724C 189.47,19.6558 188.236,19.242 187.336,18.4977L 187.336,18.4977C 186.412,17.5579 185.921,16.1794 185.761,14.8712C 185.756,14.8003 185.781,14.7307 185.83,14.6789C 185.879,14.6271 185.947,14.5977 186.018,14.5977C 189.747,14.4969 193.475,14.3961 197.204,14.2952L 196.645,14.8381L 196.644,14.4651L 196.64,14.2076L 196.64,14.2076C 196.529,12.4348 195.994,10.5183 194.793,9.20874L 194.793,9.20874C 193.637,8.18927 191.991,7.63947 190.449,7.62158L 190.449,7.62158C 188.903,7.73297 187.274,8.37085 186.181,9.47046L 186.181,9.47046C 185.105,10.8141 184.71,12.6967 184.704,14.4177L 184.704,14.4177C 184.809,16.0234 185.29,17.7676 186.391,18.9407L 186.391,18.9407C 187.512,19.8976 189.116,20.3174 190.589,20.3249L 190.589,20.3249C 191.74,20.2537 192.953,19.9824 193.899,19.3245L 193.899,19.3245C 194.637,18.7077 195.167,17.8062 195.44,16.8832L 196.94,19.1328C 196.114,19.0588 195.276,19.0356 194.469,18.843L 196.272,17.815L 196.156,17.9822 Z "/>
			<path fill="#000000" fill-opacity="1" stroke-width="0.2" stroke-linecap="round" stroke-linejoin="round" d="M 184.297,12.4149C 184.773,12.0488 185.549,12.3526 186.087,12.6206L 186.018,12.5458C 186.405,11.3994 188.126,10.9866 189.333,11.0676C 191.123,11.1876 192.91,11.3352 194.698,11.4798L 193.569,12.7385C 193.524,12.0972 193.433,11.4021 193.053,10.8716C 192.401,10.1543 191.397,9.73505 190.436,9.60059L 190.436,9.60059C 189.471,9.54614 188.438,9.7464 187.609,10.2433C 186.854,10.7973 186.311,11.7072 186.118,12.623L 186.018,12.5146L 186.139,12.5247L 186.018,12.5354L 186.097,12.6214C 186.131,11.6085 186.566,10.5477 187.266,9.81464L 187.266,9.81464C 188.131,9.06378 189.299,8.62408 190.436,8.4895L 190.436,8.4895C 191.769,8.43286 193.209,8.8327 194.267,9.64447L 194.261,9.63824C 195.042,10.3754 195.474,11.4604 195.736,12.5016C 195.768,12.7966 195.673,13.0914 195.475,13.3123C 195.277,13.5333 194.994,13.6595 194.698,13.6595C 191.816,13.9196 188.9,14.8757 186.018,14.3716C 185.528,14.3716 185.06,14.1671 184.727,13.8072C 184.395,13.4473 184.228,12.9649 184.266,12.4765L 184.297,12.4149 Z "/>
		</g>
		<rect x="208.698" y="1.4151" fill="#000000" fill-opacity="1" stroke-width="3" stroke-linejoin="round" width="2.79993" height="20.16"/>
		<path fill="#000000" fill-opacity="1" stroke-width="0.2" stroke-linecap="round" stroke-linejoin="round" d="M 210.098,20.1751C 209.681,20.9719 208.401,21.9568 207.695,21.4003C 206.936,20.8022 207.071,19.5351 207.075,18.569C 207.082,17.3323 207.117,16.0959 207.15,14.8596C 207.224,12.0901 207.312,9.32123 207.403,6.55231C 207.468,4.57794 206.583,2.09229 207.932,0.649658C 209.015,-0.26709 211.167,-0.260437 212.189,0.72406C 212.899,1.6687 212.387,3.08551 212.346,4.26691C 212.287,5.9715 212.228,7.67621 212.168,9.38086C 212.106,11.1096 212.043,12.8382 211.98,14.5669C 211.919,16.2086 211.856,17.8502 211.794,19.4919C 211.766,20.2364 211.933,21.0351 211.645,21.7222C 211.065,22.0756 210.287,21.7358 209.609,21.7123C 209.262,21.7003 208.639,21.7787 208.607,21.4012C 208.747,22.3436 210.51,21.5813 211.462,21.5393C 211.206,15.1201 210.934,8.70142 210.628,2.28424C 210.321,2.315 210.013,2.34888 209.683,2.4007C 209.854,6.27325 210.034,10.1456 210.234,14.0167C 210.299,15.2565 210.366,16.4961 210.431,17.7358C 210.474,18.5554 210.678,19.5948 210.098,20.1751 Z "/>
		<path fill="#000000" fill-opacity="1" stroke-width="3" stroke-linejoin="round" d="M 215.138,14.2951C 215.138,11.6176 215.875,9.63281 217.351,8.34076C 218.585,7.27032 220.09,6.73511 221.866,6.73511C 223.838,6.73511 225.449,7.38696 226.701,8.69073C 227.952,9.99445 228.578,11.7941 228.578,14.0895C 228.578,15.9532 228.301,17.4182 227.746,18.4842C 227.192,19.5502 226.386,20.3786 225.329,20.9692C 224.272,21.5598 223.118,21.8552 221.866,21.8552C 219.857,21.8552 218.233,21.2061 216.995,19.9082C 215.757,18.6104 215.138,16.7393 215.138,14.2951 Z M 217.658,14.2908C 217.658,16.0699 218.057,17.4021 218.854,18.2873C 219.652,19.1725 220.656,19.6152 221.866,19.6152C 223.065,19.6152 224.063,19.1703 224.861,18.2808C 225.659,17.3912 226.058,16.0349 226.058,14.212C 226.058,12.4911 225.657,11.1882 224.854,10.3029C 224.052,9.41772 223.056,8.9751 221.866,8.9751C 220.656,8.9751 219.652,9.41553 218.854,10.2964C 218.057,11.1772 217.658,12.5086 217.658,14.2908 Z "/>
		<g>
			<path fill="#000000" fill-opacity="1" stroke-width="0.2" stroke-linecap="round" stroke-linejoin="round" d="M 216.875,14.3814C 216.619,14.9314 215.529,14.6763 215.057,14.2951L 215.057,14.2951C 213.252,12.692 214.572,8.82831 216.326,7.15894C 217.87,5.99493 219.899,5.35083 221.866,5.33374L 221.866,5.33374C 223.94,5.48615 226.103,6.38361 227.57,7.85626L 227.57,7.85626C 228.94,9.5542 229.563,11.9081 229.563,14.0895L 229.563,14.0895C 229.441,15.7162 229.206,17.4044 228.469,18.8596C 227.791,19.9683 226.795,20.929 225.661,21.5625C 224.474,22.0799 223.161,22.3645 221.866,22.3962L 221.866,22.3962C 220.009,22.252 218.059,21.4673 216.753,20.1386C 215.498,18.5432 215.026,16.3252 215.037,14.2951L 215.057,14.0322L 215.058,14.2951L 215.058,14.2951C 215.202,16.246 215.792,18.3528 217.119,19.7902L 217.119,19.7902C 218.385,20.8903 220.189,21.4639 221.866,21.4606L 221.866,21.4606C 222.974,21.3453 224.082,21.0186 225.064,20.4941L 225.064,20.4941C 225.927,19.9171 226.666,19.0928 227.134,18.1658L 227.134,18.1658C 227.653,16.8961 227.706,15.4612 227.7,14.0895L 227.7,14.0895C 227.568,12.4405 227.031,10.6663 225.891,9.46826L 225.891,9.46826C 224.811,8.5484 223.285,8.07208 221.866,8.08441L 221.866,8.08441C 220.613,8.19629 219.314,8.68304 218.374,9.51898L 218.379,9.51434C 217.27,10.7608 217.304,12.6772 216.897,14.2951L 216.875,14.3814 Z "/>
			<path fill="#000000" fill-opacity="1" stroke-width="0.2" stroke-linecap="round" stroke-linejoin="round" d="M 215.926,14.2138C 216.238,13.6959 217.219,13.9808 217.738,14.2908L 217.738,14.2908C 218.825,14.8914 219.324,16.2082 220.02,17.2366L 220.02,17.2366C 220.472,17.7581 221.162,18.1286 221.866,18.2142L 221.866,18.2142C 222.605,18.2368 223.398,17.9547 223.956,17.469L 223.956,17.469C 224.739,16.6282 224.981,15.3564 225.085,14.212L 225.085,14.212C 225.123,13.045 224.974,11.7564 224.31,10.7961C 223.707,10.102 222.78,9.61945 221.866,9.5163L 221.866,9.5163C 220.888,9.49847 219.844,9.88013 219.111,10.5286L 219.111,10.5286C 218.215,11.5159 217.874,12.9632 217.758,14.2908L 217.753,14.4638L 217.737,14.2908L 217.737,14.2908C 217.69,12.8804 217.904,11.3255 218.718,10.1727L 218.718,10.1727C 219.497,9.29224 220.697,8.70245 221.866,8.58063L 221.866,8.58063C 223.093,8.56927 224.39,9.07733 225.302,9.89752L 225.302,9.89752C 226.326,11.0429 226.787,12.6817 226.922,14.212L 226.922,14.212C 226.971,15.8704 226.671,17.6887 225.706,19.0386L 225.706,19.0386C 224.753,20.1066 223.291,20.8255 221.866,20.9639L 221.866,20.9639C 220.372,20.9676 218.792,20.345 217.69,19.3365L 217.69,19.3365C 216.517,17.9915 215.451,16.0176 215.901,14.2908L 215.926,14.2138 Z "/>
		</g>
		<path fill="#000000" fill-opacity="1" stroke-width="3" stroke-linejoin="round" d="M 245.658,14.5007L 248.458,15.1701C 247.912,17.343 246.932,19.0004 245.518,20.1423C 244.103,21.2842 242.373,21.8552 240.329,21.8552C 238.211,21.8552 236.49,21.4155 235.164,20.5361C 233.839,19.6567 232.829,18.3835 232.137,16.7167C 231.444,15.0498 231.098,13.2597 231.098,11.3464C 231.098,9.25806 231.483,7.43732 232.255,5.88422C 233.026,4.33105 234.124,3.15131 235.547,2.34479C 236.97,1.53833 238.536,1.13507 240.246,1.13507C 242.182,1.13507 243.812,1.64404 245.135,2.66205C 246.458,3.67993 247.378,5.11053 247.898,6.95386L 245.098,7.57074C 244.666,6.10944 244.038,5.04492 243.214,4.37695C 242.39,3.70905 241.355,3.37506 240.11,3.37506C 238.675,3.37506 237.476,3.74554 236.514,4.48633C 235.551,5.22723 234.875,6.22174 234.484,7.47015C 234.093,8.71844 233.898,10.0047 233.898,11.3289C 233.898,13.041 234.135,14.5342 234.609,15.8088C 235.083,17.0834 235.819,18.0364 236.818,18.6679C 237.817,19.2994 238.9,19.6152 240.066,19.6152C 241.481,19.6152 242.68,19.1856 243.663,18.3267C 244.646,17.4677 245.31,16.1924 245.658,14.5007 Z "/>
		<path fill="#000000" fill-opacity="1" stroke-width="0.2" stroke-linecap="round" stroke-linejoin="round" d="M 247.3,15.0889C 247.093,15.567 246.838,16.4048 246.326,16.3105C 245.679,16.1913 245.753,15.1187 245.676,14.4224C 246.662,14.1502 247.7,14.0467 248.722,14.0641C 249.017,14.1348 249.272,14.3207 249.43,14.5805C 249.588,14.8403 249.635,15.1523 249.561,15.447C 249.387,17.6671 248.207,19.9321 246.536,21.4035C 244.779,22.6865 242.503,23.3632 240.329,23.4148L 240.329,23.4148C 238.262,23.3333 236.107,22.8539 234.348,21.7671C 232.819,20.6317 231.607,18.9985 230.848,17.2524L 230.848,17.2524C 230.204,15.3591 229.856,13.3452 229.795,11.3464L 229.795,11.3464C 229.876,9.29633 230.296,7.20166 231.176,5.34833C 232.073,3.7442 233.417,2.31256 234.996,1.37164L 234.996,1.37164C 236.603,0.560486 238.445,0.127991 240.246,0.103333L 240.246,0.103333C 242.162,0.198669 244.154,0.792053 245.707,1.91791L 245.707,1.91791C 247.135,3.15619 248.17,4.91449 248.712,6.72443C 248.775,6.94867 248.743,7.1889 248.624,7.38873C 248.504,7.58856 248.307,7.73016 248.08,7.78027L 245.269,8.34692C 244.861,8.43671 244.453,8.19611 244.335,7.7959C 243.994,6.76373 243.549,5.68579 242.756,4.94196L 242.756,4.94196C 242.018,4.37347 241.04,4.09302 240.11,4.04254L 240.11,4.04254C 238.99,4.05737 237.809,4.33734 236.879,4.96063L 236.879,4.96063C 236.028,5.64117 235.372,6.60834 234.992,7.62915L 234.992,7.62915C 234.641,8.83008 234.429,10.0797 234.359,11.3289L 234.359,11.3289C 234.384,12.7919 234.555,14.2719 234.964,15.6767L 234.964,15.6767C 235.374,16.7313 236.069,17.74 236.985,18.4036L 236.985,18.4036C 237.903,18.9653 238.992,19.3074 240.066,19.3644L 240.066,19.3644C 241.29,19.3401 242.569,18.9302 243.544,18.1911L 243.544,18.1911C 244.575,17.2324 245.211,15.8442 245.681,14.403L 246.219,14.542L 245.579,14.4847C 245.278,15.8846 244.677,17.3163 243.666,18.331L 243.666,18.331C 242.679,19.1505 241.348,19.6226 240.066,19.6968L 240.066,19.6968C 238.917,19.6796 237.741,19.3558 236.739,18.7934L 236.739,18.7934C 235.704,18.103 234.896,17.0266 234.402,15.8855L 234.402,15.8855C 233.915,14.4216 233.674,12.8694 233.589,11.3289L 233.589,11.3289C 233.613,9.99292 233.79,8.65088 234.117,7.35516L 234.117,7.35516C 234.52,6.13226 235.261,4.96704 236.235,4.12476L 236.235,4.12476C 237.336,3.32495 238.752,2.91376 240.11,2.84406L 240.11,2.84406C 241.323,2.86383 242.6,3.21143 243.589,3.91406L 243.589,3.91406C 244.617,4.80499 245.263,6.10736 245.74,7.3811L 244.954,6.91705L 246.334,6.58453L 247.742,6.24554L 247.199,7.15045C 246.703,5.69464 245.829,4.2807 244.63,3.31732L 244.63,3.31732C 243.367,2.47241 241.766,2.08234 240.246,2.06421L 240.246,2.06421C 238.796,2.13861 237.323,2.53448 236.052,3.237L 236.052,3.237C 234.876,4 233.897,5.13434 233.26,6.3833L 233.26,6.3833C 232.596,7.92993 232.334,9.66333 232.331,11.3464L 232.331,11.3464C 232.443,12.998 232.786,14.6551 233.377,16.2014L 233.377,16.2014C 233.963,17.4216 234.844,18.5695 235.961,19.3344L 235.961,19.3344C 237.26,20.0679 238.838,20.298 240.329,20.3033L 240.329,20.3033C 241.79,20.2161 243.316,19.7444 244.471,18.8459L 244.471,18.8459C 245.613,17.778 246.33,16.2478 246.733,14.7372L 248.044,16.8995C 247.108,16.6897 246.159,16.5157 245.249,16.2116L 247.381,14.8543L 247.364,14.9078L 247.3,15.0889 Z "/>
		<path fill="#000000" fill-opacity="1" stroke-width="3" stroke-linejoin="round" d="M 259.938,21.5751L 259.938,1.4151L 273.378,1.4151L 273.378,3.65509L 262.738,3.65509L 262.738,10.0952L 271.698,10.0952L 271.698,12.3351L 262.738,12.3351L 262.738,21.5751L 259.938,21.5751 Z "/>
		<path fill="#000000" fill-opacity="1" stroke-width="0.2" stroke-linecap="round" stroke-linejoin="round" d="M 261.338,20.1751C 261.279,20.8749 260.414,21.9442 259.796,21.6113C 258.202,20.7534 258.374,18.1924 258.329,16.3829C 258.243,12.9039 258.365,9.42267 258.418,5.94293C 258.446,4.09058 257.675,1.77002 258.931,0.408936C 259.48,-0.0554199 260.336,0.0204468 261.055,0.0319214C 261.725,0.0424805 262.395,0.0529785 263.066,0.0637817C 264.233,0.0827026 265.4,0.101624 266.568,0.121033C 267.816,0.141602 269.064,0.162659 270.311,0.183655C 270.919,0.193909 271.526,0.204529 272.133,0.214844C 272.833,0.226807 273.674,0.130676 274.197,0.595764C 275.047,1.55573 275.045,3.50934 274.165,4.44257C 272.926,5.40601 271.031,4.7002 269.462,4.66895C 267.52,4.63031 265.577,4.59149 263.635,4.55255C 263.589,6.14484 263.545,7.73712 263.503,9.32959C 265.449,9.3703 267.395,9.41119 269.34,9.45215C 270.266,9.47162 271.36,9.13947 272.109,9.68414C 272.755,10.4602 272.75,11.962 272.076,12.7134C 271.25,13.2208 270.139,12.8277 269.171,12.8081C 267.143,12.767 265.115,12.726 263.087,12.6849C 263.024,15.686 263.474,18.7512 262.85,21.6872C 261.965,22.1839 259.826,22.2134 259.847,21.1755C 259.869,22.1525 261.776,21.666 262.75,21.5874C 262.734,18.4587 262.013,15.2744 262.604,12.2021C 265.414,11.4731 268.408,12.0136 271.31,11.9474C 271.294,11.4758 271.278,11.0042 271.26,10.5327C 269.331,10.5748 267.402,10.6169 265.474,10.6589C 264.411,10.6821 263.174,11.1314 262.287,10.5459C 261.632,9.78619 262.059,8.5495 262.041,7.54657C 262.013,6.0647 261.26,4.26031 262.185,3.1026C 262.89,2.53223 263.983,2.82733 264.889,2.80658C 267.379,2.74951 269.868,2.69244 272.358,2.63507L 272.356,2.62616L 272.354,2.61743L 272.352,2.60895L 272.35,2.60083L 272.348,2.59283L 272.347,2.58521L 272.345,2.57788L 272.343,2.57074L 272.341,2.5639L 272.339,2.55731L 272.326,2.51666L 272.324,2.51239L 272.322,2.5083L 272.32,2.50446L 272.318,2.50098L 272.316,2.49774L 272.314,2.49481L 272.313,2.492L 272.311,2.48956L 272.309,2.48749L 272.307,2.48553C 268.642,2.58112 264.977,2.68182 261.313,2.79034C 261.408,6.46967 261.509,10.1487 261.612,13.8279C 261.649,15.1194 261.689,16.4109 261.715,17.7028C 261.732,18.5363 261.927,19.5856 261.338,20.1751 Z "/>
		<path fill="#000000" fill-opacity="1" stroke-width="3" stroke-linejoin="round" d="M 276.738,21.5751L 276.738,7.01514L 278.978,7.01514L 278.978,8.96198C 279.508,8.05493 279.998,7.45703 280.445,7.16821C 280.893,6.87946 281.387,6.73511 281.926,6.73511C 282.705,6.73511 283.495,6.96552 284.298,7.42633L 283.493,9.6795C 282.938,9.2099 282.384,8.9751 281.83,8.9751C 281.334,8.9751 280.889,9.14063 280.494,9.47168C 280.098,9.80273 279.815,10.2629 279.643,10.852C 279.386,11.7474 279.258,12.7274 279.258,13.792L 279.258,21.5751L 276.738,21.5751 Z "/>
		<path fill="#000000" fill-opacity="1" stroke-width="0.2" stroke-linecap="round" stroke-linejoin="round" d="M 277.998,20.3151C 277.733,20.8989 277.25,21.6233 276.61,21.646C 276.053,21.6658 275.455,21.1503 275.294,20.6172C 274.483,17.9349 275.172,15.012 275.251,12.211C 275.309,10.1672 274.411,7.57959 275.826,6.104C 276.834,5.22852 278.872,5.23315 279.83,6.16266C 280.433,6.88068 280.133,8.02448 280.111,8.96198L 278,8.38971C 278.526,7.61157 279.104,6.82037 279.879,6.28986C 280.506,5.9668 281.221,5.77753 281.926,5.74896L 281.926,5.74896C 282.91,5.81525 283.877,6.18091 284.742,6.6535C 285.116,6.86835 285.282,7.32013 285.137,7.72626L 284.714,8.7818L 284.246,9.94873C 284.158,10.196 283.954,10.3843 283.7,10.4524C 283.446,10.5205 283.176,10.4598 282.975,10.29C 282.644,10.0181 282.256,9.7536 281.83,9.70502L 281.83,9.70502C 281.514,9.70001 281.186,9.80902 280.926,9.98853C 280.604,10.2517 280.388,10.6387 280.229,11.0234L 280.23,11.0204C 279.97,11.9209 279.821,12.8569 279.755,13.792L 279.755,13.792C 279.659,16.4339 280.43,19.2813 279.397,21.7148C 278.883,22.0311 278.189,21.7307 277.585,21.7098C 277.256,21.6984 276.635,21.7302 276.647,21.4012C 276.684,22.2639 278.37,21.5884 279.233,21.5505C 279.13,18.9642 279.021,16.378 278.911,13.792L 278.911,13.792C 278.901,12.7646 278.986,11.7292 279.191,10.7202C 279.385,10.1114 279.69,9.50488 280.148,9.05902L 280.148,9.05902C 280.614,8.67303 281.227,8.42853 281.83,8.3764L 281.83,8.3764C 282.577,8.39209 283.313,8.74091 283.929,9.16425L 282.857,9.45233L 283.012,8.95319L 283.568,7.16571L 283.911,8.09821C 283.29,7.82062 282.607,7.60284 281.926,7.61395L 281.926,7.61395C 281.586,7.65771 281.247,7.77753 280.957,7.96167L 280.957,7.96167C 280.482,8.36554 280.183,8.94525 279.877,9.4881C 279.639,9.8941 279.159,10.0905 278.705,9.96747C 278.251,9.84442 277.936,9.43237 277.936,8.96198C 277.91,8.68628 277.867,8.4118 277.858,8.13507L 277.955,8.23267C 278.083,10.8878 278.22,13.5425 278.373,16.1965C 278.452,17.5728 278.972,19.3403 277.998,20.3151 Z "/>
		<path fill="#000000" fill-opacity="1" stroke-width="3" stroke-linejoin="round" d="M 295.218,19.6152C 294.27,20.4348 293.387,21.0129 292.571,21.3498C 291.754,21.6867 290.878,21.8552 289.941,21.8552C 288.398,21.8552 287.212,21.4665 286.382,20.6892C 285.552,19.9119 285.138,18.918 285.138,17.7076C 285.138,16.9988 285.294,16.3514 285.608,15.7651C 285.922,15.1789 286.332,14.7086 286.839,14.3542C 287.347,13.9998 287.919,13.7307 288.554,13.5469C 289.021,13.4216 289.727,13.2991 290.672,13.1795C 292.597,12.9433 294.015,12.6618 294.924,12.3351C 294.933,12.0201 294.938,11.8203 294.938,11.7358C 294.938,10.7995 294.714,10.1389 294.268,9.75391C 293.664,9.23468 292.768,8.9751 291.578,8.9751C 290.463,8.9751 289.642,9.16034 289.112,9.53076C 288.583,9.90112 288.191,10.5559 287.938,11.4951L 285.418,11.2151C 285.639,10.1826 286.004,9.34918 286.511,8.71478C 287.019,8.08038 287.752,7.59186 288.712,7.24921C 289.672,6.90649 290.784,6.73511 292.05,6.73511C 293.304,6.73511 294.324,6.88312 295.108,7.1792C 295.893,7.47528 296.47,7.84784 296.839,8.29694C 297.208,8.74615 297.466,9.31348 297.615,9.99884C 297.697,10.4247 297.738,11.1597 297.738,12.2039L 297.738,15.332C 297.738,17.5137 297.794,18.9435 297.906,19.6216C 298.018,20.2998 298.242,20.9509 298.578,21.5751L 296.058,21.5751C 295.623,21.0151 295.343,20.3618 295.218,19.6152 Z M 294.938,14.5751C 294.068,14.8989 292.765,15.173 291.026,15.3976C 290.041,15.5289 289.343,15.6747 288.935,15.8351C 288.527,15.9955 288.212,16.2318 287.99,16.5439C 287.768,16.856 287.658,17.2016 287.658,17.5807C 287.658,18.1611 287.899,18.6453 288.382,19.0332C 288.864,19.4211 289.571,19.6152 290.501,19.6152C 291.423,19.6152 292.243,19.416 292.96,19.0179C 293.678,18.6198 294.204,18.1086 294.539,17.4844C 294.796,17.0032 294.924,16.2945 294.924,15.3582L 294.938,14.5751 Z "/>
		<g>
			<path fill="#000000" fill-opacity="1" stroke-width="0.2" stroke-linecap="round" stroke-linejoin="round" d="M 296.95,19.4236C 296.838,20.0208 295.61,20.0117 295.138,19.6284L 295.27,19.676C 294.988,20.8772 294.189,22.0679 293.125,22.6926L 293.125,22.6926C 292.13,23.1448 291.033,23.4277 289.941,23.4773L 289.941,23.4773C 288.304,23.4234 286.552,22.9023 285.307,21.8372C 284.289,20.7558 283.673,19.1924 283.632,17.7076L 283.632,17.7076C 283.698,16.8034 283.93,15.8948 284.32,15.0761L 284.32,15.0761C 284.771,14.3586 285.355,13.7072 286.027,13.1914L 286.027,13.1914C 286.697,12.7825 287.424,12.4589 288.198,12.2198C 288.962,12.0737 289.733,11.9619 290.511,11.8655C 291.855,11.7138 293.207,11.5432 294.512,11.1865L 293.705,12.3013L 293.724,11.9225L 293.732,11.7358L 293.732,11.7358C 293.721,11.3745 293.735,10.9753 293.515,10.6275L 293.516,10.6287C 292.998,10.1982 292.248,10.1176 291.578,10.0596L 291.578,10.0596C 290.943,10.0696 290.255,10.0626 289.698,10.368C 289.263,10.6811 289.052,11.2429 288.869,11.7468C 288.745,12.2062 288.304,12.5065 287.831,12.4539L 286.543,12.2788L 285.318,12.112C 285.064,12.0838 284.835,11.9496 284.685,11.7426C 284.536,11.5356 284.482,11.2751 284.535,11.0257C 284.822,10.0237 285.25,9.03882 285.86,8.19342C 286.55,7.43146 287.497,6.90265 288.453,6.52545C 289.619,6.20343 290.841,6.06451 292.05,6.0506L 292.05,6.0506C 293.155,6.11108 294.272,6.26202 295.323,6.61084L 295.323,6.61084C 296.037,6.93793 296.755,7.34882 297.268,7.94427L 297.268,7.94427C 297.666,8.52863 297.944,9.20392 298.115,9.90308C 298.206,10.665 298.192,11.4365 298.191,12.2039L 298.123,14.9431L 298.113,15.332L 298.113,15.332C 298.1,16.7473 298.048,18.1677 298.171,19.5777C 298.29,20.2292 298.494,20.8698 298.769,21.4724C 298.805,21.5396 298.803,21.6209 298.764,21.6865C 298.725,21.7521 298.654,21.7922 298.578,21.7922L 297.466,21.7645L 296.058,21.7293C 296.01,21.7293 295.965,21.7073 295.936,21.6697C 295.539,21.0544 295.263,20.3493 295.118,19.6318L 295.283,19.6912L 294.962,19.9399L 295.27,19.6754L 295.139,19.6284C 295.317,20.3252 295.621,21.0045 296.058,21.5971L 297.825,21.5497L 298.578,21.5295L 298.537,21.5967C 298.216,20.9786 297.967,20.3163 297.806,19.6382L 297.806,19.6382C 297.606,18.2136 297.582,16.7692 297.521,15.332L 297.482,13.8725L 297.437,12.2039L 297.437,12.2039C 297.402,11.4899 297.383,10.7712 297.262,10.0666L 297.264,10.0751C 297.102,9.53564 296.862,9.00568 296.522,8.55731L 296.522,8.55731C 296.098,8.11499 295.513,7.84082 294.944,7.61517L 294.944,7.61517C 294.008,7.35767 293.021,7.28741 292.05,7.28448L 292.05,7.28448C 290.994,7.35107 289.931,7.51862 288.927,7.85248L 288.927,7.85248C 288.238,8.16644 287.546,8.57202 287.068,9.15997L 287.068,9.15997C 286.637,9.82977 286.365,10.6043 286.187,11.3803L 285.505,10.4331L 286.035,10.4776L 288.032,10.6452L 287.112,11.272C 287.395,10.3489 287.84,9.39209 288.586,8.77838L 288.586,8.77838C 289.454,8.22198 290.548,8.05865 291.578,7.98761L 291.578,7.98761C 292.75,8.02863 294.016,8.25446 294.963,8.94635L 294.964,8.94751C 295.68,9.64331 295.974,10.7407 296.061,11.7358L 296.063,11.9737L 296.064,12.3668C 296.051,12.836 295.751,13.2493 295.31,13.4079C 293.854,13.8901 292.338,14.179 290.825,14.4283L 290.83,14.4277C 290.182,14.5416 289.535,14.6636 288.896,14.819L 288.92,14.8123C 288.465,14.9808 288.024,15.2015 287.624,15.4771C 287.315,15.7443 287.059,16.0781 286.862,16.4356L 286.862,16.4356C 286.7,16.836 286.622,17.2758 286.615,17.7076L 286.615,17.7076C 286.671,18.3781 286.967,19.0805 287.457,19.5424L 287.457,19.5424C 288.139,20.0566 289.087,20.1777 289.941,20.1754L 289.941,20.1754C 290.609,20.1208 291.279,19.9756 291.902,19.7297L 291.902,19.7297C 292.672,19.3287 293.326,18.7363 294.067,18.2844C 294.548,17.8687 295.216,17.7447 295.814,17.9601C 296.412,18.1755 296.847,18.6968 296.952,19.3237L 296.95,19.4236 Z "/>
			<path fill="#000000" fill-opacity="1" stroke-width="0.2" stroke-linecap="round" stroke-linejoin="round" d="M 296.671,14.6478C 296.564,14.7183 296.475,14.8315 296.351,14.8594C 296.144,14.9055 295.924,14.9011 295.717,14.8611C 295.424,14.8046 295.155,14.6579 294.868,14.574L 294.962,14.6401C 294.983,15.1943 294.898,15.8784 294.468,16.2294C 293.613,16.9285 292.318,16.7929 291.216,16.8684L 291.222,16.8677C 290.618,16.9139 290.01,16.9441 289.414,17.0544L 289.414,17.0544C 289.26,17.0958 289.105,17.1509 288.976,17.2442L 288.976,17.2442C 288.885,17.3379 288.81,17.4551 288.773,17.5807L 288.773,17.5807C 288.739,17.8212 288.833,18.0906 288.99,18.2761C 289.373,18.6536 289.97,18.7542 290.501,18.8376L 290.501,18.8376C 291.237,18.8697 291.996,18.7776 292.691,18.5327L 292.691,18.5327C 293.273,18.2377 293.838,17.8411 294.222,17.314L 294.222,17.3151C 294.572,16.7366 294.671,16.029 294.755,15.3554L 294.837,14.5734L 294.973,14.6694L 294.859,14.6951L 294.965,14.6497L 294.858,14.5738L 294.919,15.3582C 294.961,16.1001 294.973,16.8814 294.715,17.5788C 294.375,18.2944 293.788,18.894 293.159,19.376L 293.159,19.376C 292.35,19.8433 291.426,20.1347 290.501,20.2658L 290.501,20.2658C 289.596,20.2913 288.613,20.1809 287.841,19.7056L 287.841,19.7056C 287.195,19.2095 286.73,18.3896 286.635,17.5807L 286.635,17.5807C 286.644,16.9991 286.8,16.4057 287.071,15.8908L 287.071,15.8908C 287.42,15.3786 287.937,14.9764 288.481,14.6787L 288.481,14.6787C 289.24,14.3681 290.041,14.1665 290.841,13.9602C 292.008,13.6682 293.099,13.0249 294.324,12.929C 294.869,12.7263 295.478,12.8057 295.952,13.1409C 296.426,13.4761 296.704,14.024 296.694,14.6046L 296.671,14.6478 Z "/>
		</g>
		<path fill="#000000" fill-opacity="1" stroke-width="3" stroke-linejoin="round" d="M 301.378,21.5751L 301.378,7.01514L 303.898,7.01514L 303.898,9.20703C 304.341,8.4632 304.932,7.8653 305.669,7.41327C 306.407,6.96118 307.246,6.73511 308.185,6.73511C 309.235,6.73511 310.095,6.96771 310.766,7.43292C 311.437,7.89813 311.91,8.54785 312.184,9.38202C 313.345,7.61743 314.857,6.73511 316.721,6.73511C 318.179,6.73511 319.3,7.13397 320.083,7.93164C 320.866,8.72943 321.258,9.95654 321.258,11.6132L 321.258,21.5751L 318.738,21.5751L 318.738,12.5101C 318.738,11.5359 318.657,10.8345 318.497,10.4058C 318.337,9.97699 318.046,9.63135 317.626,9.3689C 317.206,9.10638 316.712,8.9751 316.143,8.9751C 315.119,8.9751 314.269,9.31128 313.593,9.98358C 312.916,10.6558 312.578,11.7328 312.578,13.2145L 312.578,21.5751L 310.057,21.5751L 310.057,12.2258C 310.057,11.1436 309.857,10.3314 309.456,9.78888C 309.055,9.24634 308.399,8.9751 307.489,8.9751C 306.798,8.9751 306.159,9.15594 305.571,9.51758C 304.983,9.87933 304.557,10.408 304.293,11.1035C 304.03,11.7991 303.898,12.8018 303.898,14.1113L 303.898,21.5751L 301.378,21.5751 Z "/>
		<path fill="#000000" fill-opacity="1" stroke-width="0.2" stroke-linecap="round" stroke-linejoin="round" d="M 302.638,20.3151C 302.851,20.898 301.929,21.7568 301.321,21.6321C 300.87,21.5396 300.831,20.8435 300.683,20.4077C 300.435,19.6758 300.231,18.9254 300.103,18.1634C 299.688,15.7063 299.751,13.1878 299.755,10.696C 299.758,9.08563 299.165,7.07788 300.253,5.89056C 301.422,4.82343 303.849,4.82538 305.002,5.91016C 305.742,6.73584 305.442,8.09869 305.434,9.20703L 302.578,8.42041C 303.195,7.53021 303.989,6.74115 304.884,6.13068L 304.884,6.13068C 305.88,5.58099 307.049,5.3244 308.185,5.26569L 308.185,5.26569C 309.362,5.34735 310.59,5.61859 311.583,6.25555L 311.583,6.25555C 312.456,6.92963 313.142,7.90576 313.513,8.94513L 311.015,8.61304C 312.32,6.86597 314.543,5.52075 316.721,5.41309L 316.721,5.41309C 318.242,5.48517 319.871,6.00775 320.989,7.04218L 320.989,7.04218C 322.023,8.26569 322.442,10.0118 322.47,11.6132L 322.47,11.6132C 322.454,12.8824 322.438,14.1516 322.421,15.4208C 322.401,16.9859 322.38,18.551 322.359,20.1161C 322.349,20.8631 322.506,21.7693 322.013,22.3303C 321.013,23.2146 318.987,23.2124 318.008,22.3042C 317.484,21.657 317.732,20.6516 317.743,19.8183C 317.764,18.2592 317.784,16.7001 317.805,15.1411C 317.816,14.2641 317.828,13.387 317.84,12.5101L 317.84,12.5101C 317.821,11.908 317.834,11.2932 317.686,10.7093C 317.588,10.4598 317.397,10.241 317.178,10.0861L 317.178,10.0861C 316.871,9.90106 316.5,9.82599 316.143,9.79785L 316.143,9.79785C 315.432,9.81464 314.68,10.0713 314.143,10.5376L 314.143,10.5376C 313.512,11.2274 313.35,12.2807 313.307,13.2145L 313.307,13.2145C 313.287,14.6553 313.267,16.0963 313.247,17.5372C 313.237,18.3037 313.226,19.0703 313.215,19.8367C 313.205,20.5622 313.454,21.4328 313.005,22.0029C 312.15,22.7205 310.492,22.717 309.656,21.9764C 309.22,21.3571 309.513,20.4653 309.524,19.7078C 309.541,18.4849 309.558,17.262 309.575,16.0392C 309.593,14.7681 309.612,13.4969 309.63,12.2258L 309.63,12.2258C 309.605,11.4734 309.542,10.6584 309.142,10.0206L 309.142,10.0206C 308.764,9.55865 308.085,9.36456 307.489,9.33185L 307.489,9.33185C 306.888,9.362 306.28,9.52362 305.742,9.79572C 305.229,10.1292 304.816,10.6484 304.57,11.2084C 304.275,12.1408 304.188,13.1343 304.148,14.1113L 304.148,14.1113C 304.111,16.6321 304.608,19.2275 303.995,21.6729C 303.181,22.1199 301.273,21.9494 301.287,20.9853C 301.302,21.8882 303.034,21.7488 303.925,21.6028C 304.022,19.1072 303.857,16.6085 303.817,14.1113L 303.817,14.1113C 303.828,13.0866 303.894,12.0438 304.172,11.0574L 304.172,11.0574C 304.438,10.3984 304.902,9.78467 305.485,9.3786L 305.485,9.3786C 306.097,9.04419 306.795,8.83643 307.489,8.77936L 307.489,8.77936C 308.263,8.79742 309.132,9.06909 309.642,9.65137L 309.642,9.65137C 310.138,10.3881 310.272,11.3394 310.33,12.2258L 310.33,12.2258C 310.38,15.2012 310.429,18.1768 310.48,21.1523C 311.025,21.1394 311.57,21.1259 312.114,21.1116C 312.07,18.4792 312.025,15.8469 311.979,13.2145L 311.979,13.2145C 311.998,11.9245 312.293,10.4999 313.131,9.51935L 313.131,9.51935C 313.928,8.78076 315.059,8.33612 316.143,8.27539L 316.143,8.27539C 316.785,8.30524 317.449,8.44159 318.01,8.75415C 318.519,9.08893 318.953,9.58569 319.197,10.1439L 319.197,10.1439C 319.424,10.9067 319.469,11.7158 319.519,12.5101L 319.519,12.5101C 319.567,15.2224 319.616,17.9346 319.666,20.6467C 319.873,20.6346 320.081,20.6213 320.288,20.6059C 320.235,17.6083 320.181,14.6108 320.126,11.6132L 320.126,11.6132C 320.078,10.6205 319.897,9.50562 319.229,8.76959L 319.229,8.76959C 318.566,8.19775 317.596,8.00458 316.721,7.99121L 316.721,7.99121C 315.384,8.10016 314.076,9.02228 313.309,10.122C 313.025,10.5538 312.519,10.7849 312.006,10.7167C 311.494,10.6487 311.066,10.2934 310.905,9.80243C 310.716,9.32477 310.394,8.87152 309.976,8.57275L 309.976,8.57275C 309.449,8.26202 308.797,8.18915 308.185,8.1673L 308.185,8.1673C 307.582,8.21802 306.96,8.36139 306.441,8.67206L 306.441,8.67206C 305.955,9.02704 305.528,9.47925 305.202,9.9848C 304.852,10.572 304.153,10.853 303.494,10.6714C 302.835,10.49 302.379,9.89056 302.379,9.20703C 302.36,8.88507 302.437,8.52716 302.638,8.27515L 302.976,8.61383C 303.03,11.1125 303.087,13.611 303.136,16.1097C 303.164,17.521 303.636,19.3169 302.638,20.3151 Z "/>
		<path fill="#000000" fill-opacity="1" stroke-width="3" stroke-linejoin="round" d="M 335.227,17.0952L 337.699,17.3751C 337.288,18.7955 336.526,19.8973 335.413,20.6804C 334.3,21.4636 332.879,21.8552 331.149,21.8552C 328.974,21.8552 327.248,21.2032 325.972,19.8995C 324.696,18.5957 324.057,16.7685 324.057,14.4177C 324.057,11.9851 324.702,10.0966 325.991,8.75195C 327.281,7.40741 328.953,6.73511 331.009,6.73511C 332.999,6.73511 334.624,7.38843 335.885,8.69513C 337.147,10.0018 337.778,11.8393 337.778,14.2076C 337.778,14.3505 337.773,14.5663 337.764,14.8552L 326.578,14.8552C 326.674,16.3922 327.149,17.5698 328.002,18.3879C 328.855,19.2061 329.92,19.6152 331.198,19.6152C 332.148,19.6152 332.959,19.4146 333.63,19.0136C 334.301,18.6125 334.833,17.9731 335.227,17.0952 Z M 326.578,12.6152L 335.258,12.6152C 335.141,11.5476 334.808,10.7485 334.26,10.2176C 333.423,9.38934 332.335,8.9751 330.996,8.9751C 329.789,8.9751 328.772,9.30542 327.947,9.96606C 327.121,10.6267 326.665,11.5097 326.578,12.6152 Z "/>
		<g>
			<path fill="#000000" fill-opacity="1" stroke-width="0.2" stroke-linecap="round" stroke-linejoin="round" d="M 336.716,17.9822C 336.439,18.3121 335.981,18.9323 335.63,18.6824C 335.171,18.356 335.245,17.6177 335.236,17.0151C 336.023,16.5422 336.938,16.2878 337.841,16.1187C 338.211,16.1606 338.544,16.3636 338.751,16.6736C 338.958,16.9836 339.017,17.3689 338.913,17.7268C 338.806,19.3865 337.667,20.9959 336.345,22.0044C 334.825,22.9563 332.943,23.3803 331.149,23.3997L 331.149,23.3997C 328.926,23.2737 326.57,22.4279 324.957,20.8923C 323.491,19.1498 322.809,16.6945 322.779,14.4177L 322.779,14.4177C 322.907,12.1284 323.65,9.68121 325.176,7.97003L 325.176,7.97003C 326.72,6.57428 328.928,5.78314 331.009,5.742L 331.009,5.742C 332.998,5.86987 335.08,6.70416 336.504,8.09839L 336.504,8.09839C 337.865,9.75055 338.465,12.0666 338.488,14.2076L 338.478,14.491L 338.458,14.8762C 338.447,15.2512 338.14,15.5493 337.764,15.5493C 334.036,15.4562 330.307,15.3627 326.578,15.2692L 326.991,14.8293C 327.073,16.0098 327.437,17.273 328.22,18.1597L 328.22,18.1597C 329.01,18.8867 330.127,19.3152 331.198,19.3871L 331.198,19.3871C 331.999,19.3643 332.833,19.238 333.546,18.8726L 333.546,18.8726C 334.229,18.4473 334.744,17.7575 335.135,17.054L 335.238,16.9952L 335.635,17.0503L 335.154,17.0625C 334.792,17.8027 334.3,18.5319 333.624,19.0039L 333.624,19.0039C 332.899,19.4258 332.034,19.6041 331.198,19.6724L 331.198,19.6724C 330.03,19.6558 328.797,19.242 327.896,18.4977L 327.896,18.4977C 326.972,17.5579 326.481,16.1794 326.321,14.8712C 326.316,14.8003 326.341,14.7307 326.39,14.6789C 326.439,14.6271 326.506,14.5977 326.578,14.5977C 330.307,14.4969 334.036,14.3961 337.764,14.2952L 337.205,14.8381L 337.204,14.4651L 337.2,14.2076L 337.2,14.2076C 337.089,12.4348 336.554,10.5183 335.353,9.20874L 335.353,9.20874C 334.197,8.18927 332.551,7.63947 331.009,7.62158L 331.009,7.62158C 329.463,7.73297 327.834,8.37085 326.741,9.47046L 326.741,9.47046C 325.665,10.8141 325.27,12.6967 325.264,14.4177L 325.264,14.4177C 325.369,16.0234 325.85,17.7676 326.951,18.9407L 326.951,18.9407C 328.072,19.8976 329.676,20.3174 331.149,20.3249L 331.149,20.3249C 332.3,20.2537 333.513,19.9824 334.458,19.3245L 334.458,19.3245C 335.197,18.7077 335.727,17.8062 336,16.8832L 337.5,19.1328C 336.674,19.0588 335.836,19.0356 335.029,18.843L 336.832,17.815L 336.716,17.9822 Z "/>
			<path fill="#000000" fill-opacity="1" stroke-width="0.2" stroke-linecap="round" stroke-linejoin="round" d="M 324.857,12.4149C 325.333,12.0488 326.109,12.3526 326.647,12.6206L 326.578,12.5458C 326.965,11.3994 328.686,10.9866 329.893,11.0676C 331.683,11.1876 333.47,11.3352 335.258,11.4798L 334.129,12.7385C 334.084,12.0972 333.993,11.4021 333.613,10.8716C 332.96,10.1543 331.957,9.73505 330.996,9.60059L 330.996,9.60059C 330.031,9.54614 328.998,9.7464 328.169,10.2433C 327.414,10.7973 326.871,11.7072 326.678,12.623L 326.578,12.5146L 326.699,12.5247L 326.578,12.5354L 326.657,12.6214C 326.691,11.6085 327.126,10.5477 327.826,9.81464L 327.826,9.81464C 328.691,9.06378 329.859,8.62408 330.996,8.4895L 330.996,8.4895C 332.329,8.43286 333.769,8.8327 334.827,9.64447L 334.821,9.63824C 335.601,10.3754 336.034,11.4604 336.296,12.5016C 336.328,12.7966 336.233,13.0914 336.035,13.3123C 335.837,13.5333 335.554,13.6595 335.258,13.6595C 332.376,13.9196 329.46,14.8757 326.578,14.3716C 326.088,14.3716 325.62,14.1671 325.287,13.8072C 324.955,13.4473 324.788,12.9649 324.826,12.4765L 324.857,12.4149 Z "/>
		</g>
		<path fill="#000000" fill-opacity="1" stroke-width="3" stroke-linejoin="round" d="M 343.124,21.5751L 338.758,7.01514L 341.378,7.01514L 343.841,15.4326L 344.589,18.5432C 344.621,18.3887 344.868,17.3839 345.329,15.5289L 347.643,7.01514L 350.076,7.01514L 352.364,15.4982L 353.038,18.2458L 353.829,15.3976L 356.293,7.01514L 358.918,7.01514L 354.529,21.5751L 351.721,21.5751L 349.45,12.8864L 348.838,10.3751L 345.924,21.5751L 343.124,21.5751 Z "/>
		<path fill="#000000" fill-opacity="1" stroke-width="0.2" stroke-linecap="round" stroke-linejoin="round" d="M 344.429,19.8409C 344.389,20.1599 344.772,20.5217 344.597,20.791C 344.279,21.2772 343.633,21.803 343.076,21.6397C 341.849,21.2803 341.436,19.6494 340.871,18.5027C 339.648,16.0173 338.941,13.3047 338.157,10.6477C 337.72,9.16974 336.576,7.31244 337.491,6.073C 338.503,4.82318 341.005,4.83228 342.306,5.77704C 343.568,6.89789 343.51,8.93555 343.964,10.5609C 344.384,12.062 344.803,13.5633 345.222,15.0647C 345.46,16.1164 345.697,17.168 345.934,18.2198L 343.235,18.2621C 343.494,17.242 343.762,16.2242 344.037,15.1778C 344.345,14.1028 344.652,13.0276 344.96,11.9527C 345.363,10.5432 345.767,9.13385 346.17,7.72443C 346.338,7.13947 346.44,6.44293 346.91,6.05542C 347.988,5.34174 349.742,5.32568 350.788,6.08496C 351.235,6.50928 351.321,7.20532 351.473,7.80267C 351.798,9.07404 352.122,10.3455 352.447,11.617C 352.752,12.8148 353.058,14.0125 353.37,15.2391L 353.083,15.3132L 353.085,15.1846C 353.029,15.1655 352.908,15.1851 352.917,15.127C 352.99,14.6936 353.177,14.287 353.307,13.8671C 353.892,11.9746 354.478,10.0822 355.063,8.1897C 355.258,7.56134 355.293,6.77594 355.802,6.36011C 356.852,5.69855 358.709,5.58643 359.542,6.55109C 359.993,7.32593 359.301,8.33643 359.03,9.1911C 359.006,9.26636 358.983,9.34174 358.959,9.41699C 358.505,10.8482 358.053,12.2795 357.599,13.7107C 356.939,15.7944 356.279,17.8779 355.618,19.9614C 355.398,20.6568 355.415,21.546 354.854,22.012C 353.857,22.5777 352.366,22.6116 351.414,21.9717C 351.026,21.5039 351.025,20.8185 350.88,20.2282C 350.408,18.3098 349.937,16.3913 349.466,14.4728C 349.345,13.9802 349.224,13.4874 349.099,12.9752C 349.01,12.5483 348.919,12.1216 348.828,11.6953C 347.895,15.0283 347.256,18.4595 346.012,21.6889C 344.983,21.9764 343.162,22.0757 342.867,21.0345C 343.183,22.0283 344.905,21.6851 345.944,21.6014C 346.602,19.1035 347.17,16.5828 347.782,14.0732C 347.992,13.2093 348.203,12.3456 348.413,11.4819C 348.517,11.056 348.406,10.4213 348.839,10.2161C 349.746,10.3271 349.418,11.9517 349.646,12.8369C 350.427,15.6328 351.209,18.4285 351.992,21.2239C 352.739,21.2088 353.486,21.1933 354.234,21.1772C 355.506,16.6744 356.776,12.1707 358.041,7.6662C 357.632,7.67975 357.222,7.69427 356.813,7.7099C 356.088,10.3442 355.365,12.9786 354.638,15.6287C 354.303,16.8713 354.309,19.062 353.024,19.1357C 351.775,19.145 351.762,16.9429 351.456,15.732C 350.719,13.1879 349.982,10.6438 349.245,8.10004C 348.998,8.11273 348.751,8.12622 348.504,8.14105C 347.855,10.7149 347.206,13.289 346.559,15.8633L 346.566,15.8362L 346.073,17.9864L 345.89,18.813C 345.763,19.4216 345.232,19.8611 344.61,19.8708C 343.989,19.8806 343.444,19.4579 343.298,18.8537C 343.034,17.832 342.77,16.8103 342.505,15.7886C 342.022,14.2499 341.539,12.7115 341.055,11.1731C 340.758,10.2285 340.141,9.21094 340.44,8.26709L 340.88,8.59467C 342.089,12.3274 343.627,15.9763 344.429,19.8409 Z "/>
		<path fill="#000000" fill-opacity="1" stroke-width="3" stroke-linejoin="round" d="M 359.898,14.2951C 359.898,11.6176 360.635,9.63281 362.111,8.34076C 363.345,7.27032 364.85,6.73511 366.626,6.73511C 368.598,6.73511 370.209,7.38696 371.461,8.69073C 372.712,9.99445 373.338,11.7941 373.338,14.0895C 373.338,15.9532 373.06,17.4182 372.506,18.4842C 371.952,19.5502 371.146,20.3786 370.089,20.9692C 369.032,21.5598 367.878,21.8552 366.626,21.8552C 364.617,21.8552 362.993,21.2061 361.755,19.9082C 360.517,18.6104 359.898,16.7393 359.898,14.2951 Z M 362.417,14.2908C 362.417,16.0699 362.816,17.4021 363.614,18.2873C 364.412,19.1725 365.416,19.6152 366.626,19.6152C 367.825,19.6152 368.823,19.1703 369.621,18.2808C 370.419,17.3912 370.818,16.0349 370.818,14.212C 370.818,12.4911 370.417,11.1882 369.614,10.3029C 368.812,9.41772 367.816,8.9751 366.626,8.9751C 365.416,8.9751 364.412,9.41553 363.614,10.2964C 362.816,11.1772 362.417,12.5086 362.417,14.2908 Z "/>
		<g>
			<path fill="#000000" fill-opacity="1" stroke-width="0.2" stroke-linecap="round" stroke-linejoin="round" d="M 361.635,14.3814C 361.379,14.9314 360.289,14.6763 359.817,14.2951L 359.817,14.2951C 358.012,12.692 359.332,8.82831 361.086,7.15894C 362.63,5.99493 364.659,5.35083 366.626,5.33374L 366.626,5.33374C 368.7,5.48615 370.863,6.38361 372.33,7.85626L 372.33,7.85626C 373.7,9.5542 374.322,11.9081 374.323,14.0895L 374.323,14.0895C 374.2,15.7162 373.966,17.4044 373.228,18.8596C 372.551,19.9683 371.555,20.929 370.421,21.5625C 369.234,22.0799 367.921,22.3645 366.626,22.3962L 366.626,22.3962C 364.769,22.252 362.819,21.4673 361.513,20.1386C 360.258,18.5432 359.786,16.3252 359.797,14.2951L 359.816,14.0322L 359.818,14.2951L 359.818,14.2951C 359.962,16.246 360.551,18.3528 361.878,19.7902L 361.878,19.7902C 363.145,20.8903 364.949,21.4639 366.626,21.4606L 366.626,21.4606C 367.734,21.3453 368.842,21.0186 369.824,20.4941L 369.824,20.4941C 370.687,19.9171 371.426,19.0928 371.894,18.1658L 371.894,18.1658C 372.413,16.8961 372.466,15.4612 372.46,14.0895L 372.46,14.0895C 372.328,12.4405 371.791,10.6663 370.651,9.46826L 370.651,9.46826C 369.571,8.5484 368.045,8.07208 366.626,8.08441L 366.626,8.08441C 365.373,8.19629 364.074,8.68304 363.133,9.51898L 363.139,9.51434C 362.03,10.7608 362.064,12.6772 361.657,14.2951L 361.635,14.3814 Z "/>
			<path fill="#000000" fill-opacity="1" stroke-width="0.2" stroke-linecap="round" stroke-linejoin="round" d="M 360.686,14.2138C 360.998,13.6959 361.979,13.9808 362.498,14.2908L 362.498,14.2908C 363.585,14.8914 364.083,16.2082 364.78,17.2366L 364.78,17.2366C 365.232,17.7581 365.922,18.1286 366.626,18.2142L 366.626,18.2142C 367.365,18.2368 368.158,17.9547 368.716,17.469L 368.716,17.469C 369.499,16.6282 369.741,15.3564 369.845,14.212L 369.845,14.212C 369.883,13.045 369.734,11.7564 369.07,10.7961C 368.467,10.102 367.54,9.61945 366.626,9.5163L 366.626,9.5163C 365.648,9.49847 364.603,9.88013 363.871,10.5286L 363.871,10.5286C 362.975,11.5159 362.634,12.9632 362.518,14.2908L 362.513,14.4638L 362.497,14.2908L 362.497,14.2908C 362.45,12.8804 362.664,11.3255 363.477,10.1727L 363.477,10.1727C 364.257,9.29224 365.456,8.70245 366.626,8.58063L 366.626,8.58063C 367.853,8.56927 369.15,9.07733 370.062,9.89752L 370.062,9.89752C 371.086,11.0429 371.547,12.6817 371.682,14.212L 371.682,14.212C 371.73,15.8704 371.431,17.6887 370.466,19.0386L 370.466,19.0386C 369.512,20.1066 368.051,20.8255 366.626,20.9639L 366.626,20.9639C 365.132,20.9676 363.552,20.345 362.45,19.3365L 362.45,19.3365C 361.277,17.9915 360.211,16.0176 360.661,14.2908L 360.686,14.2138 Z "/>
		</g>
		<path fill="#000000" fill-opacity="1" stroke-width="3" stroke-linejoin="round" d="M 376.418,21.5751L 376.418,7.01514L 378.658,7.01514L 378.658,8.96198C 379.188,8.05493 379.678,7.45703 380.125,7.16821C 380.573,6.87946 381.067,6.73511 381.606,6.73511C 382.385,6.73511 383.176,6.96552 383.978,7.42633L 383.173,9.6795C 382.618,9.2099 382.064,8.9751 381.51,8.9751C 381.014,8.9751 380.569,9.14063 380.173,9.47168C 379.778,9.80273 379.495,10.2629 379.323,10.852C 379.066,11.7474 378.938,12.7274 378.938,13.792L 378.938,21.5751L 376.418,21.5751 Z "/>
		<path fill="#000000" fill-opacity="1" stroke-width="0.2" stroke-linecap="round" stroke-linejoin="round" d="M 377.678,20.3151C 377.413,20.8989 376.93,21.6233 376.29,21.646C 375.733,21.6658 375.135,21.1503 374.974,20.6172C 374.163,17.9349 374.852,15.012 374.931,12.211C 374.989,10.1672 374.091,7.57959 375.506,6.104C 376.514,5.22852 378.552,5.23315 379.51,6.16266C 380.113,6.88068 379.813,8.02448 379.791,8.96198L 377.68,8.38971C 378.206,7.61157 378.784,6.82037 379.559,6.28986C 380.187,5.9668 380.901,5.77753 381.606,5.74896L 381.606,5.74896C 382.59,5.81525 383.557,6.18091 384.422,6.6535C 384.796,6.86835 384.962,7.32013 384.817,7.72626L 384.394,8.7818L 383.926,9.94873C 383.838,10.196 383.634,10.3843 383.38,10.4524C 383.126,10.5205 382.856,10.4598 382.655,10.29C 382.324,10.0181 381.936,9.7536 381.51,9.70502L 381.51,9.70502C 381.194,9.70001 380.866,9.80902 380.606,9.98853C 380.284,10.2517 380.068,10.6387 379.909,11.0234L 379.91,11.0204C 379.65,11.9209 379.501,12.8569 379.435,13.792L 379.435,13.792C 379.339,16.4339 380.11,19.2813 379.077,21.7148C 378.563,22.0311 377.869,21.7307 377.265,21.7098C 376.936,21.6984 376.315,21.7302 376.327,21.4012C 376.364,22.2639 378.05,21.5884 378.913,21.5505C 378.81,18.9642 378.702,16.378 378.591,13.792L 378.591,13.792C 378.581,12.7646 378.666,11.7292 378.871,10.7202C 379.065,10.1114 379.37,9.50488 379.828,9.05902L 379.828,9.05902C 380.294,8.67303 380.907,8.42853 381.51,8.3764L 381.51,8.3764C 382.257,8.39209 382.993,8.74091 383.609,9.16425L 382.537,9.45233L 382.692,8.95319L 383.248,7.16571L 383.592,8.09821C 382.97,7.82062 382.287,7.60284 381.606,7.61395L 381.606,7.61395C 381.266,7.65771 380.927,7.77753 380.637,7.96167L 380.637,7.96167C 380.162,8.36554 379.863,8.94525 379.557,9.4881C 379.319,9.8941 378.839,10.0905 378.385,9.96747C 377.931,9.84442 377.616,9.43237 377.616,8.96198C 377.59,8.68628 377.547,8.4118 377.538,8.13507L 377.635,8.23267C 377.763,10.8878 377.901,13.5425 378.053,16.1965C 378.131,17.5728 378.652,19.3403 377.678,20.3151 Z "/>
		<path fill="#000000" fill-opacity="1" stroke-width="3" stroke-linejoin="round" d="M 385.378,21.5751L 385.378,1.4151L 387.898,1.4151L 387.898,12.5276L 393.62,7.01514L 397.138,7.01514L 391.498,12.4532L 397.418,21.5751L 394.469,21.5751L 389.687,14.1989L 387.898,15.9226L 387.898,21.5751L 385.378,21.5751 Z "/>
		<path fill="#000000" fill-opacity="1" stroke-width="0.2" stroke-linecap="round" stroke-linejoin="round" d="M 386.638,20.3151C 386.658,20.9509 385.792,21.9188 385.236,21.6101C 383.705,20.7605 383.834,18.3144 383.777,16.5646C 383.659,12.9426 383.803,9.31659 383.858,5.69293C 383.885,3.92236 383.166,1.70624 384.368,0.40509C 385.487,-0.596985 387.783,-0.594421 388.874,0.43866C 389.579,1.36841 389.218,2.75873 389.192,3.92548C 389.148,5.87988 389.105,7.83423 389.062,9.78864C 390.441,8.53668 391.552,6.86127 393.244,6.08179C 394.072,5.82642 394.977,6.02826 395.844,6.0379C 396.594,6.04639 397.724,5.96973 398.005,6.66486C 398.293,7.58685 397.017,8.3562 396.31,9.01508C 395.04,10.1997 393.77,11.3839 392.5,12.5679C 393.748,14.5744 394.995,16.5813 396.242,18.5886C 396.88,19.6155 398.342,20.6631 397.907,21.841C 397.244,22.8568 395.427,22.4037 394.231,22.0119C 392.326,19.8643 391.158,17.1618 389.63,14.6954C 389.146,15.137 388.663,15.5793 388.165,16.0363C 388.127,17.9188 388.491,19.8635 388.005,21.6826C 387.206,22.1392 385.268,22.1199 385.287,21.1683C 385.307,22.0554 387.033,21.6909 387.915,21.5923C 387.932,19.6892 387.813,17.7869 387.806,15.8837C 388.388,15.2227 388.834,14.1816 389.704,14.0459C 391.931,15.9172 393.023,18.8228 394.657,21.2283C 395.325,21.2082 395.992,21.1868 396.66,21.1635C 395.341,19.2252 394.021,17.2874 392.701,15.3499C 392.044,14.386 391.038,13.5307 390.852,12.3792C 391.675,10.4778 393.648,9.31891 395.098,7.83844C 394.733,7.8598 394.369,7.88324 393.983,7.91608C 392.707,9.19037 391.431,10.4642 390.154,11.7376C 389.395,12.4946 388.495,13.8522 387.476,13.5187C 386.178,13.0148 386.734,10.8049 386.706,9.41241C 386.66,7.16699 386.435,4.91187 386.638,2.67511L 386.759,2.79694C 386.852,6.44458 386.951,10.092 387.052,13.7393C 387.113,15.9348 388.191,18.7621 386.638,20.3151 Z "/>
	</g>
</svg>
