<?xml version="1.0" encoding="utf-8"?>
<!DOCTYPE svg PUBLIC "-//W3C//DTD SVG 1.1//EN" "http://www.w3.org/Graphics/SVG/1.1/DTD/svg11.dtd">
<svg xmlns="http://www.w3.org/2000/svg" xmlns:xlink="http://www.w3.org/1999/xlink" version="1.1" baseProfile="full" width="902.563" height="73.8062" viewBox="0 0 902.56 73.81" preserveAspectRatio="none">
    <g>
        <linearGradient id="SVGID_Fill1_" gradientUnits="objectBoundingBox" x1="-0.00206767" y1="0.499803" x2="1.0027" y2="0.499803">
            <stop offset="0" stop-color="#FF7D22" stop-opacity="1" />
            <stop offset="0.818965" stop-color="#FFB581" stop-opacity="1" />
            <stop offset="1" stop-color="#FFFFFF" stop-opacity="1" />
        </linearGradient>
        <path fill="url(#SVGID_Fill1_)" fill-rule="evenodd" stroke-width="5" stroke-linejoin="round" d="M 5.29907,2.31871L 895.299,2.31871C 898.06,2.31871 900.299,4.55736 900.299,7.31871L 900.299,931.81C 900.299,934.572 898.06,936.81 895.299,936.81L 5.29907,936.81C 2.53772,936.81 0.299133,934.572 0.299133,931.81L 0.299133,7.31871C 0.299133,4.55736 2.53772,2.31871 5.29907,2.31871 Z " />
        <defs>
            <path id="SVG_CLIPPER1_" d="M 5.29907,2.31871L 895.299,2.31871C 898.06,2.31871 900.299,4.55736 900.299,7.31871L 900.299,931.81C 900.299,934.572 898.06,936.81 895.299,936.81L 5.29907,936.81C 2.53772,936.81 0.299133,934.572 0.299133,931.81L 0.299133,7.31871C 0.299133,4.55736 2.53772,2.31871 5.29907,2.31871 Z " />
        </defs>
        <clipPath id="SVG_CLIPPER2_">
            <use xlink:href="#SVG_CLIPPER1_" overflow="visible" />
        </clipPath>
        <g clip-path="url(#SVG_CLIPPER2_)">
            <path fill="#FFEADB" fill-opacity="1" stroke-width="5" stroke-linejoin="round" d="M 23.9902,23.0122L 873.99,23.0122C 876.751,23.0122 878.99,25.2508 878.99,28.0122L 878.99,931.81C 878.99,934.572 876.751,936.81 873.99,936.81L 23.9902,936.81C 21.2288,936.81 18.9902,934.572 18.9902,931.81L 18.9902,28.0122C 18.9902,25.2508 21.2288,23.0122 23.9902,23.0122 Z " />
            <path fill="#000000" fill-opacity="1" stroke-width="0.2" stroke-linecap="round" stroke-linejoin="round" d="M 21.9533,27.9383L 21.9484,28.0122L 21.9484,28.0122C 21.8767,38.1348 21.7932,48.2579 21.5905,58.3788C 21.5228,61.7505 21.449,65.1226 21.306,68.4919C 21.2625,69.5181 21.2151,70.5444 21.1349,71.5684C 21.0927,72.1084 21.4221,73.1019 20.8751,73.1731C 20.3016,73.248 20.629,72.0603 20.5775,71.4946C 20.5476,71.1656 20.5213,70.8365 20.497,70.5071C 20.4668,70.0975 20.4395,69.6876 20.4139,69.2777C 20.2604,66.8114 20.1564,64.3423 20.0571,61.8732C 19.8657,57.1109 19.712,52.3472 19.5679,47.5832C 19.3704,41.0601 19.1946,34.5362 19.0322,28.0122C 19.0921,25.6519 21.5916,23.0392 23.9902,22.8663L 23.9902,22.8663C 153.569,19.9302 283.208,20.2607 412.821,20.3205C 566.544,20.3913 720.267,20.5152 873.99,20.6312L 873.99,20.6312C 875.891,20.7281 877.92,21.4761 879.254,22.8108C 880.589,24.1473 881.316,26.1426 881.409,28.0122L 881.409,28.0122C 881.169,329.278 880.918,630.544 880.664,931.81L 880.664,931.81C 880.506,934.915 877.153,938.289 873.99,938.447L 873.99,938.447C 590.657,938.217 307.323,937.985 23.9902,937.752L 23.9902,937.752C 21.1644,937.607 18.1763,934.585 18.0379,931.81L 18.0379,931.81C 18.2949,630.544 18.5538,329.278 18.812,28.0122L 18.812,28.0122C 18.9359,25.5987 21.5319,22.9658 23.9902,22.8438L 44.3808,22.8606L 23.9902,22.8787L 23.9902,22.8787C 21.552,23.0037 18.9802,25.6182 18.8615,28.0122L 18.8615,28.0122C 19.1392,329.278 19.4138,630.544 19.6945,931.81L 19.6945,931.81C 19.7979,933.815 21.9474,936.011 23.9902,936.112L 23.9902,936.112C 307.323,935.86 590.657,935.608 873.99,935.354L 873.99,935.354C 875.666,935.268 877.418,933.456 877.5,931.81L 877.5,931.81C 877.217,630.544 876.945,329.278 876.654,28.0122L 876.654,28.0122C 876.588,26.7608 875.265,25.3743 873.99,25.3124L 873.99,25.3124C 689.822,25.4816 505.654,25.6548 321.486,25.8255C 222.321,25.9173 123.155,26.3876 23.9902,25.9602L 23.9902,25.9602C 23.0359,25.9975 22.0148,27.0027 21.9533,27.9383 Z " />
        </g>
        <path fill="none" fill-rule="evenodd" stroke-width="5" stroke-linejoin="round" stroke="#000000" stroke-opacity="0.701961" d="M 5.29907,2.31871L 895.299,2.31871C 898.06,2.31871 900.299,4.55736 900.299,7.31871L 900.299,931.81C 900.299,934.572 898.06,936.81 895.299,936.81L 5.29907,936.81C 2.53772,936.81 0.299133,934.572 0.299133,931.81L 0.299133,7.31871C 0.299133,4.55736 2.53772,2.31871 5.29907,2.31871 Z " />
    </g>
</svg>
