<?xml version="1.0" encoding="UTF-8" standalone="no"?>
<!DOCTYPE svg PUBLIC "-//W3C//DTD SVG 1.1//EN" "http://www.w3.org/Graphics/SVG/1.1/DTD/svg11.dtd">
<!-- Generated by Microsoft Visio, SVG Export module_basics.svg Page-1 -->
<svg xmlns="http://www.w3.org/2000/svg" xmlns:xlink="http://www.w3.org/1999/xlink" xmlns:ev="http://www.w3.org/2001/xml-events"
		xmlns:v="http://schemas.microsoft.com/visio/2003/SVGExtensions/" width="13.6352in" height="6.36623in"
		viewBox="0 0 981.732 458.368" xml:space="preserve" color-interpolation-filters="sRGB" class="st24">
	<title>ModuleInject registries</title>
	<v:documentProperties v:langID="1033" v:metric="true" v:viewMarkup="false"/>

	<style type="text/css">
	<![CDATA[
		.st1 {visibility:visible}
		.st2 {fill:#ed7d31;fill-opacity:0.25;filter:url(#filter_2);stroke:#ed7d31;stroke-opacity:0.25}
		.st3 {fill:#f7cbac;stroke:#ae5a21;stroke-width:0.75}
		.st4 {fill:#833c0b;font-family:Calibri;font-size:1.00001em}
		.st5 {fill:#e2efd9;stroke:#61973d;stroke-width:0.75}
		.st6 {fill:#61973d;font-family:Calibri;font-size:1.00001em}
		.st7 {fill:#70ad47;fill-opacity:0.25;filter:url(#filter_2);stroke:#70ad47;stroke-opacity:0.25}
		.st8 {fill:#61973d;stroke:#507e31;stroke-width:0.75}
		.st9 {fill:#feffff;font-family:Calibri;font-size:0.833336em}
		.st10 {marker-end:url(#mrkr4-51);stroke:#70ad47;stroke-linecap:round;stroke-linejoin:round;stroke-width:1}
		.st11 {fill:#70ad47;fill-opacity:1;stroke:#70ad47;stroke-opacity:1;stroke-width:0.28409090909091}
		.st12 {fill:#d06d29;stroke:#ae5a21;stroke-width:0.75}
		.st13 {fill:#feffff;font-family:Calibri;font-size:0.666664em}
		.st14 {font-size:1em}
		.st15 {marker-end:url(#mrkr4-147);stroke:#41719c;stroke-linecap:round;stroke-linejoin:round;stroke-width:1}
		.st16 {fill:#41719c;fill-opacity:1;stroke:#41719c;stroke-opacity:1;stroke-width:0.28409090909091}
		.st17 {marker-end:url(#mrkr4-193);stroke:#41719c;stroke-linecap:round;stroke-linejoin:round;stroke-width:1}
		.st18 {marker-end:url(#mrkr4-199);stroke:#ed7d31;stroke-linecap:round;stroke-linejoin:round;stroke-width:1}
		.st19 {fill:#ed7d31;fill-opacity:1;stroke:#ed7d31;stroke-opacity:1;stroke-width:0.28409090909091}
		.st20 {marker-end:url(#mrkr4-205);stroke:#ed7d31;stroke-linecap:round;stroke-linejoin:round;stroke-width:1}
		.st21 {fill:url(#grad0-245);stroke:#386288;stroke-width:0.75}
		.st22 {fill:#386288;font-family:Calibri;font-size:0.833336em}
		.st23 {fill:url(#grad0-252);stroke:#386288;stroke-width:0.75}
		.st24 {fill:none;fill-rule:evenodd;font-size:12px;overflow:visible;stroke-linecap:square;stroke-miterlimit:3}
	]]>
	</style>

	<defs id="Patterns_And_Gradients">
		<linearGradient id="grad0-245" x1="0" y1="0" x2="1" y2="0" gradientTransform="rotate(60 0.5 0.5)">
			<stop offset="0" stop-color="#e8ebef" stop-opacity="1"/>
			<stop offset="0.24" stop-color="#f4f5f7" stop-opacity="1"/>
			<stop offset="0.54" stop-color="#feffff" stop-opacity="1"/>
		</linearGradient>
		<linearGradient id="grad0-252" x1="0" y1="0" x2="1" y2="0" gradientTransform="rotate(60 0.5 0.5)">
			<stop offset="0" stop-color="#c9d0da" stop-opacity="1"/>
			<stop offset="0.24" stop-color="#d6d9e0" stop-opacity="1"/>
			<stop offset="0.54" stop-color="#315677" stop-opacity="1"/>
		</linearGradient>
	</defs>
	<defs id="Markers">
		<g id="lend4">
			<path d="M 2 1 L 0 0 L 2 -1 L 2 1 " style="stroke:none"/>
		</g>
		<marker id="mrkr4-51" class="st11" v:arrowType="4" v:arrowSize="2" v:setback="7.04" refX="-7.04" orient="auto"
				markerUnits="strokeWidth" overflow="visible">
			<use xlink:href="#lend4" transform="scale(-3.52,-3.52) "/>
		</marker>
		<marker id="mrkr4-147" class="st16" v:arrowType="4" v:arrowSize="2" v:setback="6.68" refX="-6.68" orient="auto"
				markerUnits="strokeWidth" overflow="visible">
			<use xlink:href="#lend4" transform="scale(-3.52,-3.52) "/>
		</marker>
		<marker id="mrkr4-193" class="st16" v:arrowType="4" v:arrowSize="2" v:setback="7.04" refX="-7.04" orient="auto"
				markerUnits="strokeWidth" overflow="visible">
			<use xlink:href="#lend4" transform="scale(-3.52,-3.52) "/>
		</marker>
		<marker id="mrkr4-199" class="st19" v:arrowType="4" v:arrowSize="2" v:setback="7.04" refX="-7.04" orient="auto"
				markerUnits="strokeWidth" overflow="visible">
			<use xlink:href="#lend4" transform="scale(-3.52,-3.52) "/>
		</marker>
		<marker id="mrkr4-205" class="st19" v:arrowType="4" v:arrowSize="2" v:setback="6.68" refX="-6.68" orient="auto"
				markerUnits="strokeWidth" overflow="visible">
			<use xlink:href="#lend4" transform="scale(-3.52,-3.52) "/>
		</marker>
	</defs>
	<defs id="Filters">
		<filter id="filter_2">
			<feGaussianBlur stdDeviation="2"/>
		</filter>
	</defs>
	<g v:mID="0" v:index="1" v:groupContext="foregroundPage">
		<title>Page-1</title>
		<v:pageProperties v:drawingScale="0.0393701" v:pageScale="0.0393701" v:drawingUnits="24" v:shadowOffsetX="8.50394"
				v:shadowOffsetY="-8.50394"/>
		<v:layer v:name="Connector" v:index="0"/>
		<g id="shape46-1" v:mID="46" v:groupContext="shape" transform="translate(3.02941,-31.7694)">
			<title>Sheet.46</title>
			<desc>Runtime Tree</desc>
			<v:textBlock v:margins="rect(4,4,4,4)" v:tabSpace="42.5197" v:verticalAlign="0"/>
			<v:textRect cx="216.85" cy="245.77" width="433.71" height="425.197"/>
			<g id="shadow46-2" v:groupContext="shadow" v:shadowOffsetX="0.345598" v:shadowOffsetY="-1.97279" v:shadowType="1"
					transform="matrix(1,0,0,1,0.345598,1.97279)" class="st1">
				<rect x="0" y="33.1716" width="433.701" height="425.197" class="st2"/>
			</g>
			<rect x="0" y="33.1716" width="433.701" height="425.197" class="st3"/>
			<text x="183.78" y="47.97" class="st4" v:langID="1031"><v:paragraph v:horizAlign="1"/><v:tabList/>Runtime Tree</text>		</g>
		<g id="shape48-7" v:mID="48" v:groupContext="shape" transform="translate(470.746,-31.7694)">
			<title>Sheet.48</title>
			<desc>Setup Tree</desc>
			<v:textBlock v:margins="rect(4,4,4,4)" v:tabSpace="42.5197" v:verticalAlign="0"/>
			<v:textRect cx="255.118" cy="245.77" width="510.24" height="425.197"/>
			<rect x="0" y="33.1716" width="510.236" height="425.197" class="st5"/>
			<text x="228.72" y="47.97" class="st6" v:langID="1031"><v:paragraph v:horizAlign="1"/><v:tabList/>Setup Tree</text>		</g>
		<g id="shape1-10" v:mID="1" v:groupContext="shape" transform="translate(590.099,-336.121)">
			<title>Rectangle.1</title>
			<desc>ApplicationModule</desc>
			<v:userDefs>
				<v:ud v:nameU="visVersion" v:val="VT0(15):26"/>
			</v:userDefs>
			<v:textBlock v:margins="rect(4,4,4,4)" v:tabSpace="42.5197"/>
			<v:textRect cx="56.6929" cy="415.849" width="113.39" height="85.0394"/>
			<g id="shadow1-11" v:groupContext="shadow" v:shadowOffsetX="0.345598" v:shadowOffsetY="-1.97279" v:shadowType="1"
					transform="matrix(1,0,0,1,0.345598,1.97279)" class="st1">
				<rect x="0" y="373.329" width="113.386" height="85.0394" class="st7"/>
			</g>
			<rect x="0" y="373.329" width="113.386" height="85.0394" class="st8"/>
			<text x="17.85" y="418.85" class="st9" v:langID="1031"><v:paragraph v:horizAlign="1"/><v:tabList/>ApplicationModule</text>		</g>
		<g id="shape2-16" v:mID="2" v:groupContext="shape" transform="translate(499.092,-201.848)">
			<title>Rectangle.2</title>
			<desc>ModuleA</desc>
			<v:userDefs>
				<v:ud v:nameU="visVersion" v:val="VT0(15):26"/>
			</v:userDefs>
			<v:textBlock v:margins="rect(4,4,4,4)" v:tabSpace="42.5197"/>
			<v:textRect cx="56.6929" cy="415.849" width="113.39" height="85.0394"/>
			<g id="shadow2-17" v:groupContext="shadow" v:shadowOffsetX="0.345598" v:shadowOffsetY="-1.97279" v:shadowType="1"
					transform="matrix(1,0,0,1,0.345598,1.97279)" class="st1">
				<rect x="0" y="373.329" width="113.386" height="85.0394" class="st7"/>
			</g>
			<rect x="0" y="373.329" width="113.386" height="85.0394" class="st8"/>
			<text x="38" y="418.85" class="st9" v:langID="1031"><v:paragraph v:horizAlign="1"/><v:tabList/>ModuleA</text>		</g>
		<g id="shape3-22" v:mID="3" v:groupContext="shape" transform="translate(683.344,-201.848)">
			<title>Rectangle.3</title>
			<desc>ModuleB</desc>
			<v:userDefs>
				<v:ud v:nameU="visVersion" v:val="VT0(15):26"/>
			</v:userDefs>
			<v:textBlock v:margins="rect(4,4,4,4)" v:tabSpace="42.5197"/>
			<v:textRect cx="56.6929" cy="415.849" width="113.39" height="85.0394"/>
			<g id="shadow3-23" v:groupContext="shadow" v:shadowOffsetX="0.345598" v:shadowOffsetY="-1.97279" v:shadowType="1"
					transform="matrix(1,0,0,1,0.345598,1.97279)" class="st1">
				<rect x="0" y="373.329" width="113.386" height="85.0394" class="st7"/>
			</g>
			<rect x="0" y="373.329" width="113.386" height="85.0394" class="st8"/>
			<text x="38.17" y="418.85" class="st9" v:langID="1031"><v:paragraph v:horizAlign="1"/><v:tabList/>ModuleB</text>		</g>
		<g id="shape4-28" v:mID="4" v:groupContext="shape" transform="translate(499.092,-45.9426)">
			<title>Rectangle.4</title>
			<desc>ModuleC</desc>
			<v:userDefs>
				<v:ud v:nameU="visVersion" v:val="VT0(15):26"/>
			</v:userDefs>
			<v:textBlock v:margins="rect(4,4,4,4)" v:tabSpace="42.5197"/>
			<v:textRect cx="56.6929" cy="415.849" width="113.39" height="85.0394"/>
			<g id="shadow4-29" v:groupContext="shadow" v:shadowOffsetX="0.345598" v:shadowOffsetY="-1.97279" v:shadowType="1"
					transform="matrix(1,0,0,1,0.345598,1.97279)" class="st1">
				<rect x="0" y="373.329" width="113.386" height="85.0394" class="st7"/>
			</g>
			<rect x="0" y="373.329" width="113.386" height="85.0394" class="st8"/>
			<text x="38.23" y="418.85" class="st9" v:langID="1031"><v:paragraph v:horizAlign="1"/><v:tabList/>ModuleC</text>		</g>
		<g id="shape5-34" v:mID="5" v:groupContext="shape" transform="translate(683.344,-45.9426)">
			<title>Rectangle.5</title>
			<desc>ModuleD</desc>
			<v:userDefs>
				<v:ud v:nameU="visVersion" v:val="VT0(15):26"/>
			</v:userDefs>
			<v:textBlock v:margins="rect(4,4,4,4)" v:tabSpace="42.5197"/>
			<v:textRect cx="56.6929" cy="415.849" width="113.39" height="85.0394"/>
			<g id="shadow5-35" v:groupContext="shadow" v:shadowOffsetX="0.345598" v:shadowOffsetY="-1.97279" v:shadowType="1"
					transform="matrix(1,0,0,1,0.345598,1.97279)" class="st1">
				<rect x="0" y="373.329" width="113.386" height="85.0394" class="st7"/>
			</g>
			<rect x="0" y="373.329" width="113.386" height="85.0394" class="st8"/>
			<text x="37.82" y="418.85" class="st9" v:langID="1031"><v:paragraph v:horizAlign="1"/><v:tabList/>ModuleD</text>		</g>
		<g id="shape6-40" v:mID="6" v:groupContext="shape" transform="translate(853.423,-45.9426)">
			<title>Rectangle.6</title>
			<desc>ModuleE</desc>
			<v:userDefs>
				<v:ud v:nameU="visVersion" v:val="VT0(15):26"/>
			</v:userDefs>
			<v:textBlock v:margins="rect(4,4,4,4)" v:tabSpace="42.5197"/>
			<v:textRect cx="56.6929" cy="415.849" width="113.39" height="85.0394"/>
			<g id="shadow6-41" v:groupContext="shadow" v:shadowOffsetX="0.345598" v:shadowOffsetY="-1.97279" v:shadowType="1"
					transform="matrix(1,0,0,1,0.345598,1.97279)" class="st1">
				<rect x="0" y="373.329" width="113.386" height="85.0394" class="st7"/>
			</g>
			<rect x="0" y="373.329" width="113.386" height="85.0394" class="st8"/>
			<text x="38.45" y="418.85" class="st9" v:langID="1031"><v:paragraph v:horizAlign="1"/><v:tabList/>ModuleE</text>		</g>
		<g id="shape11-46" v:mID="11" v:groupContext="shape" v:layerMember="0" transform="translate(646.792,-336.121)">
			<title>Dynamic connector</title>
			<path d="M0 458.37 L-84.82 504.25" class="st10"/>
		</g>
		<g id="shape12-52" v:mID="12" v:groupContext="shape" v:layerMember="0" transform="translate(646.792,-336.121)">
			<title>Dynamic connector.12</title>
			<path d="M0 458.37 L87.02 504.31" class="st10"/>
		</g>
		<g id="shape13-57" v:mID="13" v:groupContext="shape" v:layerMember="0" transform="translate(548.699,-201.848)">
			<title>Dynamic connector.13</title>
			<path d="M7.09 458.37 L7.09 522.19" class="st10"/>
		</g>
		<g id="shape14-62" v:mID="14" v:groupContext="shape" v:layerMember="0" transform="translate(732.951,-201.848)">
			<title>Dynamic connector.14</title>
			<path d="M7.09 458.37 L7.09 522.19" class="st10"/>
		</g>
		<g id="shape15-67" v:mID="15" v:groupContext="shape" v:layerMember="0" transform="translate(740.037,-201.848)">
			<title>Dynamic connector.15</title>
			<path d="M0 458.37 L163.58 526.53" class="st10"/>
		</g>
		<g id="shape16-72" v:mID="16" v:groupContext="shape" transform="translate(88.0688,-258.168)">
			<title>Circle</title>
			<desc>Component 2</desc>
			<v:userDefs>
				<v:ud v:nameU="visVersion" v:val="VT0(15):26"/>
			</v:userDefs>
			<v:textBlock v:margins="rect(4,4,4,4)" v:tabSpace="42.5197"/>
			<v:textRect cx="28.3465" cy="430.022" width="49.61" height="42.5197"/>
			<g id="shadow16-73" v:groupContext="shadow" v:shadowOffsetX="0.345598" v:shadowOffsetY="-1.97279" v:shadowType="1"
					transform="matrix(1,0,0,1,0.345598,1.97279)" class="st1">
				<path d="M0 430.02 A28.3465 28.3465 0 1 1 56.69 430.02 A28.3465 28.3465 0 1 1 0 430.02 Z" class="st2"/>
			</g>
			<path d="M0 430.02 A28.3465 28.3465 0 1 1 56.69 430.02 A28.3465 28.3465 0 1 1 0 430.02 Z" class="st12"/>
			<text x="9.17" y="427.62" class="st13" v:langID="1031"><v:paragraph v:horizAlign="1"/><v:tabList/>Component <tspan
						x="26.32" dy="1.2em" class="st14">2</tspan></text>		</g>
		<g id="shape17-79" v:mID="17" v:groupContext="shape" transform="translate(88.0688,-180.215)">
			<title>Circle.17</title>
			<desc>Component 3</desc>
			<v:userDefs>
				<v:ud v:nameU="visVersion" v:val="VT0(15):26"/>
			</v:userDefs>
			<v:textBlock v:margins="rect(4,4,4,4)" v:tabSpace="42.5197"/>
			<v:textRect cx="28.3465" cy="430.022" width="49.61" height="42.5197"/>
			<g id="shadow17-80" v:groupContext="shadow" v:shadowOffsetX="0.345598" v:shadowOffsetY="-1.97279" v:shadowType="1"
					transform="matrix(1,0,0,1,0.345598,1.97279)" class="st1">
				<path d="M0 430.02 A28.3465 28.3465 0 1 1 56.69 430.02 A28.3465 28.3465 0 1 1 0 430.02 Z" class="st2"/>
			</g>
			<path d="M0 430.02 A28.3465 28.3465 0 1 1 56.69 430.02 A28.3465 28.3465 0 1 1 0 430.02 Z" class="st12"/>
			<text x="9.17" y="427.62" class="st13" v:langID="1031"><v:paragraph v:horizAlign="1"/><v:tabList/>Component <tspan
						x="26.32" dy="1.2em" class="st14">3</tspan></text>		</g>
		<g id="shape18-86" v:mID="18" v:groupContext="shape" transform="translate(17.2026,-60.1159)">
			<title>Circle.18</title>
			<desc>Component 10</desc>
			<v:userDefs>
				<v:ud v:nameU="visVersion" v:val="VT0(15):26"/>
			</v:userDefs>
			<v:textBlock v:margins="rect(4,4,4,4)" v:tabSpace="42.5197"/>
			<v:textRect cx="28.3465" cy="430.022" width="49.61" height="42.5197"/>
			<g id="shadow18-87" v:groupContext="shadow" v:shadowOffsetX="0.345598" v:shadowOffsetY="-1.97279" v:shadowType="1"
					transform="matrix(1,0,0,1,0.345598,1.97279)" class="st1">
				<path d="M0 430.02 A28.3465 28.3465 0 1 1 56.69 430.02 A28.3465 28.3465 0 1 1 0 430.02 Z" class="st2"/>
			</g>
			<path d="M0 430.02 A28.3465 28.3465 0 1 1 56.69 430.02 A28.3465 28.3465 0 1 1 0 430.02 Z" class="st12"/>
			<text x="9.17" y="427.62" class="st13" v:langID="1031"><v:paragraph v:horizAlign="1"/><v:tabList/>Component <tspan
						x="24.29" dy="1.2em" class="st14">10</tspan></text>		</g>
		<g id="shape19-93" v:mID="19" v:groupContext="shape" transform="translate(102.242,-60.1159)">
			<title>Circle.19</title>
			<desc>Component 9</desc>
			<v:userDefs>
				<v:ud v:nameU="visVersion" v:val="VT0(15):26"/>
			</v:userDefs>
			<v:textBlock v:margins="rect(4,4,4,4)" v:tabSpace="42.5197"/>
			<v:textRect cx="28.3465" cy="430.022" width="49.61" height="42.5197"/>
			<g id="shadow19-94" v:groupContext="shadow" v:shadowOffsetX="0.345598" v:shadowOffsetY="-1.97279" v:shadowType="1"
					transform="matrix(1,0,0,1,0.345598,1.97279)" class="st1">
				<path d="M0 430.02 A28.3465 28.3465 0 1 1 56.69 430.02 A28.3465 28.3465 0 1 1 0 430.02 Z" class="st2"/>
			</g>
			<path d="M0 430.02 A28.3465 28.3465 0 1 1 56.69 430.02 A28.3465 28.3465 0 1 1 0 430.02 Z" class="st12"/>
			<text x="9.17" y="427.62" class="st13" v:langID="1031"><v:paragraph v:horizAlign="1"/><v:tabList/>Component <tspan
						x="26.32" dy="1.2em" class="st14">9</tspan></text>		</g>
		<g id="shape20-100" v:mID="20" v:groupContext="shape" transform="translate(194.368,-60.1159)">
			<title>Circle.20</title>
			<desc>Component 8</desc>
			<v:userDefs>
				<v:ud v:nameU="visVersion" v:val="VT0(15):26"/>
			</v:userDefs>
			<v:textBlock v:margins="rect(4,4,4,4)" v:tabSpace="42.5197"/>
			<v:textRect cx="28.3465" cy="430.022" width="49.61" height="42.5197"/>
			<g id="shadow20-101" v:groupContext="shadow" v:shadowOffsetX="0.345598" v:shadowOffsetY="-1.97279" v:shadowType="1"
					transform="matrix(1,0,0,1,0.345598,1.97279)" class="st1">
				<path d="M0 430.02 A28.3465 28.3465 0 1 1 56.69 430.02 A28.3465 28.3465 0 1 1 0 430.02 Z" class="st2"/>
			</g>
			<path d="M0 430.02 A28.3465 28.3465 0 1 1 56.69 430.02 A28.3465 28.3465 0 1 1 0 430.02 Z" class="st12"/>
			<text x="9.17" y="427.62" class="st13" v:langID="1031"><v:paragraph v:horizAlign="1"/><v:tabList/>Component <tspan
						x="26.32" dy="1.2em" class="st14">8</tspan></text>		</g>
		<g id="shape21-107" v:mID="21" v:groupContext="shape" transform="translate(265.234,-60.1159)">
			<title>Circle.21</title>
			<desc>Component 7</desc>
			<v:userDefs>
				<v:ud v:nameU="visVersion" v:val="VT0(15):26"/>
			</v:userDefs>
			<v:textBlock v:margins="rect(4,4,4,4)" v:tabSpace="42.5197"/>
			<v:textRect cx="28.3465" cy="430.022" width="49.61" height="42.5197"/>
			<g id="shadow21-108" v:groupContext="shadow" v:shadowOffsetX="0.345598" v:shadowOffsetY="-1.97279" v:shadowType="1"
					transform="matrix(1,0,0,1,0.345598,1.97279)" class="st1">
				<path d="M0 430.02 A28.3465 28.3465 0 1 1 56.69 430.02 A28.3465 28.3465 0 1 1 0 430.02 Z" class="st2"/>
			</g>
			<path d="M0 430.02 A28.3465 28.3465 0 1 1 56.69 430.02 A28.3465 28.3465 0 1 1 0 430.02 Z" class="st12"/>
			<text x="9.17" y="427.62" class="st13" v:langID="1031"><v:paragraph v:horizAlign="1"/><v:tabList/>Component <tspan
						x="26.32" dy="1.2em" class="st14">7</tspan></text>		</g>
		<g id="shape22-114" v:mID="22" v:groupContext="shape" transform="translate(371.533,-60.1159)">
			<title>Circle.22</title>
			<desc>Component 6</desc>
			<v:userDefs>
				<v:ud v:nameU="visVersion" v:val="VT0(15):26"/>
			</v:userDefs>
			<v:textBlock v:margins="rect(4,4,4,4)" v:tabSpace="42.5197"/>
			<v:textRect cx="28.3465" cy="430.022" width="49.61" height="42.5197"/>
			<g id="shadow22-115" v:groupContext="shadow" v:shadowOffsetX="0.345598" v:shadowOffsetY="-1.97279" v:shadowType="1"
					transform="matrix(1,0,0,1,0.345598,1.97279)" class="st1">
				<path d="M0 430.02 A28.3465 28.3465 0 1 1 56.69 430.02 A28.3465 28.3465 0 1 1 0 430.02 Z" class="st2"/>
			</g>
			<path d="M0 430.02 A28.3465 28.3465 0 1 1 56.69 430.02 A28.3465 28.3465 0 1 1 0 430.02 Z" class="st12"/>
			<text x="9.17" y="427.62" class="st13" v:langID="1031"><v:paragraph v:horizAlign="1"/><v:tabList/>Component <tspan
						x="26.32" dy="1.2em" class="st14">6</tspan></text>		</g>
		<g id="shape23-121" v:mID="23" v:groupContext="shape" transform="translate(258.64,-254.998)">
			<title>Circle.23</title>
			<desc>Component 4</desc>
			<v:userDefs>
				<v:ud v:nameU="visVersion" v:val="VT0(15):26"/>
			</v:userDefs>
			<v:textBlock v:margins="rect(4,4,4,4)" v:tabSpace="42.5197"/>
			<v:textRect cx="28.3465" cy="430.022" width="49.61" height="42.5197"/>
			<g id="shadow23-122" v:groupContext="shadow" v:shadowOffsetX="0.345598" v:shadowOffsetY="-1.97279" v:shadowType="1"
					transform="matrix(1,0,0,1,0.345598,1.97279)" class="st1">
				<path d="M0 430.02 A28.3465 28.3465 0 1 1 56.69 430.02 A28.3465 28.3465 0 1 1 0 430.02 Z" class="st2"/>
			</g>
			<path d="M0 430.02 A28.3465 28.3465 0 1 1 56.69 430.02 A28.3465 28.3465 0 1 1 0 430.02 Z" class="st12"/>
			<text x="9.17" y="427.62" class="st13" v:langID="1031"><v:paragraph v:horizAlign="1"/><v:tabList/>Component <tspan
						x="26.32" dy="1.2em" class="st14">4</tspan></text>		</g>
		<g id="shape24-128" v:mID="24" v:groupContext="shape" transform="translate(258.64,-177.045)">
			<title>Circle.24</title>
			<desc>Component 5</desc>
			<v:userDefs>
				<v:ud v:nameU="visVersion" v:val="VT0(15):26"/>
			</v:userDefs>
			<v:textBlock v:margins="rect(4,4,4,4)" v:tabSpace="42.5197"/>
			<v:textRect cx="28.3465" cy="430.022" width="49.61" height="42.5197"/>
			<g id="shadow24-129" v:groupContext="shadow" v:shadowOffsetX="0.345598" v:shadowOffsetY="-1.97279" v:shadowType="1"
					transform="matrix(1,0,0,1,0.345598,1.97279)" class="st1">
				<path d="M0 430.02 A28.3465 28.3465 0 1 1 56.69 430.02 A28.3465 28.3465 0 1 1 0 430.02 Z" class="st2"/>
			</g>
			<path d="M0 430.02 A28.3465 28.3465 0 1 1 56.69 430.02 A28.3465 28.3465 0 1 1 0 430.02 Z" class="st12"/>
			<text x="9.17" y="427.62" class="st13" v:langID="1031"><v:paragraph v:horizAlign="1"/><v:tabList/>Component <tspan
						x="26.32" dy="1.2em" class="st14">5</tspan></text>		</g>
		<g id="shape25-135" v:mID="25" v:groupContext="shape" transform="translate(172.362,-350.294)">
			<title>Circle.25</title>
			<desc>Component 1</desc>
			<v:userDefs>
				<v:ud v:nameU="visVersion" v:val="VT0(15):26"/>
			</v:userDefs>
			<v:textBlock v:margins="rect(4,4,4,4)" v:tabSpace="42.5197"/>
			<v:textRect cx="28.3465" cy="430.022" width="49.61" height="42.5197"/>
			<g id="shadow25-136" v:groupContext="shadow" v:shadowOffsetX="0.345598" v:shadowOffsetY="-1.97279" v:shadowType="1"
					transform="matrix(1,0,0,1,0.345598,1.97279)" class="st1">
				<path d="M0 430.02 A28.3465 28.3465 0 1 1 56.69 430.02 A28.3465 28.3465 0 1 1 0 430.02 Z" class="st2"/>
			</g>
			<path d="M0 430.02 A28.3465 28.3465 0 1 1 56.69 430.02 A28.3465 28.3465 0 1 1 0 430.02 Z" class="st12"/>
			<text x="9.17" y="427.62" class="st13" v:langID="1031"><v:paragraph v:horizAlign="1"/><v:tabList/>Component <tspan
						x="26.32" dy="1.2em" class="st14">1</tspan></text>		</g>
		<g id="shape26-142" v:mID="26" v:groupContext="shape" v:layerMember="0" transform="translate(499.092,-244.368)">
			<title>Dynamic connector.26</title>
			<path d="M0 458.37 C-171.85 458.37 -283.38 458.37 -322.53 440.62 C-338.32 433.46 -342.33 423.41 -347.76 418.76 L-348.1
						 418.63" class="st15"/>
		</g>
		<g id="shape27-148" v:mID="27" v:groupContext="shape" v:layerMember="0" transform="translate(499.092,-244.368)">
			<title>Dynamic connector.27</title>
			<path d="M0 458.37 C-171.85 458.37 -283.58 458.37 -322.67 473.5 C-338.25 479.54 -342.29 487.97 -347.65 491.94 L-348 492.06"
					class="st15"/>
		</g>
		<g id="shape28-153" v:mID="28" v:groupContext="shape" v:layerMember="0" transform="translate(555.785,-45.9426)">
			<title>Dynamic connector.28</title>
			<path d="M0 458.37 C-0 469 -51.05 469 -94.44 469 C-159.47 469 -207.29 469 -255.1 469 C-302.9 469 -350.67 469 -415.59
						 469 C-454.61 469 -499.83 469 -508.69 451.06 L-508.77 450.71" class="st15"/>
		</g>
		<g id="shape29-158" v:mID="29" v:groupContext="shape" v:layerMember="0" transform="translate(555.785,-45.9426)">
			<title>Dynamic connector.29</title>
			<path d="M0 458.37 C-0 469 -42.55 469 -78.72 469 C-132.9 469 -172.75 469 -212.57 469 C-252.39 469 -292.19 469 -346.23
						 469 C-378.76 469 -416.45 469 -423.89 451.11 L-423.95 450.76" class="st15"/>
		</g>
		<g id="shape30-163" v:mID="30" v:groupContext="shape" v:layerMember="0" transform="translate(740.037,-45.9426)">
			<title>Dynamic connector.30</title>
			<path d="M0 458.37 C-0 465.46 -95.14 483.56 -230.12 492.42 C-359.57 500.91 -525.64 500.9 -536.78 442.91 L-536.81 442.55"
					class="st15"/>
		</g>
		<g id="shape31-168" v:mID="31" v:groupContext="shape" v:layerMember="0" transform="translate(740.037,-45.9426)">
			<title>Dynamic connector.31</title>
			<path d="M0 458.37 C-0 465.46 -127.11 481.03 -233.62 481.05 C-331.8 481.06 -412.46 467.86 -424.78 442.74 L-424.86 442.39"
					class="st15"/>
		</g>
		<g id="shape32-173" v:mID="32" v:groupContext="shape" v:layerMember="0" transform="translate(910.116,-45.9426)">
			<title>Dynamic connector.32</title>
			<path d="M0 458.37 C-0 461.91 -143.19 466.8 -265.72 466.87 C-381.02 466.94 -478.03 462.74 -504.65 448.48 L-504.93 448.26"
					class="st15"/>
		</g>
		<g id="shape33-178" v:mID="33" v:groupContext="shape" v:layerMember="0" transform="translate(683.344,-244.368)">
			<title>Dynamic connector.33</title>
			<path d="M0 458.37 C-31.89 458.37 -50.47 458.37 -58.23 464.29 C-63.78 468.53 -63.78 475.81 -63.78 481.58 C-63.78 487.42
						 -63.78 491.73 -63.78 494.79 C-63.78 497.53 -63.78 499.28 -64.3 500.73 C-66.9 507.97 -82.41 507.97 -116.21
						 507.97 C-155.59 507.97 -219.79 507.97 -259.9 507.97 C-300.02 507.97 -316.05 507.97 -338.92 507.97 C-345.52
						 507.97 -352.69 507.97 -355.53 504.09 C-356.83 502.3 -357.22 499.69 -361.04 498.3 L-361.39 498.25"
					class="st15"/>
		</g>
		<g id="shape34-183" v:mID="34" v:groupContext="shape" v:layerMember="0" transform="translate(683.344,-244.368)">
			<title>Dynamic connector.34</title>
			<path d="M0 458.37 C-31.89 458.37 -50.47 458.37 -58.23 464.29 C-63.78 468.53 -63.78 475.81 -63.78 481.57 C-63.78 487.41
						 -63.78 491.71 -63.78 494.76 C-63.78 497.51 -63.78 499.26 -64.27 500.71 C-66.72 507.97 -81.39 507.97 -112.44
						 507.97 C-153.77 507.97 -224.12 507.97 -274.88 507.97 C-319.98 507.97 -349.61 507.97 -357.8 487.74 C-360.92
						 480.02 -360.92 469.35 -366.27 464.97 C-369.56 462.27 -374.86 461.95 -376.06 446.47 L-376.08 446.11"
					class="st15"/>
		</g>
		<g id="shape35-188" v:mID="35" v:groupContext="shape" v:layerMember="0" transform="translate(590.099,-371.554)">
			<title>Dynamic connector.35</title>
			<path d="M0 451.28 C-87.97 451.28 -261.68 451.28 -354 451.28" class="st17"/>
		</g>
		<g id="shape37-194" v:mID="37" v:groupContext="shape" v:layerMember="0" transform="translate(109.329,-258.168)">
			<title>Dynamic connector.37</title>
			<path d="M7.09 458.37 C7.09 461.83 7.09 467.55 7.09 472.59" class="st18"/>
		</g>
		<g id="shape38-200" v:mID="38" v:groupContext="shape" v:layerMember="0" transform="translate(180.662,-358.594)">
			<title>Dynamic connector.38</title>
			<path d="M0 458.37 C-0 475.39 -51.93 477.11 -62.42 495.3 L-62.51 495.65" class="st20"/>
		</g>
		<g id="shape39-206" v:mID="39" v:groupContext="shape" v:layerMember="0" transform="translate(220.755,-358.594)">
			<title>Dynamic connector.39</title>
			<path d="M0 458.37 C0 475.6 54.9 477.15 64.73 498.39 L64.81 498.74" class="st20"/>
		</g>
		<g id="shape40-211" v:mID="40" v:groupContext="shape" v:layerMember="0" transform="translate(279.9,-254.998)">
			<title>Dynamic connector.40</title>
			<path d="M7.09 458.37 C7.09 461.83 7.09 467.55 7.09 472.59" class="st18"/>
		</g>
		<g id="shape41-216" v:mID="41" v:groupContext="shape" v:layerMember="0" transform="translate(286.986,-177.045)">
			<title>Dynamic connector.41</title>
			<path d="M0 458.37 C0 469 9.52 469 17.86 469 C34.26 469 46.13 469 67.8 469 C85.71 469 110.3 469 112.7 511.57 L112.71
						 511.93" class="st20"/>
		</g>
		<g id="shape42-221" v:mID="42" v:groupContext="shape" v:layerMember="0" transform="translate(283.197,-177.045)">
			<title>Dynamic connector.42</title>
			<path d="M3.79 458.37 C3.79 469 6.55 469 8.16 473.35 C10.16 478.79 10.36 491.04 10.38 511.56 L10.38 511.92"
					class="st20"/>
		</g>
		<g id="shape43-226" v:mID="43" v:groupContext="shape" v:layerMember="0" transform="translate(265.234,-81.3757)">
			<title>Dynamic connector.43</title>
			<path d="M0 451.28 C-1.78 451.28 -4.46 451.28 -7.13 451.28" class="st18"/>
		</g>
		<g id="shape44-231" v:mID="44" v:groupContext="shape" v:layerMember="0" transform="translate(116.415,-180.215)">
			<title>Dynamic connector.44</title>
			<path d="M0 458.37 C-0 511.15 -19.57 511.15 -39.13 511.15 C-50.83 511.15 -62.53 511.15 -67.87 515.41 L-68.02 515.73"
					class="st20"/>
		</g>
		<g id="shape45-236" v:mID="45" v:groupContext="shape" v:layerMember="0" transform="translate(73.8956,-81.3757)">
			<title>Dynamic connector.45</title>
			<path d="M0 451.28 C5.17 451.28 14.1 451.28 21.31 451.28" class="st18"/>
		</g>
		<g id="group49-241" transform="translate(17.2026,-371.927)" v:mID="49" v:groupContext="group">
			<v:userDefs>
				<v:ud v:nameU="ControlDistFromCorner" v:prompt="" v:val="VT0(0.33406619583616):24"/>
				<v:ud v:nameU="AngToControl" v:prompt="" v:val="VT0(0.78539816339745):32"/>
				<v:ud v:nameU="XFoldLength" v:prompt="" v:val="VT0(0.23622047244094):24"/>
				<v:ud v:nameU="YFoldLength" v:prompt="" v:val="VT0(0.23622047244094):24"/>
				<v:ud v:nameU="visVersion" v:prompt="" v:val="VT0(15):26"/>
				<v:ud v:nameU="ControlDistFromCorner" v:prompt="" v:val="VT0(0.3698483115759):1"/>
				<v:ud v:nameU="AngToControl" v:prompt="" v:val="VT0(1.1309537439792):32"/>
				<v:ud v:nameU="XFoldLength" v:prompt="" v:val="VT0(0.20437702640111):1"/>
				<v:ud v:nameU="YFoldLength" v:prompt="" v:val="VT0(0.43430118110236):1"/>
			</v:userDefs>
			<title>Folded Corner.38</title>
			<desc>The components and their connections are created by the modules</desc>
			<g id="shape49-242" v:mID="49" v:groupContext="groupContent">
				<v:textBlock v:margins="rect(4,4,4,4)" v:tabSpace="42.5197"/>
				<v:textRect cx="60.2362" cy="430.022" width="120.48" height="56.6929"/>
				<path d="M0 458.37 L105.76 458.37 L120.47 427.1 L120.47 401.68 L0 401.68 L0 458.37 Z" class="st21"/>
				<text x="4" y="421.02" class="st22" v:langID="1031"><v:paragraph/><v:tabList/>The components and their <tspan x="4"
							dy="1.2em" class="st14">connections are created by </tspan><tspan x="4" dy="1.2em" class="st14">the modules</tspan></text>			</g>
			<g id="shape50-249" v:mID="50" v:groupContext="shape" transform="translate(96.378,5.68434E-014)">
				<title>Sheet.50</title>
				<v:userDefs>
					<v:ud v:nameU="ControlX" v:prompt="" v:val="VT0(0.94488188976378):24"/>
					<v:ud v:nameU="ControlY" v:prompt="" v:val="VT0(0.23622047244094):24"/>
					<v:ud v:nameU="XFoldLength" v:prompt="" v:val="VT0(0.23622047244094):24"/>
					<v:ud v:nameU="YFoldLength" v:prompt="" v:val="VT0(0.23622047244094):24"/>
					<v:ud v:nameU="FillForegnd" v:prompt="" v:val="VT5(1)"/>
					<v:ud v:nameU="ControlX" v:prompt="" v:val="VT0(1.3385826771654):1"/>
					<v:ud v:nameU="ControlY" v:prompt="" v:val="VT0(0.15748031496063):1"/>
					<v:ud v:nameU="XFoldLength" v:prompt="" v:val="VT0(0.20437702640111):1"/>
					<v:ud v:nameU="YFoldLength" v:prompt="" v:val="VT0(0.43430118110236):1"/>
					<v:ud v:nameU="FillForegnd" v:prompt="" v:val="VT5(#41719c)"/>
				</v:userDefs>
				<path d="M9.38 458.37 L24.09 427.1 L0 447.03 L9.38 458.37 Z" class="st23"/>
			</g>
		</g>
	</g>
</svg>
